<svg width="50" height="36" viewBox="0 0 50 36" fill="none" xmlns="http://www.w3.org/2000/svg">
<path fill-rule="evenodd" clip-rule="evenodd" d="M6.77829 11.9715C4.86095 15.5963 5.80213 19.0776 8.22679 21.1594L8.22329 21.1559C8.22329 21.1559 9.0595 21.8662 10.2386 22.1566C10.3999 22.1963 10.5901 22.2319 10.7703 22.2614C14.0459 21.2252 17.2894 18.7438 18.762 14.8159C16.047 13.0035 13.9302 11.5865 13.9302 11.5865C12.1543 10.4748 10.5384 9.83389 9.10847 9.50153C7.65216 10.5147 6.95452 11.6523 6.77829 11.9715ZM1.944 10.4697C1.94366 10.47 1.94331 10.4703 1.94296 10.4706C1.56159 10.8904 1.23621 11.3697 0.917815 11.968C-1.16208 15.8841 0.644444 19.7397 2.84785 21.6046C2.84725 21.6042 2.84665 21.6039 2.84605 21.6036C2.84605 21.6036 4.05663 22.7162 5.22872 23.3215C6.83117 24.1472 8.84647 24.9379 12.0899 24.9484C16.0225 24.9624 21.0468 22.5378 23.2755 17.8144C23.7336 18.1122 24.1857 18.4099 24.6289 18.7018C24.8627 18.8558 25.0939 19.0081 25.3223 19.1579L25.3538 32.5129C25.3538 32.5129 25.2348 36.2776 30.0247 35.9837V22.1809L30.0596 22.2054C30.8119 22.6427 31.9525 23.2585 33.1806 23.7798C37.3231 25.5222 42.9317 25.3613 46.1016 23.0766C47.0813 22.3838 47.872 21.3062 47.746 21.4251V21.4233C48.0875 20.9993 48.415 20.5331 48.7568 19.8474C50.7301 15.9323 49.282 11.7171 47.1562 9.48049C46.9637 9.26475 43.6958 5.705 37.5855 5.59304C33.4675 5.51257 28.1563 8.31161 26.1025 13.7872C25.7325 13.5516 25.3639 13.3201 25.0019 13.0927C24.7888 12.9589 24.578 12.8265 24.3706 12.6956C24.2062 8.47606 21.4701 5.02974 20.0251 3.71768C18.5346 2.36015 15.7636 0.229375 10.7603 0.0124494C10.7008 0.0124494 10.6064 0.00895065 10.4174 0.00195304C10.4174 0.00195304 10.4214 0.00262461 10.4291 0.0040086C10.4201 0.00276553 10.4149 0.00212902 10.4135 0.00212902C6.6158 -0.0599151 3.63484 1.24951 2.11636 1.91653C2.00787 1.96419 1.90683 2.00856 1.81351 2.04893C1.81351 2.04893 2.4118 6.45043 4.02124 5.99908C4.17264 5.95599 4.38212 5.84866 4.65747 5.70757C6.08109 4.97814 9.26552 3.34651 15.2873 5.02641C15.2873 5.02641 16.9202 5.50457 18.8437 6.52048C19.2593 7.5676 19.4921 8.67692 19.5528 9.8161C19.3568 9.69714 19.2519 9.63766 19.2519 9.63766L18.8495 9.43473C18.1742 9.09535 17.3625 8.71048 16.5123 8.3641C12.3698 6.71266 7.17405 6.68117 3.34288 9.2493C2.68611 9.66193 1.96851 10.4429 1.944 10.4697ZM38.2401 8.64209C34.9629 9.86597 31.7561 12.5832 30.5005 16.7717C30.9378 17.0971 31.3507 17.4085 31.7321 17.7129L31.823 17.7794C32.6313 18.3847 33.8418 19.2279 35.5178 20.2146L35.7557 20.365C37.4064 21.3774 38.7414 21.9137 39.9517 22.2034C40.8481 21.8088 42.0462 21.0369 42.9558 19.5535C45.0671 16.105 44.6147 9.96311 38.2401 8.64209Z" fill="url(#paint0_linear_0_1876)"/>
<defs>
<linearGradient id="paint0_linear_0_1876" x1="32.8018" y1="5.79593e-07" x2="10.3999" y2="43.8307" gradientUnits="userSpaceOnUse">
<stop stop-color="#DE9F54"/>
<stop offset="0.163765" stop-color="#FCD074" stop-opacity="0.995122"/>
<stop offset="0.253331" stop-color="#FCD97F" stop-opacity="0.993854"/>
<stop offset="0.452321" stop-color="#D59740" stop-opacity="0.985729"/>
<stop offset="1" stop-color="#ECA15C" stop-opacity="0.98"/>
</linearGradient>
</defs>
</svg>
