<svg width="73" height="73" viewBox="0 0 73 73" fill="none" xmlns="http://www.w3.org/2000/svg">
<path d="M21.92 4H4V6.56H21.92V4Z" fill="#F6B46B"/>
<path d="M34.7202 4H32.1602V6.56H34.7202V4Z" fill="#F6B46B"/>
<path d="M39.8398 4H37.2798V6.56H39.8398V4Z" fill="#F6B46B"/>
<path d="M67.9996 4H50.0796V6.56H67.9996V4Z" fill="#F6B46B"/>
<path d="M6.56 6.55981H4V9.11981H6.56V6.55981Z" fill="#F6B46B"/>
<path d="M21.9194 6.55981H19.3594V9.11981H21.9194V6.55981Z" fill="#F6B46B"/>
<path d="M32.1605 6.55981H24.4805V9.11981H32.1605V6.55981Z" fill="#F6B46B"/>
<path d="M44.9602 6.55981H34.7202V9.11981H44.9602V6.55981Z" fill="#F6B46B"/>
<path d="M52.6396 6.55981H50.0796V9.11981H52.6396V6.55981Z" fill="#F6B46B"/>
<path d="M67.9999 6.55981H65.4399V9.11981H67.9999V6.55981Z" fill="#F6B46B"/>
<path d="M6.56 9.11987H4V11.6799H6.56V9.11987Z" fill="#F6B46B"/>
<path d="M16.7996 9.11987H9.11963V11.6799H16.7996V9.11987Z" fill="#F6B46B"/>
<path d="M21.9194 9.11987H19.3594V11.6799H21.9194V9.11987Z" fill="#F6B46B"/>
<path d="M29.6005 9.11987H27.0405V11.6799H29.6005V9.11987Z" fill="#F6B46B"/>
<path d="M37.2801 9.11987H32.1602V11.6799H37.2801V9.11987Z" fill="#F6B46B"/>
<path d="M42.3998 9.11987H39.8398V11.6799H42.3998V9.11987Z" fill="#F6B46B"/>
<path d="M47.5195 9.11987H44.9595V11.6799H47.5195V9.11987Z" fill="#F6B46B"/>
<path d="M52.6396 9.11987H50.0796V11.6799H52.6396V9.11987Z" fill="#F6B46B"/>
<path d="M62.8802 9.11987H55.2002V11.6799H62.8802V9.11987Z" fill="#F6B46B"/>
<path d="M67.9999 9.11987H65.4399V11.6799H67.9999V9.11987Z" fill="#F6B46B"/>
<path d="M6.56 11.6797H4V14.2397H6.56V11.6797Z" fill="#F6B46B"/>
<path d="M16.7996 11.6797H9.11963V14.2397H16.7996V11.6797Z" fill="#F6B46B"/>
<path d="M21.9194 11.6797H19.3594V14.2397H21.9194V11.6797Z" fill="#F6B46B"/>
<path d="M32.1605 11.6797H24.4805V14.2397H32.1605V11.6797Z" fill="#F6B46B"/>
<path d="M42.3998 11.6797H37.2798V14.2397H42.3998V11.6797Z" fill="#F6B46B"/>
<path d="M52.6396 11.6797H50.0796V14.2397H52.6396V11.6797Z" fill="#F6B46B"/>
<path d="M62.8802 11.6797H55.2002V14.2397H62.8802V11.6797Z" fill="#F6B46B"/>
<path d="M67.9999 11.6797H65.4399V14.2397H67.9999V11.6797Z" fill="#F6B46B"/>
<path d="M6.56 14.2402H4V16.8002H6.56V14.2402Z" fill="#F6B46B"/>
<path d="M16.7996 14.2402H9.11963V16.8002H16.7996V14.2402Z" fill="#F6B46B"/>
<path d="M21.9194 14.2402H19.3594V16.8002H21.9194V14.2402Z" fill="#F6B46B"/>
<path d="M29.6005 14.2402H27.0405V16.8002H29.6005V14.2402Z" fill="#F6B46B"/>
<path d="M34.7202 14.2402H32.1602V16.8002H34.7202V14.2402Z" fill="#F6B46B"/>
<path d="M47.5195 14.2402H44.9595V16.8002H47.5195V14.2402Z" fill="#F6B46B"/>
<path d="M52.6396 14.2402H50.0796V16.8002H52.6396V14.2402Z" fill="#F6B46B"/>
<path d="M62.8802 14.2402H55.2002V16.8002H62.8802V14.2402Z" fill="#F6B46B"/>
<path d="M67.9999 14.2402H65.4399V16.8002H67.9999V14.2402Z" fill="#F6B46B"/>
<path d="M6.56 16.8H4V19.36H6.56V16.8Z" fill="#F6B46B"/>
<path d="M21.9194 16.8H19.3594V19.36H21.9194V16.8Z" fill="#F6B46B"/>
<path d="M32.1605 16.8H24.4805V19.36H32.1605V16.8Z" fill="#F6B46B"/>
<path d="M47.5198 16.8H39.8398V19.36H47.5198V16.8Z" fill="#F6B46B"/>
<path d="M52.6396 16.8H50.0796V19.36H52.6396V16.8Z" fill="#F6B46B"/>
<path d="M67.9999 16.8H65.4399V19.36H67.9999V16.8Z" fill="#F6B46B"/>
<path d="M21.92 19.3601H4V21.9201H21.92V19.3601Z" fill="#F6B46B"/>
<path d="M27.0405 19.3601H24.4805V21.9201H27.0405V19.3601Z" fill="#F6B46B"/>
<path d="M32.1601 19.3601H29.6001V21.9201H32.1601V19.3601Z" fill="#F6B46B"/>
<path d="M37.2802 19.3601H34.7202V21.9201H37.2802V19.3601Z" fill="#F6B46B"/>
<path d="M42.3998 19.3601H39.8398V21.9201H42.3998V19.3601Z" fill="#F6B46B"/>
<path d="M47.5195 19.3601H44.9595V21.9201H47.5195V19.3601Z" fill="#F6B46B"/>
<path d="M67.9996 19.3601H50.0796V21.9201H67.9996V19.3601Z" fill="#F6B46B"/>
<path d="M32.1605 21.9199H27.0405V24.4799H32.1605V21.9199Z" fill="#F6B46B"/>
<path d="M37.2802 21.9199H34.7202V24.4799H37.2802V21.9199Z" fill="#F6B46B"/>
<path d="M47.5199 21.9199H42.3999V24.4799H47.5199V21.9199Z" fill="#F6B46B"/>
<path d="M16.8 24.4797H4V27.0397H16.8V24.4797Z" fill="#F6B46B"/>
<path d="M29.5994 24.4797H19.3594V27.0397H29.5994V24.4797Z" fill="#F6B46B"/>
<path d="M39.8402 24.4797H34.7202V27.0397H39.8402V24.4797Z" fill="#F6B46B"/>
<path d="M50.0799 24.4797H42.3999V27.0397H50.0799V24.4797Z" fill="#F6B46B"/>
<path d="M55.2001 24.4797H52.6401V27.0397H55.2001V24.4797Z" fill="#F6B46B"/>
<path d="M60.3198 24.4797H57.7598V27.0397H60.3198V24.4797Z" fill="#F6B46B"/>
<path d="M65.4404 24.4797H62.8804V27.0397H65.4404V24.4797Z" fill="#F6B46B"/>
<path d="M14.2396 27.0398H9.11963V29.5998H14.2396V27.0398Z" fill="#F6B46B"/>
<path d="M19.3593 27.0398H16.7993V29.5998H19.3593V27.0398Z" fill="#F6B46B"/>
<path d="M27.0405 27.0398H24.4805V29.5998H27.0405V27.0398Z" fill="#F6B46B"/>
<path d="M34.7202 27.0398H32.1602V29.5998H34.7202V27.0398Z" fill="#F6B46B"/>
<path d="M42.3998 27.0398H39.8398V29.5998H42.3998V27.0398Z" fill="#F6B46B"/>
<path d="M47.5195 27.0398H44.9595V29.5998H47.5195V27.0398Z" fill="#F6B46B"/>
<path d="M55.2001 27.0398H52.6401V29.5998H55.2001V27.0398Z" fill="#F6B46B"/>
<path d="M65.4404 27.0398H62.8804V29.5998H65.4404V27.0398Z" fill="#F6B46B"/>
<path d="M6.56 29.6001H4V32.1601H6.56V29.6001Z" fill="#F6B46B"/>
<path d="M11.6796 29.6001H9.11963V32.1601H11.6796V29.6001Z" fill="#F6B46B"/>
<path d="M16.7997 29.6001H14.2397V32.1601H16.7997V29.6001Z" fill="#F6B46B"/>
<path d="M27.0394 29.6001H19.3594V32.1601H27.0394V29.6001Z" fill="#F6B46B"/>
<path d="M32.1601 29.6001H29.6001V32.1601H32.1601V29.6001Z" fill="#F6B46B"/>
<path d="M39.8402 29.6001H34.7202V32.1601H39.8402V29.6001Z" fill="#F6B46B"/>
<path d="M44.9599 29.6001H42.3999V32.1601H44.9599V29.6001Z" fill="#F6B46B"/>
<path d="M60.3195 29.6001H47.5195V32.1601H60.3195V29.6001Z" fill="#F6B46B"/>
<path d="M68.0004 29.6001H62.8804V32.1601H68.0004V29.6001Z" fill="#F6B46B"/>
<path d="M6.56 32.1602H4V34.7202H6.56V32.1602Z" fill="#F6B46B"/>
<path d="M14.2396 32.1602H9.11963V34.7202H14.2396V32.1602Z" fill="#F6B46B"/>
<path d="M19.3593 32.1602H16.7993V34.7202H19.3593V32.1602Z" fill="#F6B46B"/>
<path d="M27.0399 32.1602H21.9199V34.7202H27.0399V32.1602Z" fill="#F6B46B"/>
<path d="M37.2801 32.1602H32.1602V34.7202H37.2801V32.1602Z" fill="#F6B46B"/>
<path d="M42.3998 32.1602H39.8398V34.7202H42.3998V32.1602Z" fill="#F6B46B"/>
<path d="M55.1995 32.1602H47.5195V34.7202H55.1995V32.1602Z" fill="#F6B46B"/>
<path d="M67.9999 32.1602H65.4399V34.7202H67.9999V32.1602Z" fill="#F6B46B"/>
<path d="M9.11999 34.72H4V37.28H9.11999V34.72Z" fill="#F6B46B"/>
<path d="M21.9194 34.72H19.3594V37.28H21.9194V34.72Z" fill="#F6B46B"/>
<path d="M32.1605 34.72H27.0405V37.28H32.1605V34.72Z" fill="#F6B46B"/>
<path d="M57.7598 34.72H39.8398V37.28H57.7598V34.72Z" fill="#F6B46B"/>
<path d="M68.0003 34.72H60.3203V37.28H68.0003V34.72Z" fill="#F6B46B"/>
<path d="M11.68 37.28H4V39.84H11.68V37.28Z" fill="#F6B46B"/>
<path d="M29.6005 37.28H24.4805V39.84H29.6005V37.28Z" fill="#F6B46B"/>
<path d="M34.7202 37.28H32.1602V39.84H34.7202V37.28Z" fill="#F6B46B"/>
<path d="M39.8398 37.28H37.2798V39.84H39.8398V37.28Z" fill="#F6B46B"/>
<path d="M47.5195 37.28H44.9595V39.84H47.5195V37.28Z" fill="#F6B46B"/>
<path d="M55.2001 37.28H52.6401V39.84H55.2001V37.28Z" fill="#F6B46B"/>
<path d="M60.3198 37.28H57.7598V39.84H60.3198V37.28Z" fill="#F6B46B"/>
<path d="M65.4404 37.28H62.8804V39.84H65.4404V37.28Z" fill="#F6B46B"/>
<path d="M6.56 39.8398H4V42.3998H6.56V39.8398Z" fill="#F6B46B"/>
<path d="M14.2397 39.8398H11.6797V42.3998H14.2397V39.8398Z" fill="#F6B46B"/>
<path d="M21.9193 39.8398H16.7993V42.3998H21.9193V39.8398Z" fill="#F6B46B"/>
<path d="M32.1605 39.8398H24.4805V42.3998H32.1605V39.8398Z" fill="#F6B46B"/>
<path d="M37.2802 39.8398H34.7202V42.3998H37.2802V39.8398Z" fill="#F6B46B"/>
<path d="M44.9598 39.8398H39.8398V42.3998H44.9598V39.8398Z" fill="#F6B46B"/>
<path d="M60.3196 39.8398H50.0796V42.3998H60.3196V39.8398Z" fill="#F6B46B"/>
<path d="M68.0004 39.8398H62.8804V42.3998H68.0004V39.8398Z" fill="#F6B46B"/>
<path d="M6.56 42.3997H4V44.9597H6.56V42.3997Z" fill="#F6B46B"/>
<path d="M16.7997 42.3997H14.2397V44.9597H16.7997V42.3997Z" fill="#F6B46B"/>
<path d="M24.4799 42.3997H21.9199V44.9597H24.4799V42.3997Z" fill="#F6B46B"/>
<path d="M37.2805 42.3997H27.0405V44.9597H37.2805V42.3997Z" fill="#F6B46B"/>
<path d="M47.5195 42.3997H44.9595V44.9597H47.5195V42.3997Z" fill="#F6B46B"/>
<path d="M57.7601 42.3997H52.6401V44.9597H57.7601V42.3997Z" fill="#F6B46B"/>
<path d="M67.9999 42.3997H65.4399V44.9597H67.9999V42.3997Z" fill="#F6B46B"/>
<path d="M6.56 44.96H4V47.52H6.56V44.96Z" fill="#F6B46B"/>
<path d="M27.0396 44.96H9.11963V47.52H27.0396V44.96Z" fill="#F6B46B"/>
<path d="M32.1601 44.96H29.6001V47.52H32.1601V44.96Z" fill="#F6B46B"/>
<path d="M37.2802 44.96H34.7202V47.52H37.2802V44.96Z" fill="#F6B46B"/>
<path d="M42.3998 44.96H39.8398V47.52H42.3998V44.96Z" fill="#F6B46B"/>
<path d="M57.7595 44.96H44.9595V47.52H57.7595V44.96Z" fill="#F6B46B"/>
<path d="M62.8803 44.96H60.3203V47.52H62.8803V44.96Z" fill="#F6B46B"/>
<path d="M27.0405 47.52H24.4805V50.08H27.0405V47.52Z" fill="#F6B46B"/>
<path d="M34.7201 47.52H29.6001V50.08H34.7201V47.52Z" fill="#F6B46B"/>
<path d="M47.5199 47.52H42.3999V50.08H47.5199V47.52Z" fill="#F6B46B"/>
<path d="M60.3202 47.52H55.2002V50.08H60.3202V47.52Z" fill="#F6B46B"/>
<path d="M21.92 50.0801H4V52.6401H21.92V50.0801Z" fill="#F6B46B"/>
<path d="M27.0405 50.0801H24.4805V52.6401H27.0405V50.0801Z" fill="#F6B46B"/>
<path d="M42.4002 50.0801H34.7202V52.6401H42.4002V50.0801Z" fill="#F6B46B"/>
<path d="M47.5195 50.0801H44.9595V52.6401H47.5195V50.0801Z" fill="#F6B46B"/>
<path d="M52.6396 50.0801H50.0796V52.6401H52.6396V50.0801Z" fill="#F6B46B"/>
<path d="M57.7602 50.0801H55.2002V52.6401H57.7602V50.0801Z" fill="#F6B46B"/>
<path d="M68.0003 50.0801H60.3203V52.6401H68.0003V50.0801Z" fill="#F6B46B"/>
<path d="M6.56 52.6399H4V55.1999H6.56V52.6399Z" fill="#F6B46B"/>
<path d="M21.9194 52.6399H19.3594V55.1999H21.9194V52.6399Z" fill="#F6B46B"/>
<path d="M29.6005 52.6399H27.0405V55.1999H29.6005V52.6399Z" fill="#F6B46B"/>
<path d="M37.2802 52.6399H34.7202V55.1999H37.2802V52.6399Z" fill="#F6B46B"/>
<path d="M47.5198 52.6399H39.8398V55.1999H47.5198V52.6399Z" fill="#F6B46B"/>
<path d="M60.3202 52.6399H55.2002V55.1999H60.3202V52.6399Z" fill="#F6B46B"/>
<path d="M65.4404 52.6399H62.8804V55.1999H65.4404V52.6399Z" fill="#F6B46B"/>
<path d="M6.56 55.2H4V57.7599H6.56V55.2Z" fill="#F6B46B"/>
<path d="M16.7996 55.2H9.11963V57.7599H16.7996V55.2Z" fill="#F6B46B"/>
<path d="M21.9194 55.2H19.3594V57.7599H21.9194V55.2Z" fill="#F6B46B"/>
<path d="M27.0405 55.2H24.4805V57.7599H27.0405V55.2Z" fill="#F6B46B"/>
<path d="M34.7202 55.2H32.1602V57.7599H34.7202V55.2Z" fill="#F6B46B"/>
<path d="M57.7598 55.2H39.8398V57.7599H57.7598V55.2Z" fill="#F6B46B"/>
<path d="M65.4403 55.2H60.3203V57.7599H65.4403V55.2Z" fill="#F6B46B"/>
<path d="M6.56 57.7598H4V60.3198H6.56V57.7598Z" fill="#F6B46B"/>
<path d="M16.7996 57.7598H9.11963V60.3198H16.7996V57.7598Z" fill="#F6B46B"/>
<path d="M21.9194 57.7598H19.3594V60.3198H21.9194V57.7598Z" fill="#F6B46B"/>
<path d="M27.0405 57.7598H24.4805V60.3198H27.0405V57.7598Z" fill="#F6B46B"/>
<path d="M34.7202 57.7598H32.1602V60.3198H34.7202V57.7598Z" fill="#F6B46B"/>
<path d="M52.6398 57.7598H39.8398V60.3198H52.6398V57.7598Z" fill="#F6B46B"/>
<path d="M68.0002 57.7598H55.2002V60.3198H68.0002V57.7598Z" fill="#F6B46B"/>
<path d="M6.56 60.3201H4V62.8801H6.56V60.3201Z" fill="#F6B46B"/>
<path d="M16.7996 60.3201H9.11963V62.8801H16.7996V60.3201Z" fill="#F6B46B"/>
<path d="M21.9194 60.3201H19.3594V62.8801H21.9194V60.3201Z" fill="#F6B46B"/>
<path d="M27.0405 60.3201H24.4805V62.8801H27.0405V60.3201Z" fill="#F6B46B"/>
<path d="M44.9598 60.3201H37.2798V62.8801H44.9598V60.3201Z" fill="#F6B46B"/>
<path d="M50.0795 60.3201H47.5195V62.8801H50.0795V60.3201Z" fill="#F6B46B"/>
<path d="M62.8798 60.3201H57.7598V62.8801H62.8798V60.3201Z" fill="#F6B46B"/>
<path d="M67.9999 60.3201H65.4399V62.8801H67.9999V60.3201Z" fill="#F6B46B"/>
<path d="M6.56 62.8799H4V65.4399H6.56V62.8799Z" fill="#F6B46B"/>
<path d="M21.9194 62.8799H19.3594V65.4399H21.9194V62.8799Z" fill="#F6B46B"/>
<path d="M34.7205 62.8799H24.4805V65.4399H34.7205V62.8799Z" fill="#F6B46B"/>
<path d="M42.3998 62.8799H39.8398V65.4399H42.3998V62.8799Z" fill="#F6B46B"/>
<path d="M47.5195 62.8799H44.9595V65.4399H47.5195V62.8799Z" fill="#F6B46B"/>
<path d="M60.3201 62.8799H52.6401V65.4399H60.3201V62.8799Z" fill="#F6B46B"/>
<path d="M67.9999 62.8799H65.4399V65.4399H67.9999V62.8799Z" fill="#F6B46B"/>
<path d="M21.92 65.4399H4V67.9999H21.92V65.4399Z" fill="#F6B46B"/>
<path d="M27.0405 65.4399H24.4805V67.9999H27.0405V65.4399Z" fill="#F6B46B"/>
<path d="M42.3998 65.4399H39.8398V67.9999H42.3998V65.4399Z" fill="#F6B46B"/>
<path d="M67.9996 65.4399H50.0796V67.9999H67.9996V65.4399Z" fill="#F6B46B"/>
<rect x="0.5" y="0.5" width="72" height="72" stroke="#F6B46B"/>
</svg>
