<svg width="65" height="65" viewBox="0 0 65 65" fill="none" xmlns="http://www.w3.org/2000/svg">
<path d="M19.5177 3.56177H3.56152V5.84122H19.5177V3.56177Z" fill="#F6B46B"/>
<path d="M30.9151 3.56177H26.3564V5.84108H30.9151V3.56177Z" fill="#F6B46B"/>
<path d="M35.4737 3.56177H33.1943V5.84108H35.4737V3.56177Z" fill="#F6B46B"/>
<path d="M60.548 3.56177H44.5918V5.84122H60.548V3.56177Z" fill="#F6B46B"/>
<path d="M5.84084 5.84131H3.56152V8.12063H5.84084V5.84131Z" fill="#F6B46B"/>
<path d="M19.5176 5.84131H17.2383V8.12063H19.5176V5.84131Z" fill="#F6B46B"/>
<path d="M24.0767 5.84131H21.7974V8.12063H24.0767V5.84131Z" fill="#F6B46B"/>
<path d="M40.0323 5.84131H33.1943V8.12063H40.0323V5.84131Z" fill="#F6B46B"/>
<path d="M46.8711 5.84131H44.5918V8.12063H46.8711V5.84131Z" fill="#F6B46B"/>
<path d="M60.5474 5.84131H58.2681V8.12063H60.5474V5.84131Z" fill="#F6B46B"/>
<path d="M5.84084 8.12061H3.56152V10.3999H5.84084V8.12061Z" fill="#F6B46B"/>
<path d="M14.9586 8.12061H8.12061V10.3999H14.9586V8.12061Z" fill="#F6B46B"/>
<path d="M19.5176 8.12061H17.2383V10.3999H19.5176V8.12061Z" fill="#F6B46B"/>
<path d="M26.3555 8.12061H24.0762V10.3999H26.3555V8.12061Z" fill="#F6B46B"/>
<path d="M33.1948 8.12061H30.9155V10.3999H33.1948V8.12061Z" fill="#F6B46B"/>
<path d="M37.7534 8.12061H35.4741V10.3999H37.7534V8.12061Z" fill="#F6B46B"/>
<path d="M42.312 8.12061H40.0327V10.3999H42.312V8.12061Z" fill="#F6B46B"/>
<path d="M46.8711 8.12061H44.5918V10.3999H46.8711V8.12061Z" fill="#F6B46B"/>
<path d="M55.9888 8.12061H49.1509V10.3999H55.9888V8.12061Z" fill="#F6B46B"/>
<path d="M60.5474 8.12061H58.2681V10.3999H60.5474V8.12061Z" fill="#F6B46B"/>
<path d="M5.84084 10.3999H3.56152V12.6792H5.84084V10.3999Z" fill="#F6B46B"/>
<path d="M14.9586 10.3999H8.12061V12.6792H14.9586V10.3999Z" fill="#F6B46B"/>
<path d="M19.5176 10.3999H17.2383V12.6792H19.5176V10.3999Z" fill="#F6B46B"/>
<path d="M26.356 10.3999H21.7974V12.6792H26.356V10.3999Z" fill="#F6B46B"/>
<path d="M33.1948 10.3999H30.9155V12.6792H33.1948V10.3999Z" fill="#F6B46B"/>
<path d="M37.7534 10.3999H35.4741V12.6792H37.7534V10.3999Z" fill="#F6B46B"/>
<path d="M46.8711 10.3999H44.5918V12.6792H46.8711V10.3999Z" fill="#F6B46B"/>
<path d="M55.9888 10.3999H49.1509V12.6792H55.9888V10.3999Z" fill="#F6B46B"/>
<path d="M60.5474 10.3999H58.2681V12.6792H60.5474V10.3999Z" fill="#F6B46B"/>
<path d="M5.84084 12.6794H3.56152V14.9588H5.84084V12.6794Z" fill="#F6B46B"/>
<path d="M14.9586 12.6794H8.12061V14.9588H14.9586V12.6794Z" fill="#F6B46B"/>
<path d="M19.5176 12.6794H17.2383V14.9588H19.5176V12.6794Z" fill="#F6B46B"/>
<path d="M30.9146 12.6794H28.6353V14.9588H30.9146V12.6794Z" fill="#F6B46B"/>
<path d="M37.7534 12.6794H35.4741V14.9588H37.7534V12.6794Z" fill="#F6B46B"/>
<path d="M42.312 12.6794H40.0327V14.9588H42.312V12.6794Z" fill="#F6B46B"/>
<path d="M46.8711 12.6794H44.5918V14.9588H46.8711V12.6794Z" fill="#F6B46B"/>
<path d="M55.9888 12.6794H49.1509V14.9588H55.9888V12.6794Z" fill="#F6B46B"/>
<path d="M60.5474 12.6794H58.2681V14.9588H60.5474V12.6794Z" fill="#F6B46B"/>
<path d="M5.84084 14.959H3.56152V17.2383H5.84084V14.959Z" fill="#F6B46B"/>
<path d="M19.5176 14.959H17.2383V17.2383H19.5176V14.959Z" fill="#F6B46B"/>
<path d="M24.0767 14.959H21.7974V17.2383H24.0767V14.959Z" fill="#F6B46B"/>
<path d="M28.6358 14.959H26.3564V17.2383H28.6358V14.959Z" fill="#F6B46B"/>
<path d="M42.3121 14.959H33.1943V17.2384H42.3121V14.959Z" fill="#F6B46B"/>
<path d="M46.8711 14.959H44.5918V17.2383H46.8711V14.959Z" fill="#F6B46B"/>
<path d="M60.5474 14.959H58.2681V17.2383H60.5474V14.959Z" fill="#F6B46B"/>
<path d="M19.5177 17.2385H3.56152V19.518H19.5177V17.2385Z" fill="#F6B46B"/>
<path d="M24.0767 17.2385H21.7974V19.5178H24.0767V17.2385Z" fill="#F6B46B"/>
<path d="M28.6358 17.2385H26.3564V19.5178H28.6358V17.2385Z" fill="#F6B46B"/>
<path d="M33.1948 17.2385H30.9155V19.5178H33.1948V17.2385Z" fill="#F6B46B"/>
<path d="M37.7534 17.2385H35.4741V19.5178H37.7534V17.2385Z" fill="#F6B46B"/>
<path d="M42.312 17.2385H40.0327V19.5178H42.312V17.2385Z" fill="#F6B46B"/>
<path d="M60.548 17.2385H44.5918V19.518H60.548V17.2385Z" fill="#F6B46B"/>
<path d="M33.1939 19.5176H28.6353V21.7969H33.1939V19.5176Z" fill="#F6B46B"/>
<path d="M42.3116 19.5176H37.7529V21.7969H42.3116V19.5176Z" fill="#F6B46B"/>
<path d="M14.9588 21.7971H3.56152V24.0766H14.9588V21.7971Z" fill="#F6B46B"/>
<path d="M28.6355 21.7971H17.2383V24.0766H28.6355V21.7971Z" fill="#F6B46B"/>
<path d="M44.5916 21.7971H33.1943V24.0766H44.5916V21.7971Z" fill="#F6B46B"/>
<path d="M49.1509 21.7971H46.8716V24.0764H49.1509V21.7971Z" fill="#F6B46B"/>
<path d="M53.71 21.7971H51.4307V24.0764H53.71V21.7971Z" fill="#F6B46B"/>
<path d="M58.2686 21.7971H55.9893V24.0764H58.2686V21.7971Z" fill="#F6B46B"/>
<path d="M14.9585 24.0767H10.3999V26.356H14.9585V24.0767Z" fill="#F6B46B"/>
<path d="M21.7969 24.0767H19.5176V26.356H21.7969V24.0767Z" fill="#F6B46B"/>
<path d="M26.3555 24.0767H24.0762V26.356H26.3555V24.0767Z" fill="#F6B46B"/>
<path d="M33.1939 24.0767H28.6353V26.356H33.1939V24.0767Z" fill="#F6B46B"/>
<path d="M42.312 24.0767H40.0327V26.356H42.312V24.0767Z" fill="#F6B46B"/>
<path d="M49.1509 24.0767H46.8716V26.356H49.1509V24.0767Z" fill="#F6B46B"/>
<path d="M58.2686 24.0767H55.9893V26.356H58.2686V24.0767Z" fill="#F6B46B"/>
<path d="M8.12063 26.3562H5.84131V28.6355H8.12063V26.3562Z" fill="#F6B46B"/>
<path d="M19.5171 26.3562H14.9585V28.6355H19.5171V26.3562Z" fill="#F6B46B"/>
<path d="M26.3555 26.3562H24.0762V28.6355H26.3555V26.3562Z" fill="#F6B46B"/>
<path d="M33.1948 26.3562H30.9155V28.6355H33.1948V26.3562Z" fill="#F6B46B"/>
<path d="M40.0328 26.3562H35.4741V28.6355H40.0328V26.3562Z" fill="#F6B46B"/>
<path d="M53.7098 26.3562H42.3125V28.6357H53.7098V26.3562Z" fill="#F6B46B"/>
<path d="M60.5479 26.3562H55.9893V28.6355H60.5479V26.3562Z" fill="#F6B46B"/>
<path d="M10.3999 28.6357H5.84131V30.9151H10.3999V28.6357Z" fill="#F6B46B"/>
<path d="M17.2378 28.6357H14.9585V30.9151H17.2378V28.6357Z" fill="#F6B46B"/>
<path d="M33.1946 28.6357H21.7974V30.9152H33.1946V28.6357Z" fill="#F6B46B"/>
<path d="M37.7534 28.6357H35.4741V30.9151H37.7534V28.6357Z" fill="#F6B46B"/>
<path d="M49.1504 28.6357H42.3125V30.9151H49.1504V28.6357Z" fill="#F6B46B"/>
<path d="M60.5474 28.6357H58.2681V30.9151H60.5474V28.6357Z" fill="#F6B46B"/>
<path d="M5.84084 30.915H3.56152V33.1944H5.84084V30.915Z" fill="#F6B46B"/>
<path d="M12.6792 30.915H8.12061V33.1944H12.6792V30.915Z" fill="#F6B46B"/>
<path d="M26.3561 30.915H17.2383V33.1945H26.3561V30.915Z" fill="#F6B46B"/>
<path d="M35.4737 30.915H33.1943V33.1944H35.4737V30.915Z" fill="#F6B46B"/>
<path d="M51.4296 30.915H37.7529V33.1945H51.4296V30.915Z" fill="#F6B46B"/>
<path d="M60.5479 30.915H53.71V33.1944H60.5479V30.915Z" fill="#F6B46B"/>
<path d="M10.3995 33.1946H3.56152V35.4739H10.3995V33.1946Z" fill="#F6B46B"/>
<path d="M17.2378 33.1946H14.9585V35.4739H17.2378V33.1946Z" fill="#F6B46B"/>
<path d="M30.9151 33.1946H26.3564V35.4739H30.9151V33.1946Z" fill="#F6B46B"/>
<path d="M37.7534 33.1946H35.4741V35.4739H37.7534V33.1946Z" fill="#F6B46B"/>
<path d="M42.312 33.1946H40.0327V35.4739H42.312V33.1946Z" fill="#F6B46B"/>
<path d="M49.1509 33.1946H46.8716V35.4739H49.1509V33.1946Z" fill="#F6B46B"/>
<path d="M53.71 33.1946H51.4307V35.4739H53.71V33.1946Z" fill="#F6B46B"/>
<path d="M58.2686 33.1946H55.9893V35.4739H58.2686V33.1946Z" fill="#F6B46B"/>
<path d="M5.84084 35.4739H3.56152V37.7532H5.84084V35.4739Z" fill="#F6B46B"/>
<path d="M12.6792 35.4739H10.3999V37.7532H12.6792V35.4739Z" fill="#F6B46B"/>
<path d="M21.7969 35.4739H17.2383V37.7532H21.7969V35.4739Z" fill="#F6B46B"/>
<path d="M26.3555 35.4739H24.0762V37.7532H26.3555V35.4739Z" fill="#F6B46B"/>
<path d="M33.1948 35.4739H30.9155V37.7532H33.1948V35.4739Z" fill="#F6B46B"/>
<path d="M40.0322 35.4739H37.7529V37.7532H40.0322V35.4739Z" fill="#F6B46B"/>
<path d="M53.7096 35.4739H44.5918V37.7533H53.7096V35.4739Z" fill="#F6B46B"/>
<path d="M60.5479 35.4739H55.9893V37.7532H60.5479V35.4739Z" fill="#F6B46B"/>
<path d="M5.84084 37.7534H3.56152V40.0327H5.84084V37.7534Z" fill="#F6B46B"/>
<path d="M14.9586 37.7534H8.12061V40.0327H14.9586V37.7534Z" fill="#F6B46B"/>
<path d="M24.0762 37.7534H19.5176V40.0327H24.0762V37.7534Z" fill="#F6B46B"/>
<path d="M33.1939 37.7534H28.6353V40.0327H33.1939V37.7534Z" fill="#F6B46B"/>
<path d="M42.312 37.7534H40.0327V40.0327H42.312V37.7534Z" fill="#F6B46B"/>
<path d="M51.4302 37.7534H46.8716V40.0327H51.4302V37.7534Z" fill="#F6B46B"/>
<path d="M60.5474 37.7534H58.2681V40.0327H60.5474V37.7534Z" fill="#F6B46B"/>
<path d="M5.84084 40.033H3.56152V42.3123H5.84084V40.033Z" fill="#F6B46B"/>
<path d="M10.3999 40.033H8.12061V42.3123H10.3999V40.033Z" fill="#F6B46B"/>
<path d="M14.959 40.033H12.6797V42.3123H14.959V40.033Z" fill="#F6B46B"/>
<path d="M21.7969 40.033H17.2383V42.3123H21.7969V40.033Z" fill="#F6B46B"/>
<path d="M28.6358 40.033H26.3564V42.3123H28.6358V40.033Z" fill="#F6B46B"/>
<path d="M37.753 40.033H33.1943V42.3123H37.753V40.033Z" fill="#F6B46B"/>
<path d="M51.43 40.033H40.0327V42.3124H51.43V40.033Z" fill="#F6B46B"/>
<path d="M55.9893 40.033H53.71V42.3123H55.9893V40.033Z" fill="#F6B46B"/>
<path d="M24.0767 42.3123H21.7974V44.5916H24.0767V42.3123Z" fill="#F6B46B"/>
<path d="M42.312 42.3123H28.6353V44.5917H42.312V42.3123Z" fill="#F6B46B"/>
<path d="M53.7095 42.3123H49.1509V44.5916H53.7095V42.3123Z" fill="#F6B46B"/>
<path d="M19.5177 44.5916H3.56152V46.871H19.5177V44.5916Z" fill="#F6B46B"/>
<path d="M24.0767 44.5916H21.7974V46.8709H24.0767V44.5916Z" fill="#F6B46B"/>
<path d="M28.6358 44.5916H26.3564V46.8709H28.6358V44.5916Z" fill="#F6B46B"/>
<path d="M33.1948 44.5916H30.9155V46.8709H33.1948V44.5916Z" fill="#F6B46B"/>
<path d="M42.312 44.5916H40.0327V46.8709H42.312V44.5916Z" fill="#F6B46B"/>
<path d="M46.8711 44.5916H44.5918V46.8709H46.8711V44.5916Z" fill="#F6B46B"/>
<path d="M51.4302 44.5916H49.1509V46.8709H51.4302V44.5916Z" fill="#F6B46B"/>
<path d="M60.5479 44.5916H53.71V46.8709H60.5479V44.5916Z" fill="#F6B46B"/>
<path d="M5.84084 46.8711H3.56152V49.1504H5.84084V46.8711Z" fill="#F6B46B"/>
<path d="M19.5176 46.8711H17.2383V49.1504H19.5176V46.8711Z" fill="#F6B46B"/>
<path d="M26.3555 46.8711H24.0762V49.1504H26.3555V46.8711Z" fill="#F6B46B"/>
<path d="M33.1948 46.8711H30.9155V49.1504H33.1948V46.8711Z" fill="#F6B46B"/>
<path d="M42.3116 46.8711H37.7529V49.1504H42.3116V46.8711Z" fill="#F6B46B"/>
<path d="M53.7095 46.8711H49.1509V49.1504H53.7095V46.8711Z" fill="#F6B46B"/>
<path d="M5.84084 49.1506H3.56152V51.43H5.84084V49.1506Z" fill="#F6B46B"/>
<path d="M14.9586 49.1506H8.12061V51.43H14.9586V49.1506Z" fill="#F6B46B"/>
<path d="M19.5176 49.1506H17.2383V51.43H19.5176V49.1506Z" fill="#F6B46B"/>
<path d="M24.0767 49.1506H21.7974V51.43H24.0767V49.1506Z" fill="#F6B46B"/>
<path d="M28.6358 49.1506H26.3564V51.43H28.6358V49.1506Z" fill="#F6B46B"/>
<path d="M51.43 49.1506H33.1943V51.4301H51.43V49.1506Z" fill="#F6B46B"/>
<path d="M58.2686 49.1506H53.71V51.43H58.2686V49.1506Z" fill="#F6B46B"/>
<path d="M5.84084 51.4302H3.56152V53.7095H5.84084V51.4302Z" fill="#F6B46B"/>
<path d="M14.9586 51.4302H8.12061V53.7095H14.9586V51.4302Z" fill="#F6B46B"/>
<path d="M19.5176 51.4302H17.2383V53.7095H19.5176V51.4302Z" fill="#F6B46B"/>
<path d="M24.0767 51.4302H21.7974V53.7095H24.0767V51.4302Z" fill="#F6B46B"/>
<path d="M30.9151 51.4302H26.3564V53.7095H30.9151V51.4302Z" fill="#F6B46B"/>
<path d="M35.4737 51.4302H33.1943V53.7095H35.4737V51.4302Z" fill="#F6B46B"/>
<path d="M46.8707 51.4302H37.7529V53.7096H46.8707V51.4302Z" fill="#F6B46B"/>
<path d="M60.5481 51.4302H49.1509V53.7096H60.5481V51.4302Z" fill="#F6B46B"/>
<path d="M5.84084 53.7095H3.56152V55.9888H5.84084V53.7095Z" fill="#F6B46B"/>
<path d="M14.9586 53.7095H8.12061V55.9888H14.9586V53.7095Z" fill="#F6B46B"/>
<path d="M19.5176 53.7095H17.2383V55.9888H19.5176V53.7095Z" fill="#F6B46B"/>
<path d="M24.0767 53.7095H21.7974V55.9888H24.0767V53.7095Z" fill="#F6B46B"/>
<path d="M28.6358 53.7095H26.3564V55.9888H28.6358V53.7095Z" fill="#F6B46B"/>
<path d="M40.0333 53.7095H30.9155V55.9889H40.0333V53.7095Z" fill="#F6B46B"/>
<path d="M44.5918 53.7095H42.3125V55.9888H44.5918V53.7095Z" fill="#F6B46B"/>
<path d="M55.9893 53.7095H51.4307V55.9888H55.9893V53.7095Z" fill="#F6B46B"/>
<path d="M60.5474 53.7095H58.2681V55.9888H60.5474V53.7095Z" fill="#F6B46B"/>
<path d="M5.84084 55.989H3.56152V58.2683H5.84084V55.989Z" fill="#F6B46B"/>
<path d="M19.5176 55.989H17.2383V58.2683H19.5176V55.989Z" fill="#F6B46B"/>
<path d="M24.0767 55.989H21.7974V58.2683H24.0767V55.989Z" fill="#F6B46B"/>
<path d="M30.9151 55.989H26.3564V58.2683H30.9151V55.989Z" fill="#F6B46B"/>
<path d="M37.7534 55.989H35.4741V58.2683H37.7534V55.989Z" fill="#F6B46B"/>
<path d="M42.312 55.989H40.0327V58.2683H42.312V55.989Z" fill="#F6B46B"/>
<path d="M53.7095 55.989H46.8716V58.2683H53.7095V55.989Z" fill="#F6B46B"/>
<path d="M60.5474 55.989H58.2681V58.2683H60.5474V55.989Z" fill="#F6B46B"/>
<path d="M19.5177 58.2686H3.56152V60.548H19.5177V58.2686Z" fill="#F6B46B"/>
<path d="M24.0767 58.2686H21.7974V60.5479H24.0767V58.2686Z" fill="#F6B46B"/>
<path d="M37.7534 58.2686H35.4741V60.5479H37.7534V58.2686Z" fill="#F6B46B"/>
<path d="M60.548 58.2686H44.5918V60.548H60.548V58.2686Z" fill="#F6B46B"/>
<rect x="0.5" y="0.5" width="64" height="64" stroke="#F6B46B"/>
</svg>
