<svg width="445" height="403" viewBox="0 0 445 403" fill="none" xmlns="http://www.w3.org/2000/svg">
<path d="M220.536 280.678C205.663 187.917 168.103 98.9049 112.008 23.563" stroke="url(#paint0_linear_525_58)" stroke-width="2" stroke-miterlimit="10" stroke-linecap="round"/>
<path d="M332.907 216.386C253.998 163.602 187.668 92.1279 140.907 9.52881" stroke="url(#paint1_linear_525_58)" stroke-width="2" stroke-miterlimit="10" stroke-linecap="round"/>
<path d="M358.788 222.66C367.29 229.285 373.318 238.658 377.166 248.687C389.111 279.581 380.104 317.001 356.457 340.172C332.81 363.344 296.237 371.731 264.392 362.682C247.18 357.79 230.889 347.688 221.595 332.394C212.302 317.1 211.226 296.296 221.605 281.7C251.815 250.178 289.925 227.368 331.204 214.912C339.21 212.481 350.285 216.034 358.778 222.615L358.788 222.66Z" stroke="url(#paint2_linear_525_58)" stroke-width="2" stroke-miterlimit="10" stroke-linecap="round"/>
<path d="M259.639 361.832C306.557 345.421 349.104 316.658 381.82 279.228" stroke="url(#paint3_linear_525_58)" stroke-width="2" stroke-miterlimit="10" stroke-linecap="round"/>
<path d="M229.545 300.866C226.494 298.967 225.633 294.868 227.585 291.736C229.556 288.576 233.627 287.581 236.634 289.489C239.685 291.388 240.546 295.487 238.594 298.619C236.623 301.779 232.552 302.775 229.527 300.893L229.545 300.866Z" stroke="url(#paint4_linear_525_58)" stroke-width="2" stroke-miterlimit="10" stroke-linecap="round"/>
<path d="M269.582 271.381C266.531 269.482 265.669 265.383 267.622 262.251C269.593 259.092 273.664 258.096 276.688 259.977C279.74 261.876 280.601 265.975 278.648 269.108C276.678 272.267 272.606 273.263 269.582 271.381Z" stroke="url(#paint5_linear_525_58)" stroke-width="2" stroke-miterlimit="10" stroke-linecap="round"/>
<path d="M311.156 245.85C308.104 243.951 307.243 239.852 309.196 236.72C311.166 233.56 315.238 232.565 318.262 234.446C321.314 236.345 322.175 240.444 320.222 243.576C318.251 246.736 314.18 247.732 311.156 245.85Z" stroke="url(#paint6_linear_525_58)" stroke-width="2" stroke-miterlimit="10" stroke-linecap="round"/>
<path d="M343.43 250.14C340.379 248.241 339.518 244.142 341.47 241.01C343.441 237.85 347.512 236.855 350.537 238.736C353.588 240.635 354.449 244.734 352.496 247.867C350.526 251.026 346.454 252.022 343.43 250.14Z" stroke="url(#paint7_linear_525_58)" stroke-width="2" stroke-miterlimit="10" stroke-linecap="round"/>
<path d="M304.74 278.231C301.689 276.332 300.827 272.233 302.78 269.101C304.751 265.941 308.822 264.946 311.829 266.854C314.88 268.753 315.741 272.852 313.788 275.984C311.818 279.144 307.746 280.14 304.722 278.258L304.74 278.231Z" stroke="url(#paint8_linear_525_58)" stroke-width="2" stroke-miterlimit="10" stroke-linecap="round"/>
<path d="M261.123 307.146C258.072 305.246 257.21 301.147 259.163 298.015C261.134 294.856 265.205 293.86 268.23 295.741C271.281 297.641 272.142 301.74 270.189 304.872C268.219 308.031 264.147 309.027 261.123 307.146Z" stroke="url(#paint9_linear_525_58)" stroke-width="2" stroke-miterlimit="10" stroke-linecap="round"/>
<path d="M377.193 248.707C339.82 293.186 290.573 327.571 236.102 347.255" stroke="url(#paint10_linear_525_58)" stroke-width="2" stroke-miterlimit="10" stroke-linecap="round"/>
<path d="M141.22 9.11433C135.372 8.27726 129.29 9.26356 124.041 11.9251C118.791 14.5866 114.402 18.9412 111.632 24.1327" stroke="url(#paint11_linear_525_58)" stroke-width="2" stroke-miterlimit="10" stroke-linecap="round"/>
<path d="M177.562 66.9099C171.917 65.3538 165.539 66.494 160.787 69.8716C155.989 73.2583 152.808 78.8377 152.375 84.7196" stroke="url(#paint12_linear_525_58)" stroke-width="2" stroke-miterlimit="10" stroke-linecap="round"/>
<path d="M168.266 53.3205C160.592 53.6043 152.946 54.2561 145.311 55.3028L157.977 38.3002" stroke="url(#paint13_linear_525_58)" stroke-width="2" stroke-miterlimit="10" stroke-linecap="round"/>
<path d="M132.812 54.259C136.646 47.9856 140.641 41.7026 144.582 35.384C137.649 36.8945 130.716 38.4051 123.783 39.9157" stroke="url(#paint14_linear_525_58)" stroke-width="2" stroke-miterlimit="10" stroke-linecap="round"/>
<path d="M149.295 23.4906C142.86 23.8948 136.424 24.1824 129.971 24.497C133.424 19.4461 136.876 14.3953 140.338 9.38934" stroke="url(#paint15_linear_525_58)" stroke-width="2" stroke-miterlimit="10" stroke-linecap="round"/>
<path d="M366.639 231.799L365.621 230.816C354.564 229.525 343.5 228.539 332.481 227.545C332.261 239.153 330.631 250.723 327.68 261.885C316.326 258.225 305.406 255.201 294.486 252.177C292.233 264.926 289.979 277.674 287.726 290.422C275.411 286.632 263.186 282.823 250.979 278.988C248.835 292.157 246.674 305.354 244.512 318.551C234.135 314.528 223.741 310.532 213.319 306.519" stroke="url(#paint16_linear_525_58)" stroke-width="2" stroke-miterlimit="10" stroke-linecap="round"/>
<path d="M163.794 73.8337L269.16 243.596" stroke="url(#paint17_linear_525_58)" stroke-width="2" stroke-miterlimit="10" stroke-linecap="round"/>
<path d="M261.977 361.65C260.783 361.915 258.758 361.026 257.076 360.56C254.352 359.47 233.035 348.305 234.323 347.853C281.783 330.519 343.665 287.1 376.419 249.16C377.309 248.134 381.304 268.192 382.342 269.054C383.381 269.916 383.612 277.286 382.722 278.312C349.395 316.876 310.563 343.9 262.318 361.508C262.221 361.529 262.092 361.558 261.995 361.579L261.977 361.65Z" fill="url(#paint18_linear_525_58)"/>
<defs>
<linearGradient id="paint0_linear_525_58" x1="55.7165" y1="108.78" x2="294.11" y2="52.8801" gradientUnits="userSpaceOnUse">
<stop stop-color="#DE9F54"/>
<stop offset="0.163765" stop-color="#FCD074" stop-opacity="0.995122"/>
<stop offset="0.253331" stop-color="#FCD97F" stop-opacity="0.993854"/>
<stop offset="0.452321" stop-color="#D59740" stop-opacity="0.985729"/>
<stop offset="1" stop-color="#ECA15C" stop-opacity="0.98"/>
</linearGradient>
<linearGradient id="paint1_linear_525_58" x1="116.612" y1="46.3075" x2="225.596" y2="-37.3472" gradientUnits="userSpaceOnUse">
<stop stop-color="#DE9F54"/>
<stop offset="0.163765" stop-color="#FCD074" stop-opacity="0.995122"/>
<stop offset="0.253331" stop-color="#FCD97F" stop-opacity="0.993854"/>
<stop offset="0.452321" stop-color="#D59740" stop-opacity="0.985729"/>
<stop offset="1" stop-color="#ECA15C" stop-opacity="0.98"/>
</linearGradient>
<linearGradient id="paint2_linear_525_58" x1="227.529" y1="272.692" x2="420.587" y2="281.408" gradientUnits="userSpaceOnUse">
<stop stop-color="#DE9F54"/>
<stop offset="0.163765" stop-color="#FCD074" stop-opacity="0.995122"/>
<stop offset="0.253331" stop-color="#FCD97F" stop-opacity="0.993854"/>
<stop offset="0.452321" stop-color="#D59740" stop-opacity="0.985729"/>
<stop offset="1" stop-color="#ECA15C" stop-opacity="0.98"/>
</linearGradient>
<linearGradient id="paint3_linear_525_58" x1="285.167" y1="323.187" x2="364.62" y2="347.73" gradientUnits="userSpaceOnUse">
<stop stop-color="#DE9F54"/>
<stop offset="0.163765" stop-color="#FCD074" stop-opacity="0.995122"/>
<stop offset="0.253331" stop-color="#FCD97F" stop-opacity="0.993854"/>
<stop offset="0.452321" stop-color="#D59740" stop-opacity="0.985729"/>
<stop offset="1" stop-color="#ECA15C" stop-opacity="0.98"/>
</linearGradient>
<linearGradient id="paint4_linear_525_58" x1="226.479" y1="293.407" x2="242.95" y2="293.165" gradientUnits="userSpaceOnUse">
<stop stop-color="#DE9F54"/>
<stop offset="0.163765" stop-color="#FCD074" stop-opacity="0.995122"/>
<stop offset="0.253331" stop-color="#FCD97F" stop-opacity="0.993854"/>
<stop offset="0.452321" stop-color="#D59740" stop-opacity="0.985729"/>
<stop offset="1" stop-color="#ECA15C" stop-opacity="0.98"/>
</linearGradient>
<linearGradient id="paint5_linear_525_58" x1="266.532" y1="263.896" x2="283.005" y2="263.656" gradientUnits="userSpaceOnUse">
<stop stop-color="#DE9F54"/>
<stop offset="0.163765" stop-color="#FCD074" stop-opacity="0.995122"/>
<stop offset="0.253331" stop-color="#FCD97F" stop-opacity="0.993854"/>
<stop offset="0.452321" stop-color="#D59740" stop-opacity="0.985729"/>
<stop offset="1" stop-color="#ECA15C" stop-opacity="0.98"/>
</linearGradient>
<linearGradient id="paint6_linear_525_58" x1="308.106" y1="238.365" x2="324.579" y2="238.125" gradientUnits="userSpaceOnUse">
<stop stop-color="#DE9F54"/>
<stop offset="0.163765" stop-color="#FCD074" stop-opacity="0.995122"/>
<stop offset="0.253331" stop-color="#FCD97F" stop-opacity="0.993854"/>
<stop offset="0.452321" stop-color="#D59740" stop-opacity="0.985729"/>
<stop offset="1" stop-color="#ECA15C" stop-opacity="0.98"/>
</linearGradient>
<linearGradient id="paint7_linear_525_58" x1="340.381" y1="242.655" x2="356.853" y2="242.415" gradientUnits="userSpaceOnUse">
<stop stop-color="#DE9F54"/>
<stop offset="0.163765" stop-color="#FCD074" stop-opacity="0.995122"/>
<stop offset="0.253331" stop-color="#FCD97F" stop-opacity="0.993854"/>
<stop offset="0.452321" stop-color="#D59740" stop-opacity="0.985729"/>
<stop offset="1" stop-color="#ECA15C" stop-opacity="0.98"/>
</linearGradient>
<linearGradient id="paint8_linear_525_58" x1="301.673" y1="270.772" x2="318.145" y2="270.53" gradientUnits="userSpaceOnUse">
<stop stop-color="#DE9F54"/>
<stop offset="0.163765" stop-color="#FCD074" stop-opacity="0.995122"/>
<stop offset="0.253331" stop-color="#FCD97F" stop-opacity="0.993854"/>
<stop offset="0.452321" stop-color="#D59740" stop-opacity="0.985729"/>
<stop offset="1" stop-color="#ECA15C" stop-opacity="0.98"/>
</linearGradient>
<linearGradient id="paint9_linear_525_58" x1="258.073" y1="299.66" x2="274.546" y2="299.42" gradientUnits="userSpaceOnUse">
<stop stop-color="#DE9F54"/>
<stop offset="0.163765" stop-color="#FCD074" stop-opacity="0.995122"/>
<stop offset="0.253331" stop-color="#FCD97F" stop-opacity="0.993854"/>
<stop offset="0.452321" stop-color="#D59740" stop-opacity="0.985729"/>
<stop offset="1" stop-color="#ECA15C" stop-opacity="0.98"/>
</linearGradient>
<linearGradient id="paint10_linear_525_58" x1="266.074" y1="301.881" x2="355.343" y2="330.588" gradientUnits="userSpaceOnUse">
<stop stop-color="#DE9F54"/>
<stop offset="0.163765" stop-color="#FCD074" stop-opacity="0.995122"/>
<stop offset="0.253331" stop-color="#FCD97F" stop-opacity="0.993854"/>
<stop offset="0.452321" stop-color="#D59740" stop-opacity="0.985729"/>
<stop offset="1" stop-color="#ECA15C" stop-opacity="0.98"/>
</linearGradient>
<linearGradient id="paint11_linear_525_58" x1="116.929" y1="15.8845" x2="140.003" y2="20.5468" gradientUnits="userSpaceOnUse">
<stop stop-color="#DE9F54"/>
<stop offset="0.163765" stop-color="#FCD074" stop-opacity="0.995122"/>
<stop offset="0.253331" stop-color="#FCD97F" stop-opacity="0.993854"/>
<stop offset="0.452321" stop-color="#D59740" stop-opacity="0.985729"/>
<stop offset="1" stop-color="#ECA15C" stop-opacity="0.98"/>
</linearGradient>
<linearGradient id="paint12_linear_525_58" x1="155.665" y1="75.1843" x2="174.951" y2="80.2977" gradientUnits="userSpaceOnUse">
<stop stop-color="#DE9F54"/>
<stop offset="0.163765" stop-color="#FCD074" stop-opacity="0.995122"/>
<stop offset="0.253331" stop-color="#FCD97F" stop-opacity="0.993854"/>
<stop offset="0.452321" stop-color="#D59740" stop-opacity="0.985729"/>
<stop offset="1" stop-color="#ECA15C" stop-opacity="0.98"/>
</linearGradient>
<linearGradient id="paint13_linear_525_58" x1="149.276" y1="49.2995" x2="173.017" y2="50.2957" gradientUnits="userSpaceOnUse">
<stop stop-color="#DE9F54"/>
<stop offset="0.163765" stop-color="#FCD074" stop-opacity="0.995122"/>
<stop offset="0.253331" stop-color="#FCD97F" stop-opacity="0.993854"/>
<stop offset="0.452321" stop-color="#D59740" stop-opacity="0.985729"/>
<stop offset="1" stop-color="#ECA15C" stop-opacity="0.98"/>
</linearGradient>
<linearGradient id="paint14_linear_525_58" x1="124.096" y1="39.443" x2="145.212" y2="42.167" gradientUnits="userSpaceOnUse">
<stop stop-color="#DE9F54"/>
<stop offset="0.163765" stop-color="#FCD074" stop-opacity="0.995122"/>
<stop offset="0.253331" stop-color="#FCD97F" stop-opacity="0.993854"/>
<stop offset="0.452321" stop-color="#D59740" stop-opacity="0.985729"/>
<stop offset="1" stop-color="#ECA15C" stop-opacity="0.98"/>
</linearGradient>
<linearGradient id="paint15_linear_525_58" x1="133.403" y1="19.3014" x2="153.887" y2="20.1971" gradientUnits="userSpaceOnUse">
<stop stop-color="#DE9F54"/>
<stop offset="0.163765" stop-color="#FCD074" stop-opacity="0.995122"/>
<stop offset="0.253331" stop-color="#FCD97F" stop-opacity="0.993854"/>
<stop offset="0.452321" stop-color="#D59740" stop-opacity="0.985729"/>
<stop offset="1" stop-color="#ECA15C" stop-opacity="0.98"/>
</linearGradient>
<linearGradient id="paint16_linear_525_58" x1="240.879" y1="264.798" x2="361.661" y2="287.972" gradientUnits="userSpaceOnUse">
<stop stop-color="#DE9F54"/>
<stop offset="0.163765" stop-color="#FCD074" stop-opacity="0.995122"/>
<stop offset="0.253331" stop-color="#FCD97F" stop-opacity="0.993854"/>
<stop offset="0.452321" stop-color="#D59740" stop-opacity="0.985729"/>
<stop offset="1" stop-color="#ECA15C" stop-opacity="0.98"/>
</linearGradient>
<linearGradient id="paint17_linear_525_58" x1="133.387" y1="119.865" x2="273.168" y2="59.324" gradientUnits="userSpaceOnUse">
<stop stop-color="#DE9F54"/>
<stop offset="0.163765" stop-color="#FCD074" stop-opacity="0.995122"/>
<stop offset="0.253331" stop-color="#FCD97F" stop-opacity="0.993854"/>
<stop offset="0.452321" stop-color="#D59740" stop-opacity="0.985729"/>
<stop offset="1" stop-color="#ECA15C" stop-opacity="0.98"/>
</linearGradient>
<linearGradient id="paint18_linear_525_58" x1="344.998" y1="270.96" x2="232.337" y2="382.597" gradientUnits="userSpaceOnUse">
<stop stop-color="#DE9F54"/>
<stop offset="0.163765" stop-color="#FCD074" stop-opacity="0.995122"/>
<stop offset="0.253331" stop-color="#FCD97F" stop-opacity="0.993854"/>
<stop offset="0.452321" stop-color="#D59740" stop-opacity="0.985729"/>
<stop offset="1" stop-color="#ECA15C" stop-opacity="0.98"/>
</linearGradient>
</defs>
</svg>
