<svg width="1923" height="851" viewBox="0 0 1923 851" fill="none" xmlns="http://www.w3.org/2000/svg">
<path d="M477.197 312.039L477.203 312.049C528.897 338.197 532.128 322.142 623.413 433.458C714.698 544.773 788.857 704.166 950.846 744.858C1112.83 785.549 1209.63 500.561 1234.54 386.44C1268.22 232.153 1493.32 465.506 1580.36 457.529C1720.21 444.713 1761.4 297.165 1828.91 253.953L1785.49 171.941L1785.42 171.805L1784.98 170.9C1779.85 172.687 1774.83 174.659 1769.98 176.696C1768.57 177.233 1767.2 177.816 1765.83 178.442C1750.09 185.286 1735.81 193.082 1722.42 201.419C1721.16 202.229 1719.91 202.997 1718.64 203.807C1699.18 216.303 1681.58 229.923 1664.3 243.297L1663.99 243.535L1663.49 243.928C1645.87 257.57 1628.63 270.915 1610.12 282.223C1609.82 282.437 1609.52 282.61 1609.21 282.824C1608.71 283.098 1608.27 283.336 1607.81 283.616C1607.41 283.902 1606.91 284.176 1606.46 284.456L1606.45 284.457C1605.1 285.254 1603.75 286.052 1602.4 286.808C1602.05 287.016 1601.75 287.189 1601.4 287.398C1590.53 293.478 1579.25 298.827 1567.13 303.093C1563.64 304.332 1560.07 305.476 1556.42 306.525L1554.64 307.055C1539.35 311.244 1522.75 313.738 1504.33 313.918C1504.23 313.948 1504.04 313.965 1503.91 313.948C1503.31 313.954 1502.7 314.002 1502.11 313.924C1501.37 313.913 1500.58 313.937 1499.84 313.925C1497.58 313.885 1495.24 313.79 1492.85 313.648C1490.51 313.512 1488.09 313.281 1485.59 312.996C1459.66 310.119 1434.82 300.648 1410.65 290.289C1408.95 289.558 1407.19 288.82 1405.49 288.089C1402.73 286.882 1399.98 285.675 1397.26 284.515C1350.81 264.255 1302.79 243.324 1247.65 263.412C1218.35 273.952 1189.62 296.387 1166.73 326.576C1162.49 332.125 1158.32 338.191 1154.25 344.566C1146.54 356.948 1139.39 369.872 1132.62 382.801C1131.71 384.462 1130.85 386.129 1129.97 387.837C1126.21 395.099 1122.53 402.373 1118.91 409.528C1113.43 420.38 1107.87 431.434 1102.01 442.363C1101.75 442.881 1101.5 443.399 1101.21 443.869C1093.27 458.638 1084.81 473.169 1075.34 486.932C1072.43 491.171 1069.59 495.165 1066.73 499.029C1066.73 499.071 1066.67 499.148 1066.67 499.148C1066.21 499.809 1065.76 500.428 1065.27 501.041C1062.79 504.405 1060.34 507.602 1057.86 510.667C1054.2 515.317 1050.55 519.586 1046.88 523.64C1043.63 527.283 1040.36 530.671 1037.08 533.886C1032.41 538.488 1027.7 542.704 1022.94 546.574C1007.34 559.114 989.635 568.327 971.624 573.137C946.194 579.901 920.389 578.905 895.945 573.51C894.606 573.22 893.309 572.902 891.983 572.576L891.55 572.47C886.485 571.258 881.492 569.843 876.612 568.274C875.986 568.107 875.367 567.9 874.747 567.692L874.746 567.691L874.744 567.691C873.812 567.4 872.88 567.108 871.953 566.776C871.731 566.704 871.555 566.639 871.333 566.568C851.554 559.79 833.266 550.792 817.493 541.656L817.407 541.603C816.371 541.044 815.386 540.449 814.4 539.855L814.4 539.854C808.133 536.155 802.327 532.473 797.015 528.898C788.432 523.116 781.088 517.751 775.38 513.319C739.492 485.455 704.709 450.193 674.788 411.329C642.408 369.347 607.585 336.156 568.62 310.263C565.64 308.306 562.654 306.391 559.622 304.47C557.395 303.12 555.218 301.734 552.985 300.425C540.252 292.788 527.058 285.854 513.265 279.604C508.865 277.546 504.312 275.596 499.753 273.687C498.08 273.045 496.418 272.319 494.745 271.677L494.529 271.564C487.274 268.71 479.911 265.969 472.34 263.413C464.325 260.714 456.192 258.211 447.81 255.845C447.59 256.113 475.335 308.521 477.197 312.039Z" fill="url(#paint0_linear_524_57)"/>
<path d="M1921.5 230.05C1896.21 237.37 1871.62 249.37 1848.78 262.18C1847.21 263.09 1845.65 263.94 1844.09 264.85C1819.78 278.93 1797.51 294.61 1775.64 309.99C1753.25 325.75 1731.36 341.19 1708.23 353.89C1707.85 354.13 1707.48 354.32 1707.1 354.57C1706.48 354.87 1705.94 355.13 1705.37 355.44C1704.87 355.76 1704.25 356.06 1703.69 356.37C1702.02 357.25 1700.35 358.14 1698.69 358.97C1698.26 359.2 1697.89 359.39 1697.46 359.62C1684.07 366.3 1670.3 372.03 1655.7 376.31C1651.5 377.56 1647.21 378.68 1642.84 379.67L1640.71 380.18C1622.43 384.08 1602.86 385.72 1581.46 384.29C1581.34 384.32 1581.12 384.32 1580.97 384.29C1580.27 384.24 1579.56 384.25 1578.88 384.1C1578.03 384.02 1577.11 383.98 1576.25 383.9C1573.64 383.64 1570.93 383.31 1568.18 382.92C1565.48 382.54 1562.7 382.03 1559.83 381.44C1530.11 375.47 1502.49 361.29 1475.77 346.05C1473.88 344.97 1471.94 343.89 1470.05 342.81C1467.01 341.04 1463.97 339.27 1460.96 337.56C1409.64 307.83 1356.57 277.1 1290.04 297.45C1254.71 308.09 1218.54 333.78 1188.14 369.76C1182.52 376.37 1176.92 383.64 1171.39 391.31C1160.87 406.22 1150.94 421.87 1141.44 437.55C1140.17 439.56 1138.96 441.58 1137.73 443.66C1132.44 452.47 1127.25 461.31 1122.15 470C1114.41 483.18 1106.56 496.62 1098.37 509.86C1098.01 510.49 1097.65 511.12 1097.25 511.69C1086.17 529.59 1074.51 547.14 1061.77 563.63C1057.86 568.71 1054.06 573.49 1050.25 578.1C1050.24 578.15 1050.17 578.24 1050.17 578.24C1049.55 579.03 1048.95 579.77 1048.3 580.5C1045 584.52 1041.75 588.33 1038.48 591.97C1033.65 597.5 1028.87 602.55 1024.09 607.33C1019.86 611.63 1015.65 615.6 1011.43 619.36C1005.42 624.74 999.42 629.63 993.41 634.08C973.72 648.48 952.01 658.49 930.5 662.93C900.13 669.16 870.32 665.57 842.64 656.57C840.96 656.03 839.34 655.45 837.67 654.86C831.95 652.87 826.33 650.64 820.87 648.22C820.16 647.95 819.47 647.63 818.78 647.32C817.73 646.87 816.69 646.42 815.66 645.91C815.41 645.8 815.21 645.7 814.97 645.59C792.88 635.26 772.8 622.27 755.66 609.33L755.57 609.25C754.44 608.45 753.37 607.61 752.3 606.77C745.5 601.54 739.23 596.38 733.52 591.39C724.29 583.33 716.45 575.9 710.39 569.8C672.28 531.44 636.4 483.85 606.61 432.15C574.36 376.3 538.17 331.32 496.24 295.16C493.03 292.42 489.81 289.74 486.53 287.05C484.12 285.15 481.77 283.2 479.34 281.35C465.54 270.57 451.11 260.64 435.9 251.52C304.17 170.2 186.13 135.63 1 151.67" stroke="url(#paint1_linear_524_57)"/>
<path d="M1922 222.05C1896.16 229.53 1871.01 241.66 1847.66 254.75C1846.09 255.66 1844.54 256.51 1842.97 257.42C1818.66 271.5 1796.39 287.18 1774.52 302.56C1752.13 318.32 1730.24 333.76 1707.11 346.46C1706.73 346.7 1706.36 346.89 1705.98 347.14C1705.37 347.44 1704.82 347.7 1704.26 348.01C1703.75 348.33 1703.14 348.63 1702.58 348.94C1700.91 349.82 1699.24 350.71 1697.58 351.54C1697.14 351.77 1696.77 351.96 1696.34 352.19C1682.95 358.87 1669.18 364.6 1654.59 368.88C1650.38 370.13 1646.09 371.25 1641.72 372.24L1639.59 372.75C1621.31 376.65 1601.74 378.29 1580.34 376.86C1580.23 376.89 1580.01 376.89 1579.85 376.86C1579.15 376.81 1578.44 376.82 1577.76 376.67C1576.91 376.59 1575.99 376.55 1575.14 376.47C1572.52 376.21 1569.81 375.88 1567.06 375.49C1564.36 375.11 1561.58 374.6 1558.71 374.01C1460.01 354.19 1401.31 241.11 1285.97 276.38C1250.64 287.02 1214.46 312.71 1184.07 348.69C1178.45 355.3 1172.85 362.57 1167.32 370.24C1156.79 385.15 1146.86 400.8 1137.37 416.48C1136.1 418.49 1134.88 420.51 1133.66 422.59C1128.37 431.4 1123.18 440.24 1118.07 448.93C1110.33 462.11 1102.48 475.54 1094.29 488.79C1093.93 489.42 1093.58 490.05 1093.18 490.62C1082.09 508.52 1070.43 526.07 1057.7 542.56C1053.78 547.64 1049.99 552.42 1046.18 557.03C1046.17 557.08 1046.09 557.17 1046.09 557.17C1045.48 557.96 1044.88 558.7 1044.22 559.43C1040.93 563.45 1037.68 567.26 1034.41 570.9C1029.58 576.43 1024.79 581.48 1020.02 586.26C1015.79 590.56 1011.57 594.54 1007.35 598.29C1001.35 603.67 995.35 608.56 989.34 613.01C969.65 627.41 947.94 637.42 926.43 641.86C896.07 648.09 866.25 644.5 838.57 635.5C836.89 634.96 835.27 634.38 833.6 633.79C827.88 631.8 822.26 629.57 816.8 627.15C816.09 626.88 815.4 626.56 814.71 626.25C813.67 625.8 812.62 625.35 811.59 624.84C811.34 624.73 811.14 624.63 810.9 624.52C788.81 614.19 768.73 601.2 751.59 588.26L751.5 588.18C750.37 587.38 749.3 586.54 748.23 585.7C741.43 580.47 735.16 575.3 729.45 570.32C720.22 562.26 712.38 554.83 706.32 548.73C668.21 510.37 632.33 462.78 602.54 411.08C482.79 203.72 236.14 103.71 1 112.6" stroke="url(#paint2_linear_524_57)"/>
<path d="M1920.91 214.59C1920.91 214.59 1912.86 217.04 1906.98 219.17C1886.8 225.66 1866.96 234.93 1848.5 245.28C1846.93 246.19 1845.38 247.04 1843.81 247.95C1819.5 262.03 1797.23 277.71 1775.36 293.09C1752.97 308.85 1731.08 324.29 1707.95 336.99C1707.57 337.23 1707.2 337.42 1706.82 337.67C1706.21 337.97 1705.66 338.23 1705.1 338.54C1704.59 338.86 1703.97 339.16 1703.41 339.48C1701.74 340.36 1700.07 341.25 1698.41 342.08C1697.98 342.31 1697.61 342.5 1697.18 342.73C1683.79 349.41 1670.02 355.14 1655.42 359.42C1651.22 360.67 1646.93 361.79 1642.56 362.78L1640.43 363.29C1622.15 367.19 1602.58 368.83 1581.18 367.4C1581.06 367.43 1580.84 367.43 1580.69 367.4C1579.99 367.35 1579.28 367.36 1578.6 367.21C1577.75 367.13 1576.83 367.09 1575.97 367.01C1573.36 366.75 1570.65 366.42 1567.9 366.03C1565.2 365.65 1562.42 365.14 1559.55 364.55C1460.85 344.73 1398.93 216.77 1283.58 252.04C1248.25 262.68 1212.08 288.37 1181.68 324.35C1176.06 330.96 1170.46 338.23 1164.93 345.9C1154.4 360.81 1144.48 376.46 1134.98 392.14C1133.71 394.15 1132.5 396.17 1131.27 398.25C1125.98 407.06 1120.79 415.9 1115.69 424.59C1107.95 437.77 1100.1 451.21 1091.9 464.45C1091.55 465.08 1091.19 465.71 1090.79 466.28C1079.7 484.18 1068.04 501.73 1055.31 518.23C1051.39 523.31 1047.6 528.09 1043.79 532.7C1043.78 532.75 1043.7 532.85 1043.7 532.85C1043.09 533.64 1042.49 534.38 1041.84 535.11C1038.54 539.13 1035.29 542.94 1032.02 546.58C1027.19 552.11 1022.41 557.16 1017.63 561.94C1013.4 566.24 1009.18 570.22 1004.96 573.97C998.96 579.35 992.96 584.24 986.95 588.69C967.26 603.09 945.55 613.1 924.04 617.54C893.68 623.77 863.86 620.18 836.18 611.18C834.5 610.64 832.88 610.06 831.21 609.47C825.49 607.48 819.87 605.25 814.41 602.83C813.7 602.56 813.01 602.25 812.32 601.93C811.28 601.48 810.23 601.03 809.2 600.52C808.95 600.41 808.75 600.31 808.51 600.2C786.42 589.87 766.34 576.88 749.2 563.94L749.11 563.86C747.98 563.06 746.91 562.22 745.84 561.38C739.04 556.15 732.77 550.98 727.06 546C717.83 537.94 709.99 530.51 703.93 524.41C665.82 486.05 629.94 438.46 600.15 386.76C480.81 180.06 235.42 74.2899 1 81.3299" stroke="url(#paint3_linear_524_57)"/>
<defs>
<linearGradient id="paint0_linear_524_57" x1="667.824" y1="699.392" x2="1382.65" y2="332.157" gradientUnits="userSpaceOnUse">
<stop offset="0.0104167" stop-color="#710810" stop-opacity="0"/>
<stop offset="0.28125" stop-color="#710810"/>
<stop offset="0.729167" stop-color="#710810"/>
<stop offset="1" stop-color="#710810" stop-opacity="0"/>
</linearGradient>
<linearGradient id="paint1_linear_524_57" x1="1066.19" y1="-22.0402" x2="636.25" y2="850.53" gradientUnits="userSpaceOnUse">
<stop stop-color="#DE9F54"/>
<stop offset="0.16" stop-color="#FCD074"/>
<stop offset="0.25" stop-color="#FCD97F" stop-opacity="0.99"/>
<stop offset="0.45" stop-color="#D59740" stop-opacity="0.99"/>
<stop offset="1" stop-color="#ECA15C" stop-opacity="0.98"/>
</linearGradient>
<linearGradient id="paint2_linear_524_57" x1="1058.51" y1="-31.9702" x2="640.12" y2="828.02" gradientUnits="userSpaceOnUse">
<stop stop-color="#DE9F54"/>
<stop offset="0.16" stop-color="#FCD074"/>
<stop offset="0.25" stop-color="#FCD97F" stop-opacity="0.99"/>
<stop offset="0.45" stop-color="#D59740" stop-opacity="0.99"/>
<stop offset="1" stop-color="#ECA15C" stop-opacity="0.98"/>
</linearGradient>
<linearGradient id="paint3_linear_524_57" x1="1051.17" y1="-40.3001" x2="647.97" y2="801.64" gradientUnits="userSpaceOnUse">
<stop stop-color="#DE9F54"/>
<stop offset="0.16" stop-color="#FCD074"/>
<stop offset="0.25" stop-color="#FCD97F" stop-opacity="0.99"/>
<stop offset="0.45" stop-color="#D59740" stop-opacity="0.99"/>
<stop offset="1" stop-color="#ECA15C" stop-opacity="0.98"/>
</linearGradient>
</defs>
</svg>
