<svg width="413" height="439" viewBox="0 0 413 439" fill="none" xmlns="http://www.w3.org/2000/svg">
<path fill-rule="evenodd" clip-rule="evenodd" d="M4.89828 389.808C25.5035 387.246 42.1276 380.878 51.4999 375.5C76.6666 372.167 129.2 369.2 138 384C149 402.5 189 410.5 210.5 406.5C232 402.5 292 402 342.5 439C353.162 436.698 372.378 430.662 386.544 421.22C395.122 398.963 399.824 374.781 399.824 349.5C399.824 239.319 310.505 150 200.324 150C90.1434 150 0.824219 239.319 0.824219 349.5C0.824219 363.309 2.22714 376.79 4.89828 389.808Z" fill="url(#paint0_linear_230_1901)"/>
<path d="M370.049 365.045C370.014 364.618 365.204 321.312 328.309 308.869C321.834 306.685 314.406 305.69 306.451 305.379C306.149 305.265 305.834 305.254 305.52 305.349C303.251 305.28 300.931 305.25 298.59 305.277C298.517 305.253 298.449 305.199 298.377 305.174C298.039 305.1 297.714 305.164 297.411 305.29C293.525 305.358 289.55 305.535 285.55 305.784C285.279 305.553 284.921 305.401 284.526 305.425C284.101 305.445 283.746 305.625 283.481 305.922C278.306 306.275 273.075 306.711 267.886 307.168C243.279 309.278 223.317 307.572 213.128 302.508L212.929 302.421C210.962 301.532 209.048 300.59 207.197 299.625C207.205 299.566 207.228 299.509 207.221 299.447C207.169 294.162 206.925 290.812 206.486 289.202C205.758 286.558 205.618 282.649 205.494 278.847C205.389 275.591 205.276 272.515 204.793 270.311C203.363 263.791 196.634 256.717 194.601 254.719C194.44 254.562 194.307 254.424 194.161 254.269C194.097 254.065 193.989 253.855 193.815 253.681C193.057 252.904 192.396 252.185 191.767 251.454C193.486 250.758 195.835 249.404 197.347 246.826C197.581 246.419 197.809 246.056 198.02 245.707C198.063 245.728 198.103 245.763 198.148 245.769C200.515 246.589 202.703 247.281 205.092 247.591C205.27 247.615 205.462 247.64 205.64 247.663C206.115 247.724 206.593 247.53 206.91 247.179C207.227 246.828 207.367 246.334 207.262 245.868C206.832 243.836 205.698 242 204.059 240.565C205.176 239.865 206.09 238.748 206.52 237.416C206.772 236.634 206.999 235.352 206.578 233.834C208.699 233.416 210.798 232.935 212.879 232.014C213.313 231.814 213.634 231.433 213.74 230.965C213.846 230.496 213.713 230.011 213.397 229.653C210.725 226.651 206.129 225.571 201.949 226.973C201.917 226.984 201.884 227.01 201.835 227.034C201.16 226.192 200.659 225.524 200.349 225.122C200.391 224.569 200.353 223.931 200.243 223.268C201.346 223.14 202.438 222.98 203.554 222.748C204.035 222.645 204.427 222.304 204.622 221.846C204.802 221.387 204.749 220.867 204.486 220.456C202.73 217.83 199.22 216.635 195.931 217.564C195.617 217.659 195.351 217.851 195.153 218.097C192.711 216.92 189.467 215.533 184.732 218.069C184.573 217.551 184.413 217.047 184.241 216.512C183.529 214.444 182.645 212.308 181.519 209.945C181.306 209.495 181.049 209.039 180.819 208.602C181.146 207.71 181.356 206.56 181.474 205.068C181.606 203.245 181.57 201.084 181.499 198.842C181.468 197.692 181.446 196.468 181.428 195.213C181.427 193.826 181.459 192.654 181.645 191.456C181.751 190.64 182.206 189.689 183.03 188.575C183.454 187.981 183.94 187.381 184.429 186.751C184.916 186.135 185.422 185.492 185.898 184.845C188.365 181.652 189.931 177.844 190.282 174.104C190.386 172.956 190.42 171.995 190.398 171.118C190.39 170.604 190.366 170.088 190.322 169.615C190.293 169.144 190.243 168.715 190.195 168.271L189.857 165.422C189.776 164.537 189.711 163.639 189.671 162.789L189.654 162.108C189.633 161.457 189.625 160.822 189.677 160.075C189.673 159.411 189.759 158.743 189.837 158.029L189.897 157.57C190.156 155.809 190.637 154.197 191.325 152.733C192.572 150.105 194.725 147.58 198.153 144.768C198.595 144.388 199.048 144.04 199.517 143.678C199.783 143.487 200.037 143.278 200.305 143.072C201.028 142.502 201.859 141.796 202.547 141.026C203.282 140.247 203.857 139.416 204.454 138.544C205.048 137.565 205.505 136.72 205.851 135.92C207.275 132.742 208.038 129.071 208.112 125.024C208.158 121.998 207.845 118.836 207.124 115.334C206.823 113.937 206.462 112.533 206.037 111.165C205.962 110.929 205.887 110.693 205.812 110.457L205.559 109.731C205.502 109.588 205.446 109.445 205.373 109.194C205.208 108.72 205.056 108.263 204.953 107.782C204.569 106.209 204.512 104.557 204.792 102.633C205.035 101.112 205.399 99.9372 205.62 99.2872C205.661 99.2021 205.781 98.9763 205.923 98.6932C206.184 99.5868 206.606 100.516 207.249 101.49C207.741 102.232 207.951 105.261 207.824 107.627C207.812 107.716 207.816 107.807 207.834 107.9C207.943 108.804 208.723 109.418 209.678 109.377C211.243 109.293 214.444 106.95 214.525 104.004C214.594 101.736 214.911 99.5298 216.564 98.4175C217.318 100.159 218.211 103.036 217.617 105.522C217.281 106.941 216.865 108.29 216.454 109.594C215.524 112.565 214.797 114.913 215.515 116.696C215.856 117.555 216.468 118.539 217.101 119.586C217.611 120.422 218.457 121.799 218.57 122.326C218.236 124.198 219.532 128.967 223.687 130.427L225.389 131.372C225.558 131.469 225.732 131.522 225.91 131.545C226.355 131.603 226.827 131.453 227.172 131.121C227.258 131.042 229.206 129.168 232.344 129.516C235.094 129.828 240.467 129.924 244.34 129.492C244.22 129.944 244.324 130.425 244.638 130.797C245.041 131.287 245.71 131.48 246.298 131.255C246.473 131.187 249.61 130.026 251.464 126.904C251.463 126.919 251.461 126.934 251.474 126.951C251.612 127.511 252.114 128.059 252.672 128.177C253.245 128.297 253.864 128.061 254.209 127.608C255.094 126.486 255.538 119.938 254.404 117.634C253.963 116.732 253.381 115.993 252.81 115.391C254.669 114.788 255.944 112.405 256.601 108.282C256.867 106.583 257.625 100.98 255.996 99.9391C255.605 99.6923 255.012 99.6151 254.568 99.7836C253.713 100.095 253.477 100.863 253.183 101.851C252.953 102.575 252.644 103.56 252.132 104.595C252.085 102.055 251.361 99.3819 249.657 97.984C249.536 97.8777 249.338 97.6559 249.101 97.2782C250.374 96.0713 251.486 94.7077 252.317 93.3076C252.411 93.5158 252.553 93.7001 252.745 93.8458C253.006 94.0456 253.39 94.3369 253.879 94.5211C253.949 94.5604 254.138 94.6151 254.227 94.6267C254.227 94.6267 254.287 94.6344 254.346 94.6421C254.565 94.7007 254.787 94.7296 255.077 94.7069C255.5 94.7016 255.782 94.6177 256.018 94.5428C256.096 94.5228 256.176 94.4879 256.254 94.4679C256.463 94.3743 256.656 94.2788 256.835 94.1814C257.071 94.4534 257.337 94.7293 257.734 95.0373C258.037 95.2577 258.535 95.6089 259.436 95.7562C259.51 95.7659 259.931 95.7754 259.931 95.7754C260.065 95.7927 260.25 95.7565 260.375 95.7275C260.514 95.7004 260.672 95.6455 260.88 95.5519C261.139 95.4196 261.318 95.3222 261.454 95.2041L261.655 95.0493C261.749 95.137 261.858 95.2265 261.984 95.3032C262.411 95.6151 262.853 95.8084 263.335 95.9314C263.923 96.053 264.515 96.0244 265.05 95.8527C264.905 96.3918 264.718 97.016 264.47 97.6473C264.205 98.4122 263.757 99.1835 263.378 99.7827C263.209 100.032 263.03 100.25 262.849 100.483L262.524 100.893C262.185 101.302 261.772 101.806 261.421 102.65C261.348 102.867 261.182 103.328 261.253 103.94C261.31 104.431 261.56 104.946 261.946 105.343C262.254 105.639 262.648 105.856 263.119 105.948C263.179 105.955 263.253 105.965 263.312 105.973C263.965 106.058 264.435 105.923 264.716 105.854C264.73 105.855 264.872 105.813 264.888 105.801C265.613 105.563 266.197 105.247 266.638 104.987C267.504 104.482 268.353 103.868 269.307 103.027C270.809 101.684 272.063 100.158 272.956 98.6299C273.573 97.5941 274.057 96.5409 274.361 95.6001C274.42 95.6078 274.45 95.6116 274.524 95.6213L274.969 95.6791C275.297 95.7067 275.703 95.7143 275.919 95.682C276.483 95.6347 277.072 95.5152 277.721 95.2828C278.685 94.9407 279.642 94.4315 280.587 93.7703C281.386 93.1954 282.154 92.511 282.87 91.7595C283.499 91.1023 284.096 90.3354 284.683 89.4163C285.684 87.8723 286.368 86.0911 286.611 84.4487C286.757 83.5627 286.74 82.7612 286.695 82.1822C286.649 81.6032 286.543 81.0313 286.39 80.4685C286.242 79.9817 286.093 79.6155 285.998 79.4221C286.516 77.7552 287.025 73.3723 281.765 66.1431C281.346 65.4249 280.907 64.3876 280.462 63.2891C279.912 61.9507 279.35 60.5808 278.644 59.403C278.445 59.0755 278.156 58.6307 277.854 58.1692C277.266 57.2332 276.576 56.1631 276.171 55.4469C275.875 54.9408 275.438 54.3562 274.975 53.738C274.409 52.9858 273.699 52.064 273.459 51.4748C273.378 51.2833 273.313 51.0937 273.232 50.9023L273.041 50.3949C272.954 50.1422 272.866 49.8894 272.819 49.6722L272.29 47.7032C271.805 46.328 270.689 45.0518 269.683 43.9709C268.837 43.0466 267.728 42.1785 266.3 41.3292C265.458 40.8427 264.566 40.395 263.676 39.9324L262.615 39.3873C262.417 39.2861 262.204 39.183 262.006 39.0819C262.012 38.6905 262.016 38.3139 261.965 38.0058C261.935 37.655 261.859 37.3133 261.8 36.9587C261.801 36.9438 261.772 36.8194 261.759 36.8027C261.692 36.5074 261.61 36.2101 261.533 35.989C261.425 35.6583 261.316 35.3424 261.13 34.9111C261.015 34.6397 260.884 34.3663 260.715 34.0427C260.555 33.7655 260.395 33.4883 260.231 33.2408C260.054 32.9765 259.848 32.7083 259.59 32.3732C259.354 32.1011 259.103 31.8272 258.833 31.581C258.685 31.4411 258.506 31.3123 258.341 31.1853C258.313 31.1666 258.23 31.1105 258.202 31.0919C258.049 30.9965 257.951 30.9385 257.681 30.8129C257.651 30.809 257.457 30.6782 257.444 30.6614C257.418 30.6279 257.337 30.557 257.212 30.3598C257.037 30.0806 256.886 29.7293 256.79 29.3096C256.741 29.1071 256.719 28.9234 256.7 28.7248C256.682 28.5114 256.682 28.285 256.692 28.0903L256.703 27.775C256.727 27.3559 256.569 26.9433 256.263 26.632C255.969 26.3374 255.553 26.1777 255.128 26.1978L254.673 26.2141C254.521 26.2245 254.354 26.2329 254.138 26.2653C253.967 26.3034 253.784 26.3247 253.596 26.3757C253.252 26.4668 252.918 26.6043 252.629 26.7327C252.501 26.7914 252.388 26.8521 252.175 26.9753C252.012 27.0747 251.833 27.1721 251.732 27.2495C251.5 27.4153 251.267 27.5811 251.016 27.7747C250.544 28.1508 250.117 28.5327 249.733 28.9352C249.454 29.2306 249.097 29.6518 248.764 30.1213C248.535 30.0311 248.305 29.941 248.101 29.8843L246.449 29.3678C246.058 29.2416 245.635 29.1264 245.226 29.0279L244.774 28.9088C244.468 28.8238 244.145 28.7517 243.836 28.6964C243.63 28.6545 243.409 28.6108 243.161 28.5483C242.868 28.4801 242.586 28.4434 242.29 28.4049C242.202 28.0316 241.959 27.6983 241.611 27.4721L241.221 27.2253C240.929 27.0365 240.622 26.8458 240.283 26.666L239.942 26.5011C239.589 26.3194 239.235 26.1377 238.902 26.034L237.491 25.5188C237.057 25.3719 236.635 25.2567 236.195 25.1543L236.006 25.0996C234.546 24.7288 233.068 24.4914 231.652 24.247L230.382 24.0366C229.364 23.8591 228.217 23.6345 227.073 23.3802C226.96 23.3203 226.849 23.2456 226.73 23.2301C226.73 23.2301 226.51 23.1864 226.137 23.153C225.802 23.0642 225.466 22.9753 225.146 22.8884C224.39 22.6695 223.625 22.4041 222.749 22.064L220.257 20.9257C218.679 20.1777 216.889 19.3266 215.073 18.5626C214.086 18.1478 213.18 17.8038 212.285 17.4914C211.402 17.2106 210.357 16.8938 209.218 16.7157C207.889 16.4976 206.759 16.4865 205.572 16.6791L204.716 16.8845C204.465 16.9574 204.196 17.0581 203.941 17.1607L203.51 17.346C203.51 17.346 203.413 17.3937 203.364 17.4176L202.713 17.7854C202.713 17.7854 202.499 17.9235 202.482 17.9364L202.203 18.1112C201.496 18.5622 200.817 18.9113 200.196 19.1624C199.88 19.2721 199.549 19.3799 199.254 19.4471C199.115 19.4742 198.992 19.4885 198.869 19.5027C198.869 19.5027 198.825 19.4969 198.795 19.4931C197.352 18.9888 195.995 18.8726 194.928 18.8395C193.62 18.8052 192.313 18.8766 191.073 19.017C188.719 19.254 186.474 19.7011 183.815 20.3056C179.786 21.2448 175.529 22.4258 170.029 24.1238L162.456 26.4422C160.54 27.0226 158.563 27.6102 156.631 28.0829C156.116 28.2121 155.604 28.3264 155.091 28.4408C154.489 28.5435 153.917 28.6501 153.187 28.8116C151.909 29.1281 150.634 29.656 149.283 30.4155C147.281 31.5427 145.402 33.0026 143.188 35.1732C140.159 38.1727 137.362 41.7002 134.1 46.6C132.844 48.4878 131.606 50.4684 130.292 52.6806C129.988 53.1688 129.709 53.6905 129.417 54.1955C129.123 54.7154 128.829 55.2352 128.507 55.7363C128.004 56.5908 127.389 57.4912 126.674 58.469C123.719 62.3983 120.126 65.8977 117.316 68.4883C115.515 70.1545 113.799 71.6356 112.063 73.0387C111.168 73.767 110.261 74.4786 109.337 75.2031C108.265 76.0288 107.318 76.9313 106.496 77.9104C104.996 79.7061 103.863 81.6854 102.785 83.5963L102.493 84.1013C101.91 85.1113 101.344 86.0936 100.746 86.981C100.432 87.4228 100.12 87.8498 99.7434 88.3136C99.6705 88.4097 99.568 88.5019 99.4784 88.6109L99.1632 88.947C99.0755 89.0412 98.9879 89.1353 98.8441 89.3127C98.7545 89.4217 98.6668 89.5159 98.5231 89.6933C97.6414 90.9058 97.1357 92.2427 96.7589 93.4002C96.4066 94.4855 96.0892 95.6508 95.7951 96.985C95.3059 99.1233 94.9071 101.379 94.5375 104.106C94.2354 106.314 93.9475 108.644 93.7178 111.223L93.4529 114.19L93.3478 114.418C93.1584 114.831 92.9464 115.301 92.7867 115.717C92.5574 116.321 92.3371 116.971 92.1575 117.657C91.5465 120.035 91.3684 122.682 91.6587 125.555L91.7318 126.152C91.7817 126.581 91.8316 127.01 91.9092 127.457L92.0139 128.044C92.0973 128.447 92.1639 128.863 92.2693 129.329L92.7299 131.123C92.843 131.53 92.9599 131.907 93.0749 132.299L93.7525 134.514C93.8145 134.733 93.8784 134.938 93.9404 135.157C94.0393 135.441 94.1213 135.738 94.1827 136.078L94.3281 136.7C94.4063 137.027 94.4845 137.354 94.5259 137.616L94.7388 139.227C94.9255 141.272 94.7098 143.28 94.0528 145.201C93.1486 147.979 91.4864 150.553 89.7308 153.265C88.9549 154.477 88.1454 155.714 87.3895 157.003C86.0084 159.387 85.2505 161.853 84.6491 164.157C84.1026 166.273 83.685 168.557 83.3077 171.343C83.0147 173.597 82.801 175.937 82.6622 178.513C82.5656 180.069 82.5101 181.54 82.4902 182.97C81.5845 182.626 80.5337 182.354 79.3527 182.155L79.0709 182.118C78.8484 182.089 78.6278 182.046 78.344 182.024L77.1031 181.938C77.0289 181.928 76.9528 181.933 76.8767 181.939C76.8025 181.929 76.7245 181.949 76.6464 181.969L76.175 181.998C76.1157 181.991 76.0525 182.012 75.9912 182.02C75.7906 182.054 75.5714 182.116 75.3225 182.174L74.5976 182.412C73.1977 182.969 71.8592 183.865 70.4016 185.214C69.2702 186.259 68.1621 187.472 67.0064 188.935C64.82 191.713 62.8324 194.817 61.0571 198.146C60.615 198.993 60.184 199.872 59.7491 200.781C59.3309 201.677 58.9386 202.606 58.5443 203.55C57.596 205.855 56.9673 207.674 56.4613 209.478C56.2005 210.44 55.9147 211.594 55.8211 212.894C55.8026 213.268 55.8027 213.615 55.8048 213.947C55.8094 214.144 55.814 214.341 55.7999 214.565C55.7866 215.016 55.7527 215.509 55.7058 215.986C55.6211 216.985 55.4733 218.006 55.3125 219.011L55.191 219.945C55.0501 220.681 54.9389 221.421 54.8109 222.173C54.5125 224.005 54.225 225.868 53.9937 227.647C53.7042 229.178 53.3454 231.59 53.3318 234.363L53.301 234.6C53.3147 234.843 53.2967 235.098 53.2975 235.324C53.2277 237.833 53.3558 240.097 53.7089 242.255C54.1235 244.752 54.8953 247.054 56.0429 249.134C56.4864 249.9 56.9265 250.576 57.3667 251.251L58.3613 252.768C58.7498 253.376 59.1403 253.97 59.5269 254.594C60.7035 256.451 61.7046 258.149 62.5928 259.788C64.4796 263.261 65.8562 266.712 66.6769 270.032C67.4374 273.117 67.8943 276.449 68.0197 280.009L68.2744 282.576C68.3882 283.209 68.5336 283.831 68.6642 284.452L68.7876 285.01C68.7876 285.01 68.8186 285.12 68.8406 285.183L68.9484 285.514C69.1661 286.161 69.3837 286.807 69.6368 287.413C69.6607 287.462 69.6698 287.508 69.6956 287.542C69.804 287.752 69.9125 287.962 70.0209 288.172C70.2598 288.656 70.4877 289.107 70.751 289.519C72.2974 292.012 74.1563 293.611 75.6117 294.6C75.5944 294.733 75.579 294.852 75.5578 295.015L75.4903 295.534C75.4363 295.949 75.3746 296.424 75.2717 296.984C75.1739 297.619 75.0498 298.342 74.8108 299.02L74.7322 299.161L74.6594 299.257L74.5343 299.406C74.1405 299.883 73.7763 300.364 73.4734 300.837C72.8714 301.754 72.3244 302.829 71.7794 304.236C71.3285 305.384 70.9033 306.566 70.4724 307.792C70.2541 308.427 70.0635 309.081 69.8929 309.813L69.7713 310.4C69.5716 311.008 69.37 311.63 69.1685 312.252C68.9584 312.707 68.7297 313.19 68.4842 313.686L68.0982 314.451C67.8967 313.912 67.714 313.345 67.5537 312.721C67.3592 311.896 66.8713 311.124 66.2344 310.453C66.2363 310.438 66.2383 310.423 66.2421 310.394C65.1516 306.482 62.2416 303.57 58.6643 302.773C58.1657 302.663 57.664 302.809 57.3172 303.156C56.9703 303.503 56.7861 303.991 56.8728 304.485C56.9918 305.195 57.1165 305.859 57.2284 306.507C55.3353 304.708 52.8705 303.709 50.3275 303.891C49.8245 303.931 49.3815 304.205 49.1308 304.625C48.8782 305.06 48.8553 305.585 49.0851 306.022C49.4414 306.762 49.7906 307.441 50.127 308.103C47.8597 306.164 45.0685 305.123 42.2192 305.34C41.7478 305.37 41.3216 305.631 41.058 306.034C40.7944 306.437 40.7605 306.93 40.929 307.375C41.8582 309.742 43.2078 311.894 44.4928 313.961C44.8168 314.486 45.1408 315.01 45.4906 315.569L45.5145 315.617C44.7754 316.893 44.4269 317.949 44.3857 318.034C44.3103 318.266 44.2924 318.52 44.3357 318.767L45.3852 324.619C45.4951 325.282 46.0474 325.791 46.7337 325.85C47.0156 325.887 47.707 326.022 47.8073 326.759C47.8682 327.219 47.9013 327.661 47.9234 328.071C48.0144 329.576 48.1508 331.66 50.3014 332.407C52.1482 333.054 56.0276 341.506 57.3698 344.411C58.3154 346.072 60.8136 348.206 63.3912 348.919C64.9347 349.345 66.3864 349.202 67.5606 348.526C68.1003 348.204 68.6844 347.887 69.2686 347.571C71.3971 346.4 73.4159 345.26 74.6594 344.049C75.9833 343.497 77.2657 342.684 78.5029 341.638C78.5828 341.603 78.6608 341.583 78.7408 341.548C81.5607 340.512 84.7449 339.343 85.7468 337.09C85.942 336.633 86.2216 335.99 86.5482 335.219C88.2039 331.301 91.6616 323.154 94.4733 319.629C95.7876 317.99 97.6687 316.168 99.4828 314.398C103.161 310.819 105.436 308.521 105.81 306.458C105.879 306.045 106.002 305.563 106.118 305.02C106.902 301.654 108.206 296.032 104.253 292.909C102.132 291.23 101.066 289.569 100.637 288.578C102.015 288.651 104.433 288.966 106.471 289.306C106.56 289.318 106.649 289.329 106.755 289.328C107.404 289.322 122.76 288.98 129.913 284.556C135.686 280.993 139.388 277.584 140.947 274.408C141.895 275.119 145.702 278.676 145.774 289.499C145.764 289.573 145.784 289.651 145.789 289.727L147.57 300.395C147.643 300.766 149.582 309.524 156.475 314.87C158.805 316.786 161.506 319.565 161.81 320.706C161.871 320.94 161.992 321.167 162.165 321.34C163.039 322.283 164.332 324.05 164.461 325.032C164.599 326.181 165.036 329.662 167.475 331.441C168.481 332.175 169.672 332.526 171.021 332.476L172.834 336.979L171.936 348.068C171.922 348.172 171.924 348.278 171.94 348.385C171.983 348.753 173.18 357.415 180.071 362.081L187.043 367.859L191.962 374.47L193.713 379.449C193.768 379.607 193.852 379.768 193.971 379.904L196.07 382.44C195.806 383.657 195.462 386.071 196.01 388.932C196.75 392.874 198.053 395.034 198.117 395.118C198.243 395.315 198.403 395.472 198.583 395.601L209.985 402.693L212.479 405.793L215.327 409.647C215.506 409.896 215.753 410.079 216.042 410.177L220.79 411.835C220.875 411.876 220.96 411.917 221.046 411.959C221.046 411.959 221.377 412.077 221.857 412.215L222.435 412.411C222.565 412.458 222.698 412.475 222.832 412.492C226.273 413.407 228.72 413.499 230.236 412.746C233.823 415.203 236.051 416.518 236.8 416.676C237.751 416.905 238.983 417.171 240.244 417.335C242.336 417.607 244.509 417.603 245.587 416.733C245.688 416.655 245.807 416.55 245.939 416.462C246.541 416.012 247.411 415.356 248.26 414.275C250.677 415.298 253.165 416.345 255.983 416.832C255.998 416.834 256.028 416.838 256.043 416.84C256.488 416.898 256.945 416.746 257.273 416.427C257.618 416.095 257.786 415.619 257.712 415.142C257.21 411.577 254.538 408.455 250.908 407.018C251.035 405.813 251.075 404.461 250.975 402.909C251.344 402.625 251.724 402.253 252.08 401.831C253.078 402.052 254.136 402.264 255.263 402.411C256.183 402.531 257.124 402.608 258.088 402.612C258.571 402.615 259.023 402.387 259.299 402.001C259.576 401.614 259.671 401.114 259.519 400.657C258.6 397.747 256.218 395.417 253.093 394.271C251.768 391.354 249.404 389.81 247.956 389.109C247.924 389.015 247.891 388.92 247.843 388.823C247.843 388.703 247.827 388.595 247.828 388.474C250.007 387.838 252.212 387.129 254.357 385.945C254.779 385.713 255.059 385.297 255.121 384.823C255.183 384.348 255.003 383.872 254.654 383.54C251.627 380.719 246.857 380.159 242.794 382.059C240.933 381.515 238.895 381.416 237.572 381.38C237.486 381.112 237.357 380.824 237.197 380.547C238.692 378.916 240.032 377.311 241.125 375.402C241.36 374.98 241.394 374.487 241.194 374.054C240.994 373.62 240.613 373.299 240.143 373.208C236.298 372.376 232.178 374.133 229.608 377.539C228.005 377.572 226.732 377.965 225.676 378.778C224.569 379.629 222.467 381.648 221.622 382.458C221.151 382.488 220.268 382.433 219.428 381.811C217.94 380.728 217.033 378.303 216.826 374.792C216.642 371.797 216.864 368.93 217.089 366.154C217.631 359.317 218.139 352.853 211.832 347.524C211.751 347.453 211.64 347.378 211.54 347.335C211.51 347.331 208.032 345.31 207.592 335.933C207.579 335.795 207.554 335.641 207.51 335.515L207.192 334.599C207.171 334.294 207.091 333.982 206.895 333.746L205.598 330.033C205.433 326.543 205.718 322.96 206.226 322.302C206.276 322.264 206.3 322.191 206.336 322.151C224.28 329.174 240.254 327.676 260.186 325.788C263.134 325.508 266.158 325.222 269.315 324.954C275.372 324.429 281.567 323.545 287.533 322.677C301.26 320.706 314.206 318.83 323.052 321.805C334.152 325.54 341.584 329.99 346.687 341.678C348.77 346.428 348.903 351.09 349.069 357.009C349.158 359.916 349.257 363.217 349.62 366.808C350.362 374.099 353.984 384.991 358.568 385.587C359.295 385.681 360.034 385.687 360.754 385.599C366.238 384.955 370.646 373.327 369.933 365.12L370.049 365.045Z" fill="url(#paint1_linear_230_1901)"/>
<defs>
<linearGradient id="paint0_linear_230_1901" x1="399.824" y1="-132.159" x2="399.825" y2="501.518" gradientUnits="userSpaceOnUse">
<stop offset="0.0104167" stop-color="#710810" stop-opacity="0"/>
<stop offset="0.28125" stop-color="#710810"/>
<stop offset="0.729167" stop-color="#710810"/>
<stop offset="1" stop-color="#710810" stop-opacity="0"/>
</linearGradient>
<linearGradient id="paint1_linear_230_1901" x1="172" y1="151" x2="195.809" y2="411.558" gradientUnits="userSpaceOnUse">
<stop stop-color="#710810"/>
<stop offset="1" stop-color="#790E16" stop-opacity="0"/>
</linearGradient>
</defs>
</svg>
