<svg width="1921" height="304" viewBox="0 0 1921 304" fill="none" xmlns="http://www.w3.org/2000/svg">
<g clip-path="url(#clip0_230_1900)">
<path d="M266.75 35.25C306.25 44.75 279.75 65.25 303.75 65.25C323.44 65.25 334.32 73.03 366.58 79.25C373.65 80.61 369.79 68.55 380.58 71.25C402.03 76.61 411.81 96.55 428.08 107.75C436.87 113.8 435.79 104.6 450.08 112.44C464.72 120.48 479.75 128.84 490.08 136.25C503.23 145.69 495.88 151.44 513.26 160.25C568.46 188.25 622.93 171.92 643.26 160.25C668.43 156.92 720.96 153.95 729.76 168.75C740.76 187.25 780.76 195.25 802.26 191.25C823.76 187.25 883.76 186.75 934.26 223.75C949.7 220.42 983.08 209.25 993.08 191.25C1005.58 168.75 1008.58 207.75 1022.08 223.75C1035.58 239.75 1059.08 272.75 1084.58 253.25C1105.85 236.99 1112.51 256.19 1115.01 273.75M1116.08 283.75C1117.58 302.25 1125.94 306.75 1144.76 298.25C1164.88 289.17 1172.84 300.75 1192.08 300.75C1216.58 300.75 1237.76 273.75 1285.76 298.25" stroke="#F6B46B" stroke-width="1.5" stroke-miterlimit="10" stroke-linecap="round"/>
<path d="M266.75 36.7499C246.1 32.6799 209.55 30.9599 199.45 12.1499C191.38 -2.89009 143.16 0.11991 120.06 3.50991C101.4 15.3699 51.41 31.9799 0.75 3.50991" stroke="#F6B46B" stroke-width="1.5" stroke-miterlimit="10" stroke-linecap="round"/>
<path d="M1109.75 256.84C1116.73 255.06 1131.49 249.35 1142.39 247.2C1164.08 242.92 1181.42 256.79 1200.91 260C1211.44 261.73 1217.15 257.89 1233.42 258.9C1250.09 259.94 1256.65 257.07 1269.15 259.38C1285.07 262.32 1280.86 270.65 1300.34 271.23C1362.21 273.06 1404.53 235.09 1417.96 215.87C1439.31 202.14 1485.58 177.08 1499.85 186.73C1517.68 198.79 1557.28 188.99 1575.03 176.22C1592.78 163.44 1646.85 137.44 1708.3 149.42C1720.85 139.83 1746.3 115.51 1747.68 94.96C1749.41 69.28 1768.74 103.29 1787.76 112.02C1806.79 120.75 1842.11 140.6 1856.88 112.1C1869.19 88.33 1910.02 103.94 1919.75 118.76" stroke="#F6B46B" stroke-width="1.5" stroke-miterlimit="10" stroke-linecap="round"/>
</g>
<defs>
<clipPath id="clip0_230_1900">
<rect width="1920.5" height="303.13" fill="white"/>
</clipPath>
</defs>
</svg>
