<svg width="71" height="103" viewBox="0 0 71 103" fill="none" xmlns="http://www.w3.org/2000/svg">
<path d="M28.1029 65.0071C26.0496 67.2016 23.8942 69.3187 21.8104 71.4939C25.5429 70.3959 29.3346 69.6465 33.2273 69.3146C35.3331 69.1295 37.4437 69.1243 39.5535 69.0891C42.0929 69.0326 44.3067 68.3845 46.696 67.5618C48.9367 66.7929 51.176 65.9741 53.2676 64.859C55.5859 63.6179 57.5618 61.9057 59.6203 60.2913C62.6396 57.9315 66.0959 55.8304 70.0776 56.2264C70.6492 56.2815 70.7114 57.1301 70.134 57.2353C67.724 57.6484 65.9954 59.2542 64.3696 60.9673C62.666 62.7625 61.0013 64.5166 59.0509 66.0581C55.8164 68.6036 51.9025 71.9471 47.7202 72.6767C45.569 73.0431 43.4325 72.4388 41.2806 72.395C38.8685 72.3481 36.4762 72.6708 34.068 72.7738C29.0816 72.9743 23.5467 70.9483 19.2237 74.3325C17.8247 75.9197 16.507 77.5547 15.3025 79.3068C14.3099 80.7532 13.4592 82.266 12.7192 83.8059C12.704 83.9864 12.6887 84.1668 12.6734 84.3473C12.8407 84.2429 12.9983 84.1487 13.1659 84.0543C20.5573 79.0393 30.3718 82.1437 38.7269 81.8451C41.3154 81.7573 43.9249 81.3189 46.2974 80.2365C48.6596 79.1444 50.6765 77.471 52.6122 75.7498C55.9849 72.7506 59.2219 69.5348 63.6908 68.2875C64.1973 68.1443 64.5068 68.8864 64.1145 69.1868C59.8128 72.6204 57.743 78.0064 53.3808 81.4217C49.8029 84.2262 45.1031 86.5899 40.6345 87.4671C35.9271 88.3905 31.3368 86.5299 26.9191 85.145C23.1672 83.9727 17.6253 82.8273 13.7974 84.8681C13.2959 85.2013 12.8155 85.574 12.3461 85.9864C12.2777 86.0482 12.2083 86.07 12.1288 86.0921C11.9728 86.2462 11.817 86.4104 11.6715 86.5842C11.6134 86.6558 11.5545 86.6973 11.4853 86.7292C10.6352 89.0322 10.0172 91.4092 9.58114 93.8614C11.4149 92.453 14.7894 93.345 16.8539 93.8712C21.5565 95.0586 26.1637 96.4186 31.0135 96.7319C33.218 96.8743 35.287 97.1903 37.413 97.7749C39.7305 98.4145 41.9939 98.8954 44.4202 98.7219C48.5135 98.4148 52.3619 96.7736 55.9539 94.889C56.4769 94.6152 56.9471 95.3832 56.5064 95.7448C53.3035 98.3495 49.9543 100.718 45.9108 101.784C42.3542 102.727 38.5729 102.726 34.939 102.241C30.6526 101.673 26.508 100.401 22.393 99.1181C20.1844 98.4357 17.9653 97.7335 15.7293 97.1517C13.5838 96.5877 11.3878 96.0049 9.18903 96.4625C9.13664 96.754 8.77702 96.7734 8.65131 96.5566C8.25014 96.5171 8.13474 95.9299 8.45809 95.6714C8.5118 95.4299 8.58628 95.2179 8.68101 95.0153C8.90487 91.7184 9.69062 88.4867 10.9309 85.4232C10.9304 85.4032 10.9296 85.3732 10.9288 85.3432C10.9827 80.5202 9.27348 75.9833 7.15145 71.7274C5.27242 67.9652 2.7078 64.3811 1.92741 60.17C0.505668 52.4746 3.9152 44.3827 0.948442 36.8977C0.776725 36.452 1.26401 35.9591 1.69223 36.268C5.02597 38.6617 5.81297 42.7425 5.76449 46.6251C5.7059 51.2682 5.11539 55.8452 6.49448 60.3807C7.82939 64.7573 10.49 68.569 11.7065 73.0087C12.4695 75.7897 12.8247 78.6614 12.7998 81.533C12.924 81.3097 13.058 81.0761 13.1822 80.8528C14.542 78.5364 16.1571 76.4135 17.8947 74.3873C19.7778 70.2767 15.9956 65.654 14.4704 62.0326C12.9339 58.3616 12.0511 54.4433 11.4682 50.5172C10.873 46.5014 10.202 42.2675 11.0169 38.2348C11.778 34.4436 13.6586 31.0033 16.1017 28.0284C16.4603 27.5888 17.1626 28.0506 16.8453 28.5391C14.5058 32.0315 14.2363 36.26 14.523 40.3339C14.7941 44.1981 15.3854 48.0639 16.0954 51.8767C17.3994 58.895 19.6944 65.5572 19.3621 72.7384C21.0831 70.8427 22.8962 69.0247 24.6792 67.2074C25.0689 66.8071 25.4686 66.4065 25.868 65.9959C27.8617 63.0528 24.9242 58.5981 23.7226 55.8786C22.2871 52.625 21.8299 48.9157 21.4482 45.4145C20.7137 38.7514 21.0941 31.8791 24.4596 25.9291C24.7467 25.4314 25.4882 25.8621 25.3314 26.3664C24.2312 29.8164 24.5363 33.4496 24.6894 37.0068C24.8404 40.4841 24.9401 43.9126 25.8885 47.279C26.8258 50.6056 27.4837 53.9596 27.9733 57.3779C28.291 59.5804 28.4496 61.817 27.8647 63.933C27.8844 63.9225 27.9039 63.902 27.9236 63.8914C30.7768 60.9158 33.5724 57.6516 35.0958 53.9405C35.0737 53.861 35.0814 53.7708 35.1188 53.6698C35.3325 53.044 35.5664 52.4276 35.8107 51.8211C36.4834 49.2426 36.8019 46.5033 36.8894 43.7301C36.6311 39.9755 33.4925 36.6265 31.6712 33.5431C29.8915 30.5186 28.5794 26.6316 28.3674 23.1159C28.2598 21.2981 28.676 19.6166 29.2313 17.9015C29.8785 15.8739 30.2479 13.9336 30.4024 11.8088C30.6821 7.97018 31.5302 4.4468 33.5037 1.11404C33.7624 0.67713 34.5026 1.0579 34.2945 1.5135C32.9921 4.49858 32.9855 7.68985 33.0392 10.8895C33.0856 13.8093 32.9779 16.5731 32.3726 19.4399C31.6084 23.1111 32.333 27.4837 33.804 30.9464C34.5183 32.6283 35.6569 34.089 36.47 35.7283C36.5331 35.8467 36.5765 35.9756 36.6396 36.094C36.5679 35.2656 36.4965 34.4472 36.4054 33.6393C34.8592 29.2182 35.168 24.5785 36.8618 20.1127C37.8723 17.4454 39.0377 14.5739 40.7074 12.2495C42.5509 9.68037 45.1113 7.75275 47.6026 5.85695C47.9852 5.56684 48.598 6.05098 48.2583 6.45C46.24 8.8336 44.1256 11.3698 43.1339 14.3767C42.1609 17.3332 41.891 20.4013 40.7068 23.3133C39.4473 26.4073 37.6333 28.9556 37.9248 32.4491C38.0111 33.4572 38.1068 34.4351 38.1821 35.4034C38.1831 35.4434 38.1842 35.4834 38.1852 35.5234C38.2973 37.131 38.3189 38.721 38.0127 40.3996C37.9861 40.5303 37.9287 40.6318 37.8406 40.7042C37.8578 43.2746 37.7351 45.8487 37.3912 48.3785C38.1251 46.9889 38.9403 45.6471 39.857 44.3627C41.9799 41.3861 44.3474 38.5833 45.3841 35.0049C46.2464 32.0214 46.4324 28.8054 47.9002 26.0261C49.2627 23.4295 51.8697 22.1309 53.7664 20.0706C53.9793 19.795 54.2122 19.5188 54.4553 19.2523C54.455 19.2423 54.4747 19.2318 54.4845 19.2215C54.5137 19.1908 54.5429 19.16 54.5621 19.1295C54.922 18.7399 55.558 19.3435 55.2486 19.7517C55.1131 19.9253 54.9773 20.0889 54.8316 20.2528C50.5127 25.7076 50.362 32.944 47.573 39.1391C46.2962 41.9535 44.5183 43.9706 42.2304 45.9912C39.5804 48.3213 37.9981 51.6938 35.84 54.4712C34.8679 56.6974 33.5007 58.7338 31.9601 60.6448" fill="#F6B46B"/>
</svg>
