<svg width="1920" height="496" viewBox="0 0 1920 496" fill="none" xmlns="http://www.w3.org/2000/svg">
<path fill-rule="evenodd" clip-rule="evenodd" d="M1022.83 299.456C1022.99 299.819 1023.14 300.183 1023.3 300.549L885.186 274.607C885.501 273.012 885.779 271.401 886.019 269.774C893.95 215.923 856.724 165.838 802.872 157.908C749.971 150.117 700.704 185.904 691.465 238.22L544.775 210.668C545.767 209.181 546.886 207.694 548.023 206.184C551.544 201.509 555.233 196.609 555.833 190.778C556.012 189.036 556.061 187.377 556.109 185.79C556.272 180.334 556.41 175.726 561.688 171.482L561.956 171.267C567.787 166.584 571.836 163.333 573.053 155.705C574.289 147.96 575.465 143.988 582.88 139.927C590.296 135.867 592.672 132.05 594.898 124.281C597.124 116.511 600.86 114.332 608.117 111.751C615.324 109.176 617.174 105.062 619.667 99.5183C620.17 98.4013 620.698 97.2261 621.302 95.9938C624.231 90.0148 628.636 89.1429 633.956 88.0896C635.174 87.8485 636.44 87.5978 637.748 87.2742C643.509 85.852 645.494 82.2911 647.763 78.2181C648.831 76.3024 649.961 74.2733 651.578 72.3003C655.046 68.0559 659.332 67.9723 663.867 67.8839C665.941 67.8434 668.067 67.802 670.19 67.3611C674.924 66.3854 677.256 63.1069 679.656 59.7321C681.163 57.6131 682.698 55.4562 684.87 53.8075C688.664 50.9436 692.781 51.4869 696.955 52.0378C699.821 52.4161 702.714 52.7979 705.549 52.0834C709.057 51.191 711.432 48.6908 713.808 46.1888C715.839 44.0514 717.87 41.9125 720.611 40.7736C724.375 39.2095 728.101 40.1825 731.86 41.1642C734.909 41.9606 737.98 42.7627 741.113 42.2215C744.274 41.6754 746.868 39.8336 749.454 37.9979C752.59 35.7717 755.713 33.5545 759.819 33.6684C762.816 33.7616 765.525 34.78 768.213 35.7908C771.909 37.1806 775.568 38.5562 779.887 37.4921C782.092 36.9464 784.042 36.0847 785.921 35.2544C790.023 33.4414 793.787 31.7782 799.121 33.8824C801.042 34.6401 802.696 35.4485 804.237 36.201C808.934 38.4956 812.568 40.2707 819.428 38.5023C828.539 36.1539 832.455 36.78 839.582 42.609C845.657 47.5774 850.022 47.0562 856.306 46.3058C857.394 46.1758 858.54 46.0389 859.763 45.9225C866.723 45.2599 869.85 48.8903 873.616 53.2609C874.33 54.0896 875.067 54.945 875.857 55.8027C879.956 60.2343 884.322 60.2714 889.043 60.3116C891.421 60.3319 893.89 60.3529 896.459 60.9372C901.269 62.0202 903.513 65.6346 905.817 69.3465C907.185 71.5521 908.576 73.792 910.539 75.5558C913.38 78.1174 916.983 78.7396 920.579 79.3604C923.625 79.8865 926.667 80.4116 929.233 82.1148C932.308 84.1652 933.769 87.4116 935.241 90.6842C936.447 93.3665 937.662 96.0664 939.78 98.1395C942.1 100.419 945.123 101.486 948.125 102.547C951.184 103.627 954.221 104.699 956.469 107.039C958.814 109.479 959.653 112.533 960.507 115.638C961.274 118.431 962.054 121.266 963.951 123.734C965.941 126.324 968.765 127.774 971.591 129.225C974.454 130.695 977.319 132.166 979.325 134.823C981.493 137.705 981.836 141.156 982.18 144.609C982.468 147.506 982.756 150.404 984.122 152.97C985.728 155.979 988.55 157.911 991.344 159.824C994.299 161.846 997.223 163.848 998.649 167.082C1000 170.131 999.828 173.469 999.657 176.773C999.474 180.286 999.294 183.76 1000.95 186.805C1002.3 189.275 1004.45 191.184 1006.58 193.073C1009.56 195.718 1012.5 198.323 1013.13 202.372C1013.58 205.257 1012.98 208.05 1012.38 210.816C1011.54 214.705 1010.72 218.538 1012.83 222.489C1013.95 224.58 1015.51 226.34 1017.03 228.064C1019.94 231.372 1022.74 234.546 1022.15 239.663C1021.85 242.239 1021.09 244.535 1020.35 246.739C1018.87 251.194 1017.52 255.269 1020.39 260.504C1021.05 261.699 1021.73 262.808 1022.37 263.871C1025.3 268.667 1027.65 272.524 1025.04 279.02C1024.55 280.272 1023.92 281.485 1023.28 282.7C1022.15 284.873 1021.02 287.052 1020.65 289.48C1020.08 293.103 1021.44 296.235 1022.83 299.456Z" fill="#790E16"/>
<path d="M1176.75 256.34C1162.62 237.01 1164.53 209.21 1140.36 198.14C1116.19 187.02 1091.5 193.12 1075.75 166.76C1063.09 145.49 1057.34 126.01 1029.38 122.83C1001.42 119.65 984.412 122.04 964.892 97.7699C945.372 73.5099 932.846 68.6999 901.05 70.1099C869.253 71.5199 860.659 56.2199 837.057 40.6399C813.455 25.0599 795.316 38.2999 770.863 39.1499C744.88 40.0199 730.513 18.1899 707.101 12.4799C682.448 6.55991 663.198 28.5999 639.206 27.7099C615.214 26.8199 596.904 3.98991 572.352 8.59991C550.931 12.6199 537.284 34.5699 514.592 35.4999C490.31 36.4399 469.489 15.2499 444.937 26.7599C423.306 36.9699 413.491 61.4799 386.877 61.3499C363.495 61.2699 342.865 47.7599 321.814 64.6899C300.773 81.5699 295.07 103.57 265.575 104.57C241.133 105.42 222.093 100.14 205.044 121.93" stroke="url(#paint0_linear_510_56)" stroke-width="2" stroke-miterlimit="10" stroke-linecap="round"/>
<path d="M211.128 115.65C193.399 131.7 191.518 156.97 166.015 164.59C143.623 171.31 119.951 164.38 104.733 186.7C89.5157 208.96 90.4562 231.67 62.5219 241.21C39.3801 249.13 19.63 249.61 9.65493 275.42L0 295.16" stroke="url(#paint1_linear_510_56)" stroke-width="2" stroke-miterlimit="10" stroke-linecap="round"/>
<path d="M1920 494.15C1900.47 476.1 1870.61 470.54 1863.81 440.61C1858.36 416.47 1858.92 396.16 1833.32 384.49C1807.71 372.82 1790.8 369.82 1779.76 340.71C1768.71 311.6 1758.29 303.16 1727.61 294.66C1696.95 286.16 1693.5 268.96 1675.9 246.84C1658.28 224.72 1636.93 231.7 1613.41 224.95C1588.44 217.74 1581.54 192.54 1561.05 179.87C1539.44 166.61 1514.31 181.62 1491.76 173.35C1469.22 165.08 1458.88 137.71 1434.11 134.5C1412.5 131.7 1392.72 148.34 1370.86 142.21C1347.48 135.59 1334.25 109 1307.33 112.35C1283.61 115.36 1266.68 135.63 1241.4 127.28C1219.2 119.97 1203.76 100.74 1178.5 110.33C1153.28 119.87 1141.04 139.03 1112.68 130.85C1089.17 124.09 1072.7 113.18 1049.74 128.63" stroke="url(#paint2_linear_510_56)" stroke-width="2" stroke-miterlimit="10" stroke-linecap="round"/>
<defs>
<linearGradient id="paint0_linear_510_56" x1="765.32" y1="1.14992" x2="642.646" y2="311.333" gradientUnits="userSpaceOnUse">
<stop stop-color="#DE9F54"/>
<stop offset="0.16" stop-color="#FCD074"/>
<stop offset="0.25" stop-color="#FCD97F" stop-opacity="0.99"/>
<stop offset="0.45" stop-color="#D59740" stop-opacity="0.99"/>
<stop offset="1" stop-color="#ECA15C" stop-opacity="0.98"/>
</linearGradient>
<linearGradient id="paint1_linear_510_56" x1="140.091" y1="123.47" x2="53.6923" y2="328.732" gradientUnits="userSpaceOnUse">
<stop stop-color="#DE9F54"/>
<stop offset="0.16" stop-color="#FCD074"/>
<stop offset="0.25" stop-color="#FCD97F" stop-opacity="0.99"/>
<stop offset="0.45" stop-color="#D59740" stop-opacity="0.99"/>
<stop offset="1" stop-color="#ECA15C" stop-opacity="0.98"/>
</linearGradient>
<linearGradient id="paint2_linear_510_56" x1="1599.58" y1="174.86" x2="1385.36" y2="430.098" gradientUnits="userSpaceOnUse">
<stop stop-color="#DE9F54"/>
<stop offset="0.16" stop-color="#FCD074"/>
<stop offset="0.25" stop-color="#FCD97F" stop-opacity="0.99"/>
<stop offset="0.45" stop-color="#D59740" stop-opacity="0.99"/>
<stop offset="1" stop-color="#ECA15C" stop-opacity="0.98"/>
</linearGradient>
</defs>
</svg>
