<svg width="302" height="414" viewBox="0 0 302 414" fill="none" xmlns="http://www.w3.org/2000/svg">
<path d="M151.654 55.8324C154.866 55.8324 157.446 53.2283 157.446 50.0401C157.446 46.8519 154.842 44.2478 151.654 44.2478C148.465 44.2478 145.861 46.8519 145.861 50.0401C145.861 53.2283 148.465 55.8324 151.654 55.8324Z" stroke="url(#paint0_linear_230_1998)" stroke-width="2" stroke-miterlimit="10" stroke-linecap="round"/>
<path d="M151.654 84.1119C154.866 84.1119 157.446 81.5078 157.446 78.3196C157.446 75.1314 154.842 72.5273 151.654 72.5273C148.465 72.5273 145.861 75.1314 145.861 78.3196C145.861 81.5078 148.465 84.1119 151.654 84.1119Z" stroke="url(#paint1_linear_230_1998)" stroke-width="2" stroke-miterlimit="10" stroke-linecap="round"/>
<path d="M151.654 112.805C154.866 112.805 157.446 110.201 157.446 107.013C157.446 103.825 154.842 101.221 151.654 101.221C148.465 101.221 145.861 103.825 145.861 107.013C145.861 110.201 148.465 112.805 151.654 112.805Z" stroke="url(#paint2_linear_230_1998)" stroke-width="2" stroke-miterlimit="10" stroke-linecap="round"/>
<path d="M151.654 140.721C154.866 140.721 157.446 138.116 157.446 134.928C157.446 131.74 154.842 129.136 151.654 129.136C148.465 129.136 145.861 131.74 145.861 134.928C145.861 138.116 148.465 140.721 151.654 140.721Z" stroke="url(#paint3_linear_230_1998)" stroke-width="2" stroke-miterlimit="10" stroke-linecap="round"/>
<path d="M151.654 168.976C154.866 168.976 157.446 166.372 157.446 163.184C157.446 159.996 154.842 157.392 151.654 157.392C148.465 157.392 145.861 159.996 145.861 163.184C145.861 166.372 148.465 168.976 151.654 168.976Z" stroke="url(#paint4_linear_230_1998)" stroke-width="2" stroke-miterlimit="10" stroke-linecap="round"/>
<path d="M151.654 195.237C154.866 195.237 157.446 192.633 157.446 189.444C157.446 186.256 154.842 183.652 151.654 183.652C148.465 183.652 145.861 186.256 145.861 189.444C145.861 192.633 148.465 195.237 151.654 195.237Z" stroke="url(#paint5_linear_230_1998)" stroke-width="2" stroke-miterlimit="10" stroke-linecap="round"/>
<path d="M151.654 223.127C154.866 223.127 157.446 220.523 157.446 217.335C157.446 214.146 154.842 211.542 151.654 211.542C148.465 211.542 145.861 214.146 145.861 217.335C145.861 220.523 148.465 223.127 151.654 223.127Z" stroke="url(#paint6_linear_230_1998)" stroke-width="2" stroke-miterlimit="10" stroke-linecap="round"/>
<path d="M152.091 251.407C155.304 251.407 157.883 248.802 157.883 245.614C157.883 242.426 155.279 239.822 152.091 239.822C148.903 239.822 146.299 242.426 146.299 245.614C146.299 248.802 148.903 251.407 152.091 251.407Z" stroke="url(#paint7_linear_230_1998)" stroke-width="2" stroke-miterlimit="10" stroke-linecap="round"/>
<path d="M133.959 11.061V259.828" stroke="url(#paint8_linear_230_1998)" stroke-width="2" stroke-miterlimit="10" stroke-linecap="round"/>
<path d="M169.984 31.7595L169.984 260.111" stroke="url(#paint9_linear_230_1998)" stroke-width="2" stroke-miterlimit="10" stroke-linecap="round"/>
<path d="M133.959 258.148C133.959 258.148 133.959 275.452 151.652 275.452" stroke="url(#paint10_linear_230_1998)" stroke-width="2" stroke-miterlimit="10" stroke-linecap="round"/>
<path d="M169.371 257.759C169.371 257.759 169.931 275.452 151.678 275.452" stroke="url(#paint11_linear_230_1998)" stroke-width="2" stroke-miterlimit="10" stroke-linecap="round"/>
<path d="M123.615 1C124.053 78.4901 124.053 185.623 123.615 262.918" stroke="url(#paint12_linear_230_1998)" stroke-width="2" stroke-miterlimit="10" stroke-linecap="round"/>
<path d="M179.693 1C180.862 78.4901 180.862 185.623 179.693 262.918" stroke="url(#paint13_linear_230_1998)" stroke-width="2" stroke-miterlimit="10" stroke-linecap="round"/>
<path d="M123.615 260.752C123.615 260.752 123.615 288.156 151.676 288.156" stroke="url(#paint14_linear_230_1998)" stroke-width="2" stroke-miterlimit="10" stroke-linecap="round"/>
<path d="M179.696 260.12C179.696 260.12 180.596 288.181 151.635 288.181" stroke="url(#paint15_linear_230_1998)" stroke-width="2" stroke-miterlimit="10" stroke-linecap="round"/>
<path d="M111.861 31.76C111.739 109.639 111.739 188.008 111.861 267.104" stroke="url(#paint16_linear_230_1998)" stroke-width="2" stroke-miterlimit="10" stroke-linecap="round"/>
<path d="M191.447 49.7874C190.742 127.667 190.742 188.008 191.447 267.104" stroke="url(#paint17_linear_230_1998)" stroke-width="2" stroke-miterlimit="10" stroke-linecap="round"/>
<path d="M111.867 264.452C111.867 264.452 111.867 303.367 151.659 303.367" stroke="url(#paint18_linear_230_1998)" stroke-width="2" stroke-miterlimit="10" stroke-linecap="round"/>
<path d="M191.45 263.551C191.45 263.551 192.715 303.342 151.658 303.342" stroke="url(#paint19_linear_230_1998)" stroke-width="2" stroke-miterlimit="10" stroke-linecap="round"/>
<path d="M99.207 16.4031C99.3531 96.3755 99.3531 190.369 99.207 270.439" stroke="url(#paint20_linear_230_1998)" stroke-width="2" stroke-miterlimit="10" stroke-linecap="round"/>
<path d="M204.054 15.7351C203.348 73.5363 203.713 145.905 204.054 203.827" stroke="url(#paint21_linear_230_1998)" stroke-width="2" stroke-miterlimit="10" stroke-linecap="round"/>
<path d="M99.207 267.202C99.207 267.202 99.207 318.456 151.63 318.456" stroke="url(#paint22_linear_230_1998)" stroke-width="2" stroke-miterlimit="10" stroke-linecap="round"/>
<path d="M151.635 318.456C205.712 318.456 204.057 266.033 204.057 266.033V201.71" stroke="url(#paint23_linear_230_1998)" stroke-width="2" stroke-miterlimit="10" stroke-linecap="round"/>
<path d="M85.602 37.7695C84.5311 117.961 84.5311 192.729 85.602 274.016" stroke="url(#paint24_linear_230_1998)" stroke-width="2" stroke-miterlimit="10" stroke-linecap="round"/>
<path d="M217.705 266.593C217.705 269.075 217.705 271.533 217.705 274.016" stroke="url(#paint25_linear_230_1998)" stroke-width="2" stroke-miterlimit="10" stroke-linecap="round"/>
<path d="M218.059 23.7471C218.059 71.515 218.059 145.947 218.059 194.677" stroke="url(#paint26_linear_230_1998)" stroke-width="2" stroke-miterlimit="10" stroke-linecap="round"/>
<path d="M85.6035 270.171C85.6035 270.171 85.6035 334.738 151.655 334.738" stroke="url(#paint27_linear_230_1998)" stroke-width="2" stroke-miterlimit="10" stroke-linecap="round"/>
<path d="M151.635 334.738C219.779 334.738 217.686 268.686 217.686 268.686V194.409" stroke="url(#paint28_linear_230_1998)" stroke-width="2" stroke-miterlimit="10" stroke-linecap="round"/>
<path d="M62.751 71.0675C65.4768 71.0675 67.6915 68.8528 67.6915 66.127C67.6915 63.4012 65.4768 61.1865 62.751 61.1865C60.0252 61.1865 57.8105 63.4012 57.8105 66.127C57.8105 68.8528 60.0252 71.0675 62.751 71.0675Z" stroke="url(#paint29_linear_230_1998)" stroke-width="2" stroke-miterlimit="10" stroke-linecap="round"/>
<path d="M62.751 98.836C65.4768 98.836 67.6915 96.6213 67.6915 93.8956C67.6915 91.1698 65.4768 88.9551 62.751 88.9551C60.0252 88.9551 57.8105 91.1698 57.8105 93.8956C57.8105 96.6213 60.0252 98.836 62.751 98.836Z" stroke="url(#paint30_linear_230_1998)" stroke-width="2" stroke-miterlimit="10" stroke-linecap="round"/>
<path d="M62.751 130.888C65.4768 130.888 67.6915 128.674 67.6915 125.948C67.6915 123.222 65.4768 121.007 62.751 121.007C60.0252 121.007 57.8105 123.222 57.8105 125.948C57.8105 128.674 60.0252 130.888 62.751 130.888Z" fill="url(#paint31_linear_230_1998)"/>
<path d="M62.751 166.372C65.4768 166.372 67.6915 164.157 67.6915 161.431C67.6915 158.706 65.4768 156.491 62.751 156.491C60.0252 156.491 57.8105 158.706 57.8105 161.431C57.8105 164.157 60.0252 166.372 62.751 166.372Z" stroke="url(#paint32_linear_230_1998)" stroke-width="2" stroke-miterlimit="10" stroke-linecap="round"/>
<path d="M62.751 199.422C65.4768 199.422 67.6915 197.208 67.6915 194.482C67.6915 191.756 65.4768 189.541 62.751 189.541C60.0252 189.541 57.8105 191.756 57.8105 194.482C57.8105 197.208 60.0252 199.422 62.751 199.422Z" stroke="url(#paint33_linear_230_1998)" stroke-width="2" stroke-miterlimit="10" stroke-linecap="round"/>
<path d="M62.751 228.967C65.4768 228.967 67.6915 226.753 67.6915 224.027C67.6915 221.301 65.4768 219.086 62.751 219.086C60.0252 219.086 57.8105 221.301 57.8105 224.027C57.8105 226.753 60.0252 228.967 62.751 228.967Z" stroke="url(#paint34_linear_230_1998)" stroke-width="2" stroke-miterlimit="10" stroke-linecap="round"/>
<path d="M62.751 261.02C65.4768 261.02 67.6915 258.805 67.6915 256.079C67.6915 253.354 65.4768 251.139 62.751 251.139C60.0252 251.139 57.8105 253.354 57.8105 256.079C57.8105 258.805 60.0252 261.02 62.751 261.02Z" stroke="url(#paint35_linear_230_1998)" stroke-width="2" stroke-miterlimit="10" stroke-linecap="round"/>
<path d="M240.439 41.4493C243.164 41.4493 245.379 39.2346 245.379 36.5088C245.379 33.7831 243.164 31.5684 240.439 31.5684C237.713 31.5684 235.498 33.7831 235.498 36.5088C235.498 39.2346 237.713 41.4493 240.439 41.4493Z" stroke="url(#paint36_linear_230_1998)" stroke-width="2" stroke-miterlimit="10" stroke-linecap="round"/>
<path d="M240.439 71.0675C243.164 71.0675 245.379 68.8528 245.379 66.127C245.379 63.4012 243.164 61.1865 240.439 61.1865C237.713 61.1865 235.498 63.4012 235.498 66.127C235.498 68.8528 237.713 71.0675 240.439 71.0675Z" stroke="url(#paint37_linear_230_1998)" stroke-width="2" stroke-miterlimit="10" stroke-linecap="round"/>
<path d="M240.439 98.836C243.164 98.836 245.379 96.6213 245.379 93.8956C245.379 91.1698 243.164 88.9551 240.439 88.9551C237.713 88.9551 235.498 91.1698 235.498 93.8956C235.498 96.6213 237.713 98.836 240.439 98.836Z" stroke="url(#paint38_linear_230_1998)" stroke-width="2" stroke-miterlimit="10" stroke-linecap="round"/>
<path d="M240.439 130.888C243.164 130.888 245.379 128.674 245.379 125.948C245.379 123.222 243.164 121.007 240.439 121.007C237.713 121.007 235.498 123.222 235.498 125.948C235.498 128.674 237.713 130.888 240.439 130.888Z" stroke="url(#paint39_linear_230_1998)" stroke-width="2" stroke-miterlimit="10" stroke-linecap="round"/>
<path d="M240.439 166.372C243.164 166.372 245.379 164.157 245.379 161.431C245.379 158.706 243.164 156.491 240.439 156.491C237.713 156.491 235.498 158.706 235.498 161.431C235.498 164.157 237.713 166.372 240.439 166.372Z" stroke="url(#paint40_linear_230_1998)" stroke-width="2" stroke-miterlimit="10" stroke-linecap="round"/>
<path d="M240.439 233.494C243.164 233.494 245.379 231.28 245.379 228.554C245.379 225.828 243.164 223.614 240.439 223.614C237.713 223.614 235.498 225.828 235.498 228.554C235.498 231.28 237.713 233.494 240.439 233.494Z" stroke="url(#paint41_linear_230_1998)" stroke-width="2" stroke-miterlimit="10" stroke-linecap="round"/>
<path d="M240.439 199.422C243.164 199.422 245.379 197.208 245.379 194.482C245.379 191.756 243.164 189.541 240.439 189.541C237.713 189.541 235.498 191.756 235.498 194.482C235.498 197.208 237.713 199.422 240.439 199.422Z" stroke="url(#paint42_linear_230_1998)" stroke-width="2" stroke-miterlimit="10" stroke-linecap="round"/>
<path d="M240.439 260.266C243.164 260.266 245.379 258.051 245.379 255.325C245.379 252.6 243.164 250.385 240.439 250.385C237.713 250.385 235.498 252.6 235.498 255.325C235.498 258.051 237.713 260.266 240.439 260.266Z" stroke="url(#paint43_linear_230_1998)" stroke-width="2" stroke-miterlimit="10" stroke-linecap="round"/>
<path d="M152.097 360.706C154.823 360.706 157.037 358.491 157.037 355.765C157.037 353.04 154.823 350.825 152.097 350.825C149.371 350.825 147.156 353.04 147.156 355.765C147.156 358.491 149.371 360.706 152.097 360.706Z" stroke="url(#paint44_linear_230_1998)" stroke-width="2" stroke-miterlimit="10" stroke-linecap="round"/>
<path d="M180.13 355.741C182.856 355.741 185.07 353.526 185.07 350.8C185.07 348.074 182.856 345.86 180.13 345.86C177.404 345.86 175.189 348.074 175.189 350.8C175.189 353.526 177.404 355.741 180.13 355.741Z" stroke="url(#paint45_linear_230_1998)" stroke-width="2" stroke-miterlimit="10" stroke-linecap="round"/>
<path d="M122.134 355.741C124.86 355.741 127.074 353.526 127.074 350.8C127.074 348.075 124.86 345.86 122.134 345.86C119.408 345.86 117.193 348.075 117.193 350.8C117.193 353.526 119.408 355.741 122.134 355.741Z" stroke="url(#paint46_linear_230_1998)" stroke-width="2" stroke-miterlimit="10" stroke-linecap="round"/>
<path d="M208.29 342.477C211.016 342.477 213.231 340.262 213.231 337.537C213.231 334.811 211.016 332.596 208.29 332.596C205.564 332.596 203.35 334.811 203.35 337.537C203.35 340.262 205.564 342.477 208.29 342.477Z" stroke="url(#paint47_linear_230_1998)" stroke-width="2" stroke-miterlimit="10" stroke-linecap="round"/>
<path d="M95.7334 342.477C98.4592 342.477 100.674 340.262 100.674 337.537C100.674 334.811 98.4592 332.596 95.7334 332.596C93.0077 332.596 90.793 334.811 90.793 337.537C90.793 340.262 93.0077 342.477 95.7334 342.477Z" stroke="url(#paint48_linear_230_1998)" stroke-width="2" stroke-miterlimit="10" stroke-linecap="round"/>
<path d="M226.298 320.33C229.024 320.33 231.238 318.115 231.238 315.389C231.238 312.663 229.024 310.449 226.298 310.449C223.572 310.449 221.357 312.663 221.357 315.389C221.357 318.115 223.572 320.33 226.298 320.33Z" stroke="url(#paint49_linear_230_1998)" stroke-width="2" stroke-miterlimit="10" stroke-linecap="round"/>
<path d="M237.136 292.14C240.046 292.14 242.41 289.776 242.41 286.866C242.41 283.956 240.046 281.592 237.136 281.592C234.226 281.592 231.861 283.956 231.861 286.866C231.861 289.776 234.226 292.14 237.136 292.14Z" fill="url(#paint50_linear_230_1998)"/>
<path d="M77.8155 320.33C80.5413 320.33 82.756 318.115 82.756 315.389C82.756 312.663 80.5413 310.449 77.8155 310.449C75.0897 310.449 72.875 312.663 72.875 315.389C72.875 318.115 75.0897 320.33 77.8155 320.33Z" stroke="url(#paint51_linear_230_1998)" stroke-width="2" stroke-miterlimit="10" stroke-linecap="round"/>
<path d="M68.6866 292.245C71.4124 292.245 73.627 290.031 73.627 287.305C73.627 284.579 71.4124 282.364 68.6866 282.364C65.9608 282.364 63.7461 284.579 63.7461 287.305C63.7461 290.031 65.9608 292.245 68.6866 292.245Z" stroke="url(#paint52_linear_230_1998)" stroke-width="2" stroke-miterlimit="10" stroke-linecap="round"/>
<path d="M111.229 254.056V67.1018H123.915V254.056C123.915 254.056 119.241 287.441 150.623 288.109C182.672 288.109 180.002 258.062 180.002 258.062V56.4187H190.685V258.062C190.685 258.062 197.38 302.798 149.287 302.798C109.225 302.798 111.229 254.056 111.229 254.056Z" fill="url(#paint53_linear_230_1998)"/>
<path d="M21.1653 135.971C19.3954 164.808 19.3954 244.437 21.1653 273.668" stroke="url(#paint54_linear_230_1998)" stroke-width="2" stroke-miterlimit="10" stroke-linecap="round"/>
<path d="M21.166 267.031C21.166 267.031 21.166 394.461 151.251 394.461" stroke="url(#paint55_linear_230_1998)" stroke-width="2" stroke-miterlimit="10" stroke-linecap="round"/>
<path d="M151.25 394.461C286.813 394.461 282.649 263.879 282.649 263.879V74.8398" stroke="url(#paint56_linear_230_1998)" stroke-width="2" stroke-miterlimit="10" stroke-linecap="round"/>
<path d="M299.083 118.286C301.095 151.058 301.095 241.553 299.083 274.773" stroke="url(#paint57_linear_230_1998)" stroke-width="2" stroke-miterlimit="10" stroke-linecap="round"/>
<path d="M299.084 267.23C299.084 267.23 299.084 412.05 151.247 412.05" stroke="url(#paint58_linear_230_1998)" stroke-width="2" stroke-miterlimit="10" stroke-linecap="round"/>
<path d="M151.248 412.05C-2.81348 412.05 1.91839 263.648 1.91839 263.648V98.5742" stroke="url(#paint59_linear_230_1998)" stroke-width="2" stroke-miterlimit="10" stroke-linecap="round"/>
<defs>
<linearGradient id="paint0_linear_230_1998" x1="153.508" y1="44.2478" x2="145.129" y2="56.1252" gradientUnits="userSpaceOnUse">
<stop stop-color="#DE9F54"/>
<stop offset="0.163765" stop-color="#FCD074" stop-opacity="0.995122"/>
<stop offset="0.253331" stop-color="#FCD97F" stop-opacity="0.993854"/>
<stop offset="0.452321" stop-color="#D59740" stop-opacity="0.985729"/>
<stop offset="1" stop-color="#ECA15C" stop-opacity="0.98"/>
</linearGradient>
<linearGradient id="paint1_linear_230_1998" x1="153.508" y1="72.5273" x2="145.129" y2="84.4048" gradientUnits="userSpaceOnUse">
<stop stop-color="#DE9F54"/>
<stop offset="0.163765" stop-color="#FCD074" stop-opacity="0.995122"/>
<stop offset="0.253331" stop-color="#FCD97F" stop-opacity="0.993854"/>
<stop offset="0.452321" stop-color="#D59740" stop-opacity="0.985729"/>
<stop offset="1" stop-color="#ECA15C" stop-opacity="0.98"/>
</linearGradient>
<linearGradient id="paint2_linear_230_1998" x1="153.508" y1="101.221" x2="145.129" y2="113.098" gradientUnits="userSpaceOnUse">
<stop stop-color="#DE9F54"/>
<stop offset="0.163765" stop-color="#FCD074" stop-opacity="0.995122"/>
<stop offset="0.253331" stop-color="#FCD97F" stop-opacity="0.993854"/>
<stop offset="0.452321" stop-color="#D59740" stop-opacity="0.985729"/>
<stop offset="1" stop-color="#ECA15C" stop-opacity="0.98"/>
</linearGradient>
<linearGradient id="paint3_linear_230_1998" x1="153.508" y1="129.136" x2="145.129" y2="141.013" gradientUnits="userSpaceOnUse">
<stop stop-color="#DE9F54"/>
<stop offset="0.163765" stop-color="#FCD074" stop-opacity="0.995122"/>
<stop offset="0.253331" stop-color="#FCD97F" stop-opacity="0.993854"/>
<stop offset="0.452321" stop-color="#D59740" stop-opacity="0.985729"/>
<stop offset="1" stop-color="#ECA15C" stop-opacity="0.98"/>
</linearGradient>
<linearGradient id="paint4_linear_230_1998" x1="153.508" y1="157.392" x2="145.129" y2="169.269" gradientUnits="userSpaceOnUse">
<stop stop-color="#DE9F54"/>
<stop offset="0.163765" stop-color="#FCD074" stop-opacity="0.995122"/>
<stop offset="0.253331" stop-color="#FCD97F" stop-opacity="0.993854"/>
<stop offset="0.452321" stop-color="#D59740" stop-opacity="0.985729"/>
<stop offset="1" stop-color="#ECA15C" stop-opacity="0.98"/>
</linearGradient>
<linearGradient id="paint5_linear_230_1998" x1="153.508" y1="183.652" x2="145.129" y2="195.53" gradientUnits="userSpaceOnUse">
<stop stop-color="#DE9F54"/>
<stop offset="0.163765" stop-color="#FCD074" stop-opacity="0.995122"/>
<stop offset="0.253331" stop-color="#FCD97F" stop-opacity="0.993854"/>
<stop offset="0.452321" stop-color="#D59740" stop-opacity="0.985729"/>
<stop offset="1" stop-color="#ECA15C" stop-opacity="0.98"/>
</linearGradient>
<linearGradient id="paint6_linear_230_1998" x1="153.508" y1="211.542" x2="145.129" y2="223.42" gradientUnits="userSpaceOnUse">
<stop stop-color="#DE9F54"/>
<stop offset="0.163765" stop-color="#FCD074" stop-opacity="0.995122"/>
<stop offset="0.253331" stop-color="#FCD97F" stop-opacity="0.993854"/>
<stop offset="0.452321" stop-color="#D59740" stop-opacity="0.985729"/>
<stop offset="1" stop-color="#ECA15C" stop-opacity="0.98"/>
</linearGradient>
<linearGradient id="paint7_linear_230_1998" x1="153.946" y1="239.822" x2="145.567" y2="251.699" gradientUnits="userSpaceOnUse">
<stop stop-color="#DE9F54"/>
<stop offset="0.163765" stop-color="#FCD074" stop-opacity="0.995122"/>
<stop offset="0.253331" stop-color="#FCD97F" stop-opacity="0.993854"/>
<stop offset="0.452321" stop-color="#D59740" stop-opacity="0.985729"/>
<stop offset="1" stop-color="#ECA15C" stop-opacity="0.98"/>
</linearGradient>
<linearGradient id="paint8_linear_230_1998" x1="134.619" y1="11.061" x2="132.443" y2="11.0734" gradientUnits="userSpaceOnUse">
<stop stop-color="#DE9F54"/>
<stop offset="0.163765" stop-color="#FCD074" stop-opacity="0.995122"/>
<stop offset="0.253331" stop-color="#FCD97F" stop-opacity="0.993854"/>
<stop offset="0.452321" stop-color="#D59740" stop-opacity="0.985729"/>
<stop offset="1" stop-color="#ECA15C" stop-opacity="0.98"/>
</linearGradient>
<linearGradient id="paint9_linear_230_1998" x1="170.644" y1="31.7595" x2="168.468" y2="31.773" gradientUnits="userSpaceOnUse">
<stop stop-color="#DE9F54"/>
<stop offset="0.163765" stop-color="#FCD074" stop-opacity="0.995122"/>
<stop offset="0.253331" stop-color="#FCD97F" stop-opacity="0.993854"/>
<stop offset="0.452321" stop-color="#D59740" stop-opacity="0.985729"/>
<stop offset="1" stop-color="#ECA15C" stop-opacity="0.98"/>
</linearGradient>
<linearGradient id="paint10_linear_230_1998" x1="145.639" y1="258.148" x2="133.218" y2="276.15" gradientUnits="userSpaceOnUse">
<stop stop-color="#DE9F54"/>
<stop offset="0.163765" stop-color="#FCD074" stop-opacity="0.995122"/>
<stop offset="0.253331" stop-color="#FCD97F" stop-opacity="0.993854"/>
<stop offset="0.452321" stop-color="#D59740" stop-opacity="0.985729"/>
<stop offset="1" stop-color="#ECA15C" stop-opacity="0.98"/>
</linearGradient>
<linearGradient id="paint11_linear_230_1998" x1="163.358" y1="257.759" x2="150.561" y2="275.901" gradientUnits="userSpaceOnUse">
<stop stop-color="#DE9F54"/>
<stop offset="0.163765" stop-color="#FCD074" stop-opacity="0.995122"/>
<stop offset="0.253331" stop-color="#FCD97F" stop-opacity="0.993854"/>
<stop offset="0.452321" stop-color="#D59740" stop-opacity="0.985729"/>
<stop offset="1" stop-color="#ECA15C" stop-opacity="0.98"/>
</linearGradient>
<linearGradient id="paint12_linear_230_1998" x1="123.832" y1="1" x2="123.117" y2="1.00128" gradientUnits="userSpaceOnUse">
<stop stop-color="#DE9F54"/>
<stop offset="0.163765" stop-color="#FCD074" stop-opacity="0.995122"/>
<stop offset="0.253331" stop-color="#FCD97F" stop-opacity="0.993854"/>
<stop offset="0.452321" stop-color="#D59740" stop-opacity="0.985729"/>
<stop offset="1" stop-color="#ECA15C" stop-opacity="0.98"/>
</linearGradient>
<linearGradient id="paint13_linear_230_1998" x1="180.272" y1="1" x2="178.365" y2="1.00905" gradientUnits="userSpaceOnUse">
<stop stop-color="#DE9F54"/>
<stop offset="0.163765" stop-color="#FCD074" stop-opacity="0.995122"/>
<stop offset="0.253331" stop-color="#FCD97F" stop-opacity="0.993854"/>
<stop offset="0.452321" stop-color="#D59740" stop-opacity="0.985729"/>
<stop offset="1" stop-color="#ECA15C" stop-opacity="0.98"/>
</linearGradient>
<linearGradient id="paint14_linear_230_1998" x1="142.139" y1="260.752" x2="122.479" y2="289.288" gradientUnits="userSpaceOnUse">
<stop stop-color="#DE9F54"/>
<stop offset="0.163765" stop-color="#FCD074" stop-opacity="0.995122"/>
<stop offset="0.253331" stop-color="#FCD97F" stop-opacity="0.993854"/>
<stop offset="0.452321" stop-color="#D59740" stop-opacity="0.985729"/>
<stop offset="1" stop-color="#ECA15C" stop-opacity="0.98"/>
</linearGradient>
<linearGradient id="paint15_linear_230_1998" x1="170.16" y1="260.12" x2="149.864" y2="288.892" gradientUnits="userSpaceOnUse">
<stop stop-color="#DE9F54"/>
<stop offset="0.163765" stop-color="#FCD074" stop-opacity="0.995122"/>
<stop offset="0.253331" stop-color="#FCD97F" stop-opacity="0.993854"/>
<stop offset="0.452321" stop-color="#D59740" stop-opacity="0.985729"/>
<stop offset="1" stop-color="#ECA15C" stop-opacity="0.98"/>
</linearGradient>
<linearGradient id="paint16_linear_230_1998" x1="111.83" y1="31.76" x2="111.631" y2="31.7601" gradientUnits="userSpaceOnUse">
<stop stop-color="#DE9F54"/>
<stop offset="0.163765" stop-color="#FCD074" stop-opacity="0.995122"/>
<stop offset="0.253331" stop-color="#FCD97F" stop-opacity="0.993854"/>
<stop offset="0.452321" stop-color="#D59740" stop-opacity="0.985729"/>
<stop offset="1" stop-color="#ECA15C" stop-opacity="0.98"/>
</linearGradient>
<linearGradient id="paint17_linear_230_1998" x1="191.267" y1="49.7874" x2="190.115" y2="49.7913" gradientUnits="userSpaceOnUse">
<stop stop-color="#DE9F54"/>
<stop offset="0.163765" stop-color="#FCD074" stop-opacity="0.995122"/>
<stop offset="0.253331" stop-color="#FCD97F" stop-opacity="0.993854"/>
<stop offset="0.452321" stop-color="#D59740" stop-opacity="0.985729"/>
<stop offset="1" stop-color="#ECA15C" stop-opacity="0.98"/>
</linearGradient>
<linearGradient id="paint18_linear_230_1998" x1="138.134" y1="264.452" x2="110.202" y2="304.937" gradientUnits="userSpaceOnUse">
<stop stop-color="#DE9F54"/>
<stop offset="0.163765" stop-color="#FCD074" stop-opacity="0.995122"/>
<stop offset="0.253331" stop-color="#FCD97F" stop-opacity="0.993854"/>
<stop offset="0.452321" stop-color="#D59740" stop-opacity="0.985729"/>
<stop offset="1" stop-color="#ECA15C" stop-opacity="0.98"/>
</linearGradient>
<linearGradient id="paint19_linear_230_1998" x1="177.928" y1="263.551" x2="149.147" y2="304.351" gradientUnits="userSpaceOnUse">
<stop stop-color="#DE9F54"/>
<stop offset="0.163765" stop-color="#FCD074" stop-opacity="0.995122"/>
<stop offset="0.253331" stop-color="#FCD97F" stop-opacity="0.993854"/>
<stop offset="0.452321" stop-color="#D59740" stop-opacity="0.985729"/>
<stop offset="1" stop-color="#ECA15C" stop-opacity="0.98"/>
</linearGradient>
<linearGradient id="paint20_linear_230_1998" x1="99.2793" y1="16.4031" x2="99.0409" y2="16.4032" gradientUnits="userSpaceOnUse">
<stop stop-color="#DE9F54"/>
<stop offset="0.163765" stop-color="#FCD074" stop-opacity="0.995122"/>
<stop offset="0.253331" stop-color="#FCD97F" stop-opacity="0.993854"/>
<stop offset="0.452321" stop-color="#D59740" stop-opacity="0.985729"/>
<stop offset="1" stop-color="#ECA15C" stop-opacity="0.98"/>
</linearGradient>
<linearGradient id="paint21_linear_230_1998" x1="203.917" y1="15.7351" x2="203.038" y2="15.7378" gradientUnits="userSpaceOnUse">
<stop stop-color="#DE9F54"/>
<stop offset="0.163765" stop-color="#FCD074" stop-opacity="0.995122"/>
<stop offset="0.253331" stop-color="#FCD97F" stop-opacity="0.993854"/>
<stop offset="0.452321" stop-color="#D59740" stop-opacity="0.985729"/>
<stop offset="1" stop-color="#ECA15C" stop-opacity="0.98"/>
</linearGradient>
<linearGradient id="paint22_linear_230_1998" x1="133.812" y1="267.202" x2="97.0262" y2="320.533" gradientUnits="userSpaceOnUse">
<stop stop-color="#DE9F54"/>
<stop offset="0.163765" stop-color="#FCD074" stop-opacity="0.995122"/>
<stop offset="0.253331" stop-color="#FCD97F" stop-opacity="0.993854"/>
<stop offset="0.452321" stop-color="#D59740" stop-opacity="0.985729"/>
<stop offset="1" stop-color="#ECA15C" stop-opacity="0.98"/>
</linearGradient>
<linearGradient id="paint23_linear_230_1998" x1="186.243" y1="201.71" x2="105.034" y2="253.405" gradientUnits="userSpaceOnUse">
<stop stop-color="#DE9F54"/>
<stop offset="0.163765" stop-color="#FCD074" stop-opacity="0.995122"/>
<stop offset="0.253331" stop-color="#FCD97F" stop-opacity="0.993854"/>
<stop offset="0.452321" stop-color="#D59740" stop-opacity="0.985729"/>
<stop offset="1" stop-color="#ECA15C" stop-opacity="0.98"/>
</linearGradient>
<linearGradient id="paint24_linear_230_1998" x1="85.329" y1="37.7695" x2="83.5809" y2="37.778" gradientUnits="userSpaceOnUse">
<stop stop-color="#DE9F54"/>
<stop offset="0.163765" stop-color="#FCD074" stop-opacity="0.995122"/>
<stop offset="0.253331" stop-color="#FCD97F" stop-opacity="0.993854"/>
<stop offset="0.452321" stop-color="#D59740" stop-opacity="0.985729"/>
<stop offset="1" stop-color="#ECA15C" stop-opacity="0.98"/>
</linearGradient>
<linearGradient id="paint25_linear_230_1998" x1="218.365" y1="266.593" x2="216.265" y2="266.994" gradientUnits="userSpaceOnUse">
<stop stop-color="#DE9F54"/>
<stop offset="0.163765" stop-color="#FCD074" stop-opacity="0.995122"/>
<stop offset="0.253331" stop-color="#FCD97F" stop-opacity="0.993854"/>
<stop offset="0.452321" stop-color="#D59740" stop-opacity="0.985729"/>
<stop offset="1" stop-color="#ECA15C" stop-opacity="0.98"/>
</linearGradient>
<linearGradient id="paint26_linear_230_1998" x1="218.719" y1="23.7471" x2="216.542" y2="23.7651" gradientUnits="userSpaceOnUse">
<stop stop-color="#DE9F54"/>
<stop offset="0.163765" stop-color="#FCD074" stop-opacity="0.995122"/>
<stop offset="0.253331" stop-color="#FCD97F" stop-opacity="0.993854"/>
<stop offset="0.452321" stop-color="#D59740" stop-opacity="0.985729"/>
<stop offset="1" stop-color="#ECA15C" stop-opacity="0.98"/>
</linearGradient>
<linearGradient id="paint27_linear_230_1998" x1="129.205" y1="270.171" x2="82.868" y2="337.363" gradientUnits="userSpaceOnUse">
<stop stop-color="#DE9F54"/>
<stop offset="0.163765" stop-color="#FCD074" stop-opacity="0.995122"/>
<stop offset="0.253331" stop-color="#FCD97F" stop-opacity="0.993854"/>
<stop offset="0.452321" stop-color="#D59740" stop-opacity="0.985729"/>
<stop offset="1" stop-color="#ECA15C" stop-opacity="0.98"/>
</linearGradient>
<linearGradient id="paint28_linear_230_1998" x1="195.241" y1="194.409" x2="95.7523" y2="260.794" gradientUnits="userSpaceOnUse">
<stop stop-color="#DE9F54"/>
<stop offset="0.163765" stop-color="#FCD074" stop-opacity="0.995122"/>
<stop offset="0.253331" stop-color="#FCD97F" stop-opacity="0.993854"/>
<stop offset="0.452321" stop-color="#D59740" stop-opacity="0.985729"/>
<stop offset="1" stop-color="#ECA15C" stop-opacity="0.98"/>
</linearGradient>
<linearGradient id="paint29_linear_230_1998" x1="64.3331" y1="61.1865" x2="57.186" y2="71.3173" gradientUnits="userSpaceOnUse">
<stop stop-color="#DE9F54"/>
<stop offset="0.163765" stop-color="#FCD074" stop-opacity="0.995122"/>
<stop offset="0.253331" stop-color="#FCD97F" stop-opacity="0.993854"/>
<stop offset="0.452321" stop-color="#D59740" stop-opacity="0.985729"/>
<stop offset="1" stop-color="#ECA15C" stop-opacity="0.98"/>
</linearGradient>
<linearGradient id="paint30_linear_230_1998" x1="64.3331" y1="88.9551" x2="57.186" y2="99.0858" gradientUnits="userSpaceOnUse">
<stop stop-color="#DE9F54"/>
<stop offset="0.163765" stop-color="#FCD074" stop-opacity="0.995122"/>
<stop offset="0.253331" stop-color="#FCD97F" stop-opacity="0.993854"/>
<stop offset="0.452321" stop-color="#D59740" stop-opacity="0.985729"/>
<stop offset="1" stop-color="#ECA15C" stop-opacity="0.98"/>
</linearGradient>
<linearGradient id="paint31_linear_230_1998" x1="64.3331" y1="121.007" x2="57.186" y2="131.138" gradientUnits="userSpaceOnUse">
<stop stop-color="#DE9F54"/>
<stop offset="0.163765" stop-color="#FCD074" stop-opacity="0.995122"/>
<stop offset="0.253331" stop-color="#FCD97F" stop-opacity="0.993854"/>
<stop offset="0.452321" stop-color="#D59740" stop-opacity="0.985729"/>
<stop offset="1" stop-color="#ECA15C" stop-opacity="0.98"/>
</linearGradient>
<linearGradient id="paint32_linear_230_1998" x1="64.3331" y1="156.491" x2="57.186" y2="166.622" gradientUnits="userSpaceOnUse">
<stop stop-color="#DE9F54"/>
<stop offset="0.163765" stop-color="#FCD074" stop-opacity="0.995122"/>
<stop offset="0.253331" stop-color="#FCD97F" stop-opacity="0.993854"/>
<stop offset="0.452321" stop-color="#D59740" stop-opacity="0.985729"/>
<stop offset="1" stop-color="#ECA15C" stop-opacity="0.98"/>
</linearGradient>
<linearGradient id="paint33_linear_230_1998" x1="64.3331" y1="189.541" x2="57.186" y2="199.672" gradientUnits="userSpaceOnUse">
<stop stop-color="#DE9F54"/>
<stop offset="0.163765" stop-color="#FCD074" stop-opacity="0.995122"/>
<stop offset="0.253331" stop-color="#FCD97F" stop-opacity="0.993854"/>
<stop offset="0.452321" stop-color="#D59740" stop-opacity="0.985729"/>
<stop offset="1" stop-color="#ECA15C" stop-opacity="0.98"/>
</linearGradient>
<linearGradient id="paint34_linear_230_1998" x1="64.3331" y1="219.086" x2="57.1861" y2="229.217" gradientUnits="userSpaceOnUse">
<stop stop-color="#DE9F54"/>
<stop offset="0.163765" stop-color="#FCD074" stop-opacity="0.995122"/>
<stop offset="0.253331" stop-color="#FCD97F" stop-opacity="0.993854"/>
<stop offset="0.452321" stop-color="#D59740" stop-opacity="0.985729"/>
<stop offset="1" stop-color="#ECA15C" stop-opacity="0.98"/>
</linearGradient>
<linearGradient id="paint35_linear_230_1998" x1="64.3331" y1="251.139" x2="57.186" y2="261.27" gradientUnits="userSpaceOnUse">
<stop stop-color="#DE9F54"/>
<stop offset="0.163765" stop-color="#FCD074" stop-opacity="0.995122"/>
<stop offset="0.253331" stop-color="#FCD97F" stop-opacity="0.993854"/>
<stop offset="0.452321" stop-color="#D59740" stop-opacity="0.985729"/>
<stop offset="1" stop-color="#ECA15C" stop-opacity="0.98"/>
</linearGradient>
<linearGradient id="paint36_linear_230_1998" x1="242.021" y1="31.5684" x2="234.874" y2="41.6991" gradientUnits="userSpaceOnUse">
<stop stop-color="#DE9F54"/>
<stop offset="0.163765" stop-color="#FCD074" stop-opacity="0.995122"/>
<stop offset="0.253331" stop-color="#FCD97F" stop-opacity="0.993854"/>
<stop offset="0.452321" stop-color="#D59740" stop-opacity="0.985729"/>
<stop offset="1" stop-color="#ECA15C" stop-opacity="0.98"/>
</linearGradient>
<linearGradient id="paint37_linear_230_1998" x1="242.021" y1="61.1865" x2="234.874" y2="71.3173" gradientUnits="userSpaceOnUse">
<stop stop-color="#DE9F54"/>
<stop offset="0.163765" stop-color="#FCD074" stop-opacity="0.995122"/>
<stop offset="0.253331" stop-color="#FCD97F" stop-opacity="0.993854"/>
<stop offset="0.452321" stop-color="#D59740" stop-opacity="0.985729"/>
<stop offset="1" stop-color="#ECA15C" stop-opacity="0.98"/>
</linearGradient>
<linearGradient id="paint38_linear_230_1998" x1="242.021" y1="88.9551" x2="234.874" y2="99.0858" gradientUnits="userSpaceOnUse">
<stop stop-color="#DE9F54"/>
<stop offset="0.163765" stop-color="#FCD074" stop-opacity="0.995122"/>
<stop offset="0.253331" stop-color="#FCD97F" stop-opacity="0.993854"/>
<stop offset="0.452321" stop-color="#D59740" stop-opacity="0.985729"/>
<stop offset="1" stop-color="#ECA15C" stop-opacity="0.98"/>
</linearGradient>
<linearGradient id="paint39_linear_230_1998" x1="242.021" y1="121.007" x2="234.874" y2="131.138" gradientUnits="userSpaceOnUse">
<stop stop-color="#DE9F54"/>
<stop offset="0.163765" stop-color="#FCD074" stop-opacity="0.995122"/>
<stop offset="0.253331" stop-color="#FCD97F" stop-opacity="0.993854"/>
<stop offset="0.452321" stop-color="#D59740" stop-opacity="0.985729"/>
<stop offset="1" stop-color="#ECA15C" stop-opacity="0.98"/>
</linearGradient>
<linearGradient id="paint40_linear_230_1998" x1="242.021" y1="156.491" x2="234.874" y2="166.622" gradientUnits="userSpaceOnUse">
<stop stop-color="#DE9F54"/>
<stop offset="0.163765" stop-color="#FCD074" stop-opacity="0.995122"/>
<stop offset="0.253331" stop-color="#FCD97F" stop-opacity="0.993854"/>
<stop offset="0.452321" stop-color="#D59740" stop-opacity="0.985729"/>
<stop offset="1" stop-color="#ECA15C" stop-opacity="0.98"/>
</linearGradient>
<linearGradient id="paint41_linear_230_1998" x1="242.021" y1="223.614" x2="234.874" y2="233.744" gradientUnits="userSpaceOnUse">
<stop stop-color="#DE9F54"/>
<stop offset="0.163765" stop-color="#FCD074" stop-opacity="0.995122"/>
<stop offset="0.253331" stop-color="#FCD97F" stop-opacity="0.993854"/>
<stop offset="0.452321" stop-color="#D59740" stop-opacity="0.985729"/>
<stop offset="1" stop-color="#ECA15C" stop-opacity="0.98"/>
</linearGradient>
<linearGradient id="paint42_linear_230_1998" x1="242.021" y1="189.541" x2="234.874" y2="199.672" gradientUnits="userSpaceOnUse">
<stop stop-color="#DE9F54"/>
<stop offset="0.163765" stop-color="#FCD074" stop-opacity="0.995122"/>
<stop offset="0.253331" stop-color="#FCD97F" stop-opacity="0.993854"/>
<stop offset="0.452321" stop-color="#D59740" stop-opacity="0.985729"/>
<stop offset="1" stop-color="#ECA15C" stop-opacity="0.98"/>
</linearGradient>
<linearGradient id="paint43_linear_230_1998" x1="242.021" y1="250.385" x2="234.874" y2="260.516" gradientUnits="userSpaceOnUse">
<stop stop-color="#DE9F54"/>
<stop offset="0.163765" stop-color="#FCD074" stop-opacity="0.995122"/>
<stop offset="0.253331" stop-color="#FCD97F" stop-opacity="0.993854"/>
<stop offset="0.452321" stop-color="#D59740" stop-opacity="0.985729"/>
<stop offset="1" stop-color="#ECA15C" stop-opacity="0.98"/>
</linearGradient>
<linearGradient id="paint44_linear_230_1998" x1="153.679" y1="350.825" x2="146.532" y2="360.956" gradientUnits="userSpaceOnUse">
<stop stop-color="#DE9F54"/>
<stop offset="0.163765" stop-color="#FCD074" stop-opacity="0.995122"/>
<stop offset="0.253331" stop-color="#FCD97F" stop-opacity="0.993854"/>
<stop offset="0.452321" stop-color="#D59740" stop-opacity="0.985729"/>
<stop offset="1" stop-color="#ECA15C" stop-opacity="0.98"/>
</linearGradient>
<linearGradient id="paint45_linear_230_1998" x1="181.712" y1="345.86" x2="174.565" y2="355.99" gradientUnits="userSpaceOnUse">
<stop stop-color="#DE9F54"/>
<stop offset="0.163765" stop-color="#FCD074" stop-opacity="0.995122"/>
<stop offset="0.253331" stop-color="#FCD97F" stop-opacity="0.993854"/>
<stop offset="0.452321" stop-color="#D59740" stop-opacity="0.985729"/>
<stop offset="1" stop-color="#ECA15C" stop-opacity="0.98"/>
</linearGradient>
<linearGradient id="paint46_linear_230_1998" x1="123.716" y1="345.86" x2="116.569" y2="355.991" gradientUnits="userSpaceOnUse">
<stop stop-color="#DE9F54"/>
<stop offset="0.163765" stop-color="#FCD074" stop-opacity="0.995122"/>
<stop offset="0.253331" stop-color="#FCD97F" stop-opacity="0.993854"/>
<stop offset="0.452321" stop-color="#D59740" stop-opacity="0.985729"/>
<stop offset="1" stop-color="#ECA15C" stop-opacity="0.98"/>
</linearGradient>
<linearGradient id="paint47_linear_230_1998" x1="209.872" y1="332.596" x2="202.725" y2="342.727" gradientUnits="userSpaceOnUse">
<stop stop-color="#DE9F54"/>
<stop offset="0.163765" stop-color="#FCD074" stop-opacity="0.995122"/>
<stop offset="0.253331" stop-color="#FCD97F" stop-opacity="0.993854"/>
<stop offset="0.452321" stop-color="#D59740" stop-opacity="0.985729"/>
<stop offset="1" stop-color="#ECA15C" stop-opacity="0.98"/>
</linearGradient>
<linearGradient id="paint48_linear_230_1998" x1="97.3155" y1="332.596" x2="90.1685" y2="342.727" gradientUnits="userSpaceOnUse">
<stop stop-color="#DE9F54"/>
<stop offset="0.163765" stop-color="#FCD074" stop-opacity="0.995122"/>
<stop offset="0.253331" stop-color="#FCD97F" stop-opacity="0.993854"/>
<stop offset="0.452321" stop-color="#D59740" stop-opacity="0.985729"/>
<stop offset="1" stop-color="#ECA15C" stop-opacity="0.98"/>
</linearGradient>
<linearGradient id="paint49_linear_230_1998" x1="227.88" y1="310.449" x2="220.733" y2="320.58" gradientUnits="userSpaceOnUse">
<stop stop-color="#DE9F54"/>
<stop offset="0.163765" stop-color="#FCD074" stop-opacity="0.995122"/>
<stop offset="0.253331" stop-color="#FCD97F" stop-opacity="0.993854"/>
<stop offset="0.452321" stop-color="#D59740" stop-opacity="0.985729"/>
<stop offset="1" stop-color="#ECA15C" stop-opacity="0.98"/>
</linearGradient>
<linearGradient id="paint50_linear_230_1998" x1="238.825" y1="281.592" x2="231.195" y2="292.407" gradientUnits="userSpaceOnUse">
<stop stop-color="#DE9F54"/>
<stop offset="0.163765" stop-color="#FCD074" stop-opacity="0.995122"/>
<stop offset="0.253331" stop-color="#FCD97F" stop-opacity="0.993854"/>
<stop offset="0.452321" stop-color="#D59740" stop-opacity="0.985729"/>
<stop offset="1" stop-color="#ECA15C" stop-opacity="0.98"/>
</linearGradient>
<linearGradient id="paint51_linear_230_1998" x1="79.3975" y1="310.449" x2="72.2505" y2="320.579" gradientUnits="userSpaceOnUse">
<stop stop-color="#DE9F54"/>
<stop offset="0.163765" stop-color="#FCD074" stop-opacity="0.995122"/>
<stop offset="0.253331" stop-color="#FCD97F" stop-opacity="0.993854"/>
<stop offset="0.452321" stop-color="#D59740" stop-opacity="0.985729"/>
<stop offset="1" stop-color="#ECA15C" stop-opacity="0.98"/>
</linearGradient>
<linearGradient id="paint52_linear_230_1998" x1="70.2686" y1="282.364" x2="63.1216" y2="292.495" gradientUnits="userSpaceOnUse">
<stop stop-color="#DE9F54"/>
<stop offset="0.163765" stop-color="#FCD074" stop-opacity="0.995122"/>
<stop offset="0.253331" stop-color="#FCD97F" stop-opacity="0.993854"/>
<stop offset="0.452321" stop-color="#D59740" stop-opacity="0.985729"/>
<stop offset="1" stop-color="#ECA15C" stop-opacity="0.98"/>
</linearGradient>
<linearGradient id="paint53_linear_230_1998" x1="172.654" y1="97.4818" x2="81.4501" y2="107.464" gradientUnits="userSpaceOnUse">
<stop stop-color="#DE9F54"/>
<stop offset="0.163765" stop-color="#FCD074" stop-opacity="0.995122"/>
<stop offset="0.253331" stop-color="#FCD97F" stop-opacity="0.993854"/>
<stop offset="0.452321" stop-color="#D59740" stop-opacity="0.985729"/>
<stop offset="1" stop-color="#ECA15C" stop-opacity="0.98"/>
</linearGradient>
<linearGradient id="paint54_linear_230_1998" x1="20.7141" y1="135.971" x2="17.8254" y2="136.01" gradientUnits="userSpaceOnUse">
<stop stop-color="#DE9F54"/>
<stop offset="0.163765" stop-color="#FCD074" stop-opacity="0.995122"/>
<stop offset="0.253331" stop-color="#FCD97F" stop-opacity="0.993854"/>
<stop offset="0.452321" stop-color="#D59740" stop-opacity="0.985729"/>
<stop offset="1" stop-color="#ECA15C" stop-opacity="0.98"/>
</linearGradient>
<linearGradient id="paint55_linear_230_1998" x1="107.037" y1="267.031" x2="15.517" y2="399.461" gradientUnits="userSpaceOnUse">
<stop stop-color="#DE9F54"/>
<stop offset="0.163765" stop-color="#FCD074" stop-opacity="0.995122"/>
<stop offset="0.253331" stop-color="#FCD97F" stop-opacity="0.993854"/>
<stop offset="0.452321" stop-color="#D59740" stop-opacity="0.985729"/>
<stop offset="1" stop-color="#ECA15C" stop-opacity="0.98"/>
</linearGradient>
<linearGradient id="paint56_linear_230_1998" x1="237.997" y1="74.8398" x2="24.4818" y2="199.276" gradientUnits="userSpaceOnUse">
<stop stop-color="#DE9F54"/>
<stop offset="0.163765" stop-color="#FCD074" stop-opacity="0.995122"/>
<stop offset="0.253331" stop-color="#FCD97F" stop-opacity="0.993854"/>
<stop offset="0.452321" stop-color="#D59740" stop-opacity="0.985729"/>
<stop offset="1" stop-color="#ECA15C" stop-opacity="0.98"/>
</linearGradient>
<linearGradient id="paint57_linear_230_1998" x1="299.596" y1="118.286" x2="302.879" y2="118.331" gradientUnits="userSpaceOnUse">
<stop stop-color="#DE9F54"/>
<stop offset="0.163765" stop-color="#FCD074" stop-opacity="0.995122"/>
<stop offset="0.253331" stop-color="#FCD97F" stop-opacity="0.993854"/>
<stop offset="0.452321" stop-color="#D59740" stop-opacity="0.985729"/>
<stop offset="1" stop-color="#ECA15C" stop-opacity="0.98"/>
</linearGradient>
<linearGradient id="paint58_linear_230_1998" x1="201.495" y1="267.23" x2="305.504" y2="417.732" gradientUnits="userSpaceOnUse">
<stop stop-color="#DE9F54"/>
<stop offset="0.163765" stop-color="#FCD074" stop-opacity="0.995122"/>
<stop offset="0.253331" stop-color="#FCD97F" stop-opacity="0.993854"/>
<stop offset="0.452321" stop-color="#D59740" stop-opacity="0.985729"/>
<stop offset="1" stop-color="#ECA15C" stop-opacity="0.98"/>
</linearGradient>
<linearGradient id="paint59_linear_230_1998" x1="52.6632" y1="98.5742" x2="275.918" y2="249.341" gradientUnits="userSpaceOnUse">
<stop stop-color="#DE9F54"/>
<stop offset="0.163765" stop-color="#FCD074" stop-opacity="0.995122"/>
<stop offset="0.253331" stop-color="#FCD97F" stop-opacity="0.993854"/>
<stop offset="0.452321" stop-color="#D59740" stop-opacity="0.985729"/>
<stop offset="1" stop-color="#ECA15C" stop-opacity="0.98"/>
</linearGradient>
</defs>
</svg>
