<svg width="90" height="75" viewBox="0 0 90 75" fill="none" xmlns="http://www.w3.org/2000/svg">
<path d="M11.1374 7.48644C11.1374 6.93932 11.0345 5.02166 11.0345 4.62621H12.9413C12.9413 4.95123 12.9901 6.26759 12.9901 6.60887H13.0442C13.1797 6.31635 13.3747 6.03466 13.6239 5.75838C13.8731 5.48211 14.171 5.23834 14.5123 5.02166C14.859 4.81039 15.2436 4.63704 15.6715 4.50703C16.0995 4.37702 16.5654 4.31201 17.0637 4.31201C17.1992 4.31201 17.3346 4.32285 17.4754 4.3391C17.6109 4.35535 17.7463 4.38785 17.8871 4.44202L17.7571 6.47344C17.4159 6.37052 17.0529 6.31635 16.6791 6.31635C15.444 6.31635 14.5448 6.71721 13.9868 7.51353C13.4289 8.30985 13.1526 9.40411 13.1526 10.7963V16.663H11.1428V7.47561L11.1374 7.48644Z" fill="url(#paint0_linear_0_1809)"/>
<path d="M19.6857 10.6556C19.6857 9.71303 19.8482 8.85713 20.1786 8.08248C20.5037 7.31325 20.9479 6.64694 21.5167 6.08898C22.0855 5.53102 22.7626 5.09765 23.5535 4.78887C24.3444 4.48009 25.2003 4.323 26.1266 4.323C27.053 4.323 27.9143 4.47468 28.6998 4.78887C29.4907 5.09765 30.1678 5.53102 30.7366 6.08898C31.3 6.64694 31.7496 7.31325 32.0746 8.08248C32.3997 8.85713 32.5622 9.71303 32.5622 10.6556C32.5622 11.5982 32.3997 12.4595 32.0746 13.2287C31.7442 14.0034 31.3 14.6643 30.7366 15.2222C30.1678 15.7802 29.4907 16.2136 28.6998 16.5224C27.9089 16.8311 27.053 16.9828 26.1266 16.9828C25.2003 16.9828 24.3444 16.8311 23.5535 16.5224C22.7626 16.2136 22.0855 15.7802 21.5167 15.2222C20.9533 14.6643 20.5091 13.998 20.1786 13.2287C19.8482 12.4541 19.6857 11.5982 19.6857 10.6556ZM21.8471 10.6556C21.8471 11.2894 21.9446 11.8799 22.145 12.4216C22.3455 12.9633 22.6272 13.4346 23.0118 13.8355C23.3856 14.2363 23.8352 14.5559 24.3606 14.7889C24.8861 15.0218 25.4712 15.1356 26.1212 15.1356C26.7713 15.1356 27.3617 15.0218 27.8818 14.7889C28.4072 14.5559 28.8569 14.2417 29.2361 13.8355C29.6153 13.4346 29.8969 12.9579 30.0974 12.4216C30.2978 11.8799 30.3899 11.2948 30.3899 10.6556C30.3899 10.0164 30.2924 9.43134 30.0974 8.88963C29.8969 8.34792 29.6098 7.87663 29.2361 7.47576C28.8569 7.0749 28.4072 6.75529 27.8818 6.52235C27.3617 6.28941 26.7713 6.17565 26.1212 6.17565C25.4712 6.17565 24.8807 6.28941 24.3606 6.52235C23.8352 6.75529 23.3856 7.06948 23.0118 7.47576C22.6326 7.87663 22.3455 8.35334 22.145 8.88963C21.9446 9.43134 21.8471 10.0164 21.8471 10.6556Z" fill="url(#paint1_linear_0_1809)"/>
<path d="M40.9045 17.2153C40.6987 17.7299 40.4874 18.1958 40.2761 18.6184C40.0594 19.0409 39.8048 19.3984 39.5015 19.7018C39.2035 19.9997 38.8406 20.2327 38.4235 20.3952C38.0009 20.5577 37.4917 20.6389 36.8904 20.6389H35.3357V18.7863C35.3357 18.7863 36.4679 18.7863 36.7604 18.7863C37.4159 18.7863 37.8926 18.6075 38.2014 18.2446C38.5101 17.8816 38.7756 17.4049 38.9977 16.8036L39.0139 16.7549L34.0193 4.63135H36.365L40.0974 14.0788H40.1461L43.7268 4.63135H45.9099L40.9045 17.2153Z" fill="url(#paint2_linear_0_1809)"/>
<path d="M47.9198 6.17565C48.5373 5.54185 49.2686 5.07056 50.1191 4.77262C50.9696 4.47468 51.8309 4.323 52.7031 4.323C54.4907 4.323 55.7746 4.74553 56.5655 5.58519C57.3564 6.42484 57.7464 7.70328 57.7464 9.42051V14.5939C57.7464 14.9351 57.7627 15.2927 57.8006 15.661C57.8331 16.0294 57.8765 16.3707 57.9306 16.6795H56.0021C55.9317 16.4032 55.8938 16.0998 55.8884 15.764C55.8775 15.4281 55.8721 15.1356 55.8721 14.8756H55.8234C55.4279 15.4931 54.9024 16.0023 54.2361 16.3923C53.5753 16.7878 52.7844 16.9828 51.858 16.9828C51.2405 16.9828 50.6608 16.907 50.1191 16.7499C49.5774 16.5928 49.1061 16.3653 48.7053 16.0673C48.3044 15.7694 47.9794 15.3956 47.741 14.946C47.5027 14.5018 47.3835 13.9871 47.3835 13.4021C47.3835 12.4053 47.6435 11.6253 48.1581 11.0619C48.6728 10.4931 49.312 10.076 50.0758 9.79971C50.8396 9.52343 51.663 9.3555 52.546 9.28508C53.4344 9.21466 54.2416 9.18216 54.9783 9.18216H55.7475V8.81921C55.7475 7.94163 55.4875 7.28075 54.962 6.83654C54.4366 6.39234 53.7053 6.17024 52.7627 6.17024C52.1072 6.17024 51.468 6.27858 50.845 6.48985C50.2166 6.70653 49.6641 7.03698 49.182 7.48118L47.9198 6.17024V6.17565ZM53.7378 10.8831C52.4539 10.8831 51.4301 11.0619 50.6771 11.4248C49.9241 11.7878 49.5449 12.3783 49.5449 13.2017C49.5449 13.9546 49.7995 14.4909 50.3033 14.8105C50.8071 15.1302 51.4409 15.2872 52.1939 15.2872C52.7735 15.2872 53.2881 15.1897 53.7215 14.9893C54.1603 14.7943 54.5233 14.5289 54.8158 14.2038C55.1137 13.8788 55.3304 13.4942 55.4875 13.0608C55.6446 12.622 55.7313 12.1562 55.7421 11.6578V10.8885H53.7378V10.8831Z" fill="url(#paint3_linear_0_1809)"/>
<path d="M63.6239 0H61.6141V16.6739H63.6239V0Z" fill="url(#paint4_linear_0_1809)"/>
<path d="M78.3693 14.4907C77.6489 15.4171 76.858 16.0671 76.0021 16.4355C75.1462 16.8038 74.1494 16.988 73.0172 16.988C72.0746 16.988 71.2242 16.8201 70.4712 16.4842C69.7128 16.1484 69.0736 15.6988 68.5535 15.1354C68.0281 14.5666 67.6272 13.9003 67.3401 13.1256C67.0584 12.351 66.9175 11.5276 66.9175 10.6554C66.9175 9.72908 67.0692 8.8786 67.3834 8.09311C67.6922 7.31305 68.1201 6.64133 68.6673 6.08336C69.2198 5.5254 69.8699 5.09203 70.6283 4.78325C71.3867 4.47448 72.2047 4.31738 73.0985 4.31738C73.9381 4.31738 74.7128 4.45823 75.417 4.73992C76.1212 5.02161 76.7279 5.43331 77.2317 5.97502C77.7409 6.51673 78.131 7.17762 78.4018 7.95769C78.6727 8.73775 78.8135 9.62616 78.8135 10.6229V11.2675H69.0844C69.1169 11.7822 69.2415 12.2751 69.4582 12.7464C69.6749 13.2177 69.9511 13.6294 70.2924 13.9815C70.6391 14.3336 71.04 14.6099 71.5004 14.8158C71.9609 15.0216 72.4701 15.1245 73.0172 15.1245C73.8894 15.1245 74.6315 14.9729 75.2328 14.6641C75.8341 14.3553 76.3758 13.9003 76.8525 13.299L78.3747 14.4853L78.3693 14.4907ZM76.6467 9.57199C76.6142 8.54274 76.2783 7.71933 75.6391 7.10178C75.0053 6.48423 74.1277 6.17545 73.0172 6.17545C71.9067 6.17545 71.0021 6.48423 70.3141 7.10178C69.6261 7.71933 69.2144 8.54274 69.079 9.57199H76.6467Z" fill="url(#paint5_linear_0_1809)"/>
<path d="M27.3021 1.18091C27.3021 1.79847 26.8038 2.30226 26.1808 2.30226C25.5578 2.30226 25.0594 1.79847 25.0594 1.18091C25.0594 0.563362 25.5632 0.0595703 26.1808 0.0595703C26.7983 0.0595703 27.3021 0.563362 27.3021 1.18091Z" fill="url(#paint6_linear_0_1809)"/>
<path d="M30.8017 1.18091C30.8017 1.79847 30.2979 2.30226 29.6804 2.30226C29.0628 2.30226 28.559 1.79847 28.559 1.18091C28.559 0.563362 29.0628 0.0595703 29.6804 0.0595703C30.2979 0.0595703 30.8017 0.563362 30.8017 1.18091Z" fill="url(#paint7_linear_0_1809)"/>
<path d="M23.8081 1.18091C23.8081 1.79847 23.3043 2.30226 22.6868 2.30226C22.0692 2.30226 21.5654 1.79847 21.5654 1.18091C21.5654 0.563362 22.0638 0.0595703 22.6868 0.0595703C23.3097 0.0595703 23.8081 0.563362 23.8081 1.18091Z" fill="url(#paint8_linear_0_1809)"/>
<path d="M7.6543 27.9576V23.7268H8.3206V27.3671H10.5904V27.9576H7.6543Z" fill="url(#paint9_linear_0_1809)"/>
<path d="M13.8298 27.3834C14.0519 27.3834 14.2361 27.34 14.3824 27.2534C14.5286 27.1667 14.6478 27.0529 14.7345 26.9121C14.8211 26.7712 14.8862 26.6087 14.9241 26.4299C14.962 26.2512 14.9782 26.0616 14.9782 25.872V23.7268H15.65V25.872C15.65 26.1645 15.6175 26.4354 15.547 26.69C15.482 26.9446 15.3737 27.1721 15.2274 27.3617C15.0812 27.5567 14.8916 27.7084 14.6586 27.8167C14.4257 27.9305 14.1494 27.9847 13.819 27.9847C13.4885 27.9847 13.196 27.9251 12.9631 27.8113C12.7301 27.6921 12.5405 27.535 12.3997 27.34C12.2588 27.145 12.1505 26.9175 12.0909 26.6629C12.0259 26.4083 11.9934 26.1428 11.9934 25.872V23.7268H12.6597V25.872C12.6597 26.067 12.676 26.2566 12.7139 26.4354C12.7518 26.6141 12.8168 26.7766 12.9035 26.9175C12.9956 27.0583 13.1093 27.1721 13.261 27.2588C13.4127 27.3454 13.5915 27.3888 13.8136 27.3888L13.8298 27.3834Z" fill="url(#paint10_linear_0_1809)"/>
<path d="M18.0009 23.7268L19.1765 25.3953L20.352 23.7268H21.0833L19.534 25.872L21.0345 27.9576H20.3032L19.1765 26.3487L18.0497 27.9576H17.313L18.8189 25.872L17.2642 23.7268H18.0009Z" fill="url(#paint11_linear_0_1809)"/>
<path d="M24.5124 27.3834C24.7345 27.3834 24.9187 27.34 25.0649 27.2534C25.2112 27.1667 25.3304 27.0529 25.417 26.9121C25.5037 26.7712 25.5687 26.6087 25.6066 26.4299C25.6445 26.2512 25.6608 26.0616 25.6608 25.872V23.7268H26.3325V25.872C26.3325 26.1645 26.3 26.4354 26.2296 26.69C26.1646 26.9446 26.0562 27.1721 25.91 27.3617C25.7637 27.5567 25.5741 27.7084 25.3412 27.8167C25.1083 27.9305 24.832 27.9847 24.5015 27.9847C24.1711 27.9847 23.8786 27.9251 23.6456 27.8113C23.4127 27.6921 23.2231 27.535 23.0822 27.34C22.9414 27.145 22.8331 26.9175 22.7735 26.6629C22.7085 26.4083 22.676 26.1428 22.676 25.872V23.7268H23.3423V25.872C23.3423 26.067 23.3585 26.2566 23.3964 26.4354C23.4344 26.6141 23.4994 26.7766 23.586 26.9175C23.6781 27.0583 23.7919 27.1721 23.9436 27.2588C24.0953 27.3454 24.274 27.3888 24.4961 27.3888L24.5124 27.3834Z" fill="url(#paint12_linear_0_1809)"/>
<path d="M28.4235 27.9576V23.7268H30.2653C30.4549 23.7268 30.6337 23.7647 30.7908 23.846C30.9479 23.9272 31.0887 24.0302 31.2025 24.1602C31.3163 24.2902 31.4084 24.4364 31.4734 24.599C31.5384 24.7615 31.5709 24.9348 31.5709 25.1028C31.5709 25.2436 31.5492 25.3844 31.5113 25.5145C31.4734 25.6445 31.4138 25.7636 31.3434 25.8774C31.2729 25.9912 31.1863 26.0833 31.0833 26.1645C30.9804 26.2458 30.8666 26.3054 30.7421 26.3433L31.7388 27.9522H30.9804L30.0649 26.4787H29.0898V27.9522H28.4235V27.9576ZM29.0898 25.8937H30.2599C30.3574 25.8937 30.4387 25.872 30.52 25.8286C30.5958 25.7853 30.6662 25.7311 30.7204 25.6553C30.7746 25.5795 30.8179 25.4982 30.8504 25.4007C30.8829 25.3032 30.8991 25.2057 30.8991 25.0973C30.8991 24.989 30.8775 24.8915 30.845 24.794C30.8071 24.6965 30.7583 24.6152 30.6933 24.5448C30.6337 24.4744 30.5579 24.4148 30.4766 24.3769C30.3954 24.3389 30.3087 24.3119 30.222 24.3119H29.0898V25.8882V25.8937Z" fill="url(#paint13_linear_0_1809)"/>
<path d="M33.7269 23.7268L34.897 25.8503L36.0779 23.7268H36.8093L35.2275 26.4462V27.9576H34.5612V26.4299L32.9956 23.7268H33.7269Z" fill="url(#paint14_linear_0_1809)"/>
<path d="M43.884 27.3671V27.9576H40.9805V23.7268H43.8299V24.3173H41.6468V25.5199H43.5374V26.0724H41.6468V27.3671H43.8786H43.884Z" fill="url(#paint15_linear_0_1809)"/>
<path d="M49.3283 27.9576V24.9132L48.0715 27.2208H47.7032L46.441 24.9132V27.9576H45.7747V23.7268H46.4897L47.8873 26.3108L49.285 23.7268H50V27.9576H49.3283Z" fill="url(#paint16_linear_0_1809)"/>
<path d="M53.9056 27.3834C54.1277 27.3834 54.3119 27.34 54.4582 27.2534C54.6044 27.1667 54.7236 27.0529 54.8103 26.9121C54.8969 26.7712 54.962 26.6087 54.9999 26.4299C55.0378 26.2512 55.054 26.0616 55.054 25.872V23.7268H55.7258V25.872C55.7258 26.1645 55.6933 26.4354 55.6228 26.69C55.5578 26.9446 55.4495 27.1721 55.3032 27.3617C55.157 27.5567 54.9674 27.7084 54.7344 27.8167C54.5015 27.9251 54.2252 27.9847 53.8948 27.9847C53.5643 27.9847 53.2718 27.9251 53.0389 27.8113C52.8059 27.6976 52.6163 27.535 52.4755 27.34C52.3347 27.145 52.2317 26.9175 52.1667 26.6629C52.1017 26.4083 52.0692 26.1428 52.0692 25.872V23.7268H52.7355V25.872C52.7355 26.067 52.7572 26.2566 52.7897 26.4354C52.8222 26.6141 52.8926 26.7766 52.9793 26.9175C53.066 27.0583 53.1851 27.1721 53.3368 27.2588C53.4885 27.3454 53.6673 27.3888 53.8894 27.3888L53.9056 27.3834Z" fill="url(#paint17_linear_0_1809)"/>
<path d="M57.8168 27.9576V23.7268H58.4831V27.3671H60.7529V27.9576H57.8168Z" fill="url(#paint18_linear_0_1809)"/>
<path d="M64.9891 24.7183C64.9512 24.675 64.8916 24.6262 64.8158 24.5775C64.7399 24.5287 64.6532 24.48 64.5503 24.4366C64.4474 24.3933 64.3391 24.3554 64.2145 24.3283C64.0953 24.3012 63.9707 24.2849 63.8407 24.2849C63.559 24.2849 63.3531 24.3391 63.2177 24.442C63.0823 24.545 63.0173 24.6858 63.0173 24.87C63.0173 24.9729 63.0389 25.0596 63.0823 25.1246C63.1256 25.1896 63.1906 25.2492 63.2773 25.2979C63.364 25.3467 63.4723 25.39 63.6077 25.428C63.7378 25.4659 63.8894 25.5038 64.0682 25.5471C64.2849 25.6013 64.4745 25.6555 64.6478 25.7205C64.8212 25.7855 64.9674 25.8613 65.0866 25.9534C65.2058 26.0455 65.2979 26.1593 65.3629 26.2893C65.4279 26.4193 65.4604 26.5818 65.4604 26.7768C65.4604 26.9935 65.4171 27.1777 65.3358 27.3294C65.2546 27.4865 65.1408 27.611 64.9999 27.7086C64.8591 27.8061 64.6966 27.8765 64.507 27.9252C64.3228 27.9686 64.1224 27.9957 63.9057 27.9957C63.5861 27.9957 63.2719 27.9469 62.9739 27.8494C62.676 27.7519 62.4051 27.6111 62.1614 27.4215L62.4647 26.8472C62.5189 26.9014 62.5893 26.9556 62.6868 27.0206C62.7843 27.0856 62.8981 27.1452 63.0281 27.1939C63.1581 27.2427 63.299 27.2914 63.4506 27.3294C63.6023 27.3673 63.7594 27.3835 63.9219 27.3835C64.182 27.3835 64.3878 27.3402 64.5287 27.2481C64.6695 27.156 64.7453 27.0206 64.7453 26.8418C64.7453 26.7335 64.7183 26.6468 64.6641 26.5764C64.6099 26.506 64.5341 26.441 64.4366 26.3868C64.3391 26.3326 64.2145 26.2839 64.0736 26.2405C63.9328 26.1972 63.7703 26.1538 63.5861 26.1051C63.3748 26.0509 63.1906 25.9913 63.0335 25.9263C62.8764 25.8667 62.7464 25.7909 62.6435 25.7042C62.5406 25.6176 62.4593 25.5146 62.4106 25.3954C62.3564 25.2763 62.3293 25.1354 62.3293 24.9675C62.3293 24.7616 62.3672 24.5775 62.4485 24.4149C62.5297 24.2524 62.6381 24.117 62.7735 24.0087C62.9089 23.9003 63.0715 23.8191 63.2611 23.7595C63.4507 23.6999 63.6511 23.6782 63.8678 23.6782C64.1549 23.6782 64.4203 23.7216 64.6587 23.8137C64.9024 23.9057 65.1137 24.0195 65.2979 24.1549L64.9945 24.7021L64.9891 24.7183Z" fill="url(#paint19_linear_0_1809)"/>
<path d="M67.3238 27.9576V23.7268H67.9901V27.9576H67.3238Z" fill="url(#paint20_linear_0_1809)"/>
<path d="M71.8906 27.9847C71.5872 27.9847 71.311 27.9251 71.0672 27.8059C70.8234 27.6868 70.6067 27.5242 70.428 27.3238C70.2492 27.1234 70.1138 26.8959 70.0163 26.6358C69.9188 26.3758 69.87 26.1158 69.87 25.8449C69.87 25.5741 69.9242 25.2924 70.0271 25.0324C70.13 24.7723 70.2709 24.5448 70.455 24.3444C70.6338 24.144 70.8505 23.9869 71.0997 23.8677C71.3489 23.7485 71.6197 23.6943 71.9123 23.6943C72.2048 23.6943 72.4865 23.7593 72.7356 23.8839C72.9848 24.0085 73.1961 24.171 73.3749 24.3769C73.5536 24.5827 73.6891 24.8103 73.7866 25.0649C73.8841 25.3195 73.9328 25.5849 73.9328 25.8503C73.9328 26.132 73.8841 26.4029 73.7812 26.6629C73.6782 26.9229 73.5374 27.1505 73.3532 27.3455C73.169 27.5405 72.9523 27.6976 72.7086 27.8168C72.4648 27.9359 72.1885 27.9901 71.9014 27.9901L71.8906 27.9847ZM70.5417 25.8395C70.5417 26.0399 70.5742 26.2295 70.6392 26.4191C70.7042 26.6033 70.7909 26.7713 70.9101 26.9121C71.0293 27.0529 71.1701 27.1667 71.338 27.2534C71.506 27.3401 71.6902 27.3834 71.896 27.3834C72.1019 27.3834 72.3023 27.3401 72.4648 27.248C72.6273 27.1559 72.7682 27.0421 72.8873 26.8959C73.0011 26.7496 73.0878 26.5817 73.1474 26.4029C73.2069 26.2187 73.2394 26.0345 73.2394 25.8449C73.2394 25.6391 73.2069 25.4495 73.1419 25.2653C73.0769 25.0811 72.9903 24.9186 72.8711 24.7778C72.7519 24.6369 72.6111 24.5232 72.4485 24.4365C72.286 24.3498 72.1019 24.3065 71.896 24.3065C71.6793 24.3065 71.4897 24.3498 71.3218 24.4419C71.1538 24.534 71.013 24.6477 70.8992 24.7886C70.7855 24.9294 70.6934 25.0974 70.6338 25.2816C70.5742 25.4657 70.5417 25.6553 70.5417 25.8449V25.8395Z" fill="url(#paint21_linear_0_1809)"/>
<path d="M76.4734 24.9782V27.9576H75.8071V23.7268H76.3326L78.754 26.7766V23.7322H79.4258V27.9576H78.8732L76.4788 24.9782H76.4734Z" fill="url(#paint22_linear_0_1809)"/>
<path d="M10.6013 59.3012C12.519 59.3012 14.1062 59.9729 15.4821 61.4193L18.2882 58.8461C16.4518 56.728 13.7053 55.6067 10.3846 55.6067C4.37161 55.6067 0 59.6533 0 65.3033C0 70.9534 4.37162 75 10.3034 75C13.0011 75 15.8613 74.1712 17.9361 72.6165V65.0108H13.9437V70.4984C12.8386 71.0888 11.7335 71.3001 10.5471 71.3001C6.93391 71.3001 4.42579 68.8082 4.42579 65.3033C4.42579 61.7985 6.93391 59.3066 10.6013 59.3066V59.3012Z" fill="url(#paint23_linear_0_1809)"/>
<path d="M38.5103 71.143H29.0411V55.9263H24.6749V74.6749H38.5103V71.143Z" fill="url(#paint24_linear_0_1809)"/>
<path d="M48.0282 55.9263H43.6566V74.6749H48.0282V55.9263Z" fill="url(#paint25_linear_0_1809)"/>
<path d="M63.4723 74.6749V59.4636H69.5123V55.9263H53.0605V59.4636H59.1006V74.6749H63.4723Z" fill="url(#paint26_linear_0_1809)"/>
<path d="M79.106 71.143L89.4365 58.7378V55.9263H73.5481V59.4636H83.6889L73.3368 71.8634V74.6749H89.8428V71.143H79.106Z" fill="url(#paint27_linear_0_1809)"/>
<path d="M86.8258 42.4919L85.8832 42.1994C85.764 42.1615 85.6448 42.1127 85.5365 42.0531L84.8756 41.6902C84.8268 41.6631 84.7673 41.7064 84.7781 41.7606L84.9514 42.5353C84.9514 42.5353 84.9514 42.5569 84.9514 42.5678L84.7672 43.2991C84.751 43.3532 84.8106 43.402 84.8648 43.3695L85.4119 43.0553C85.6015 42.947 85.8019 42.8657 86.0132 42.8169L86.8203 42.6165C86.8853 42.6003 86.8853 42.5136 86.8203 42.4919H86.8258Z" fill="url(#paint28_linear_0_1809)"/>
<path d="M4.88642 42.5299L5.05976 41.7552C5.0706 41.7011 5.01643 41.6577 4.96767 41.6848L4.30678 42.0478C4.19844 42.1073 4.07927 42.1561 3.96009 42.194L3.01751 42.4865C2.9525 42.5082 2.95792 42.5949 3.01751 42.6111L3.82466 42.8116C4.03593 42.8603 4.23636 42.9416 4.42596 43.0499L4.97309 43.3641C5.02184 43.3912 5.08143 43.3479 5.0706 43.2937L4.88642 42.5624C4.88642 42.5624 4.88642 42.5407 4.88642 42.5299Z" fill="url(#paint29_linear_0_1809)"/>
<path d="M5.87226 42.92C6.09066 42.92 6.26771 42.743 6.26771 42.5246C6.26771 42.3062 6.09066 42.1292 5.87226 42.1292C5.65386 42.1292 5.47681 42.3062 5.47681 42.5246C5.47681 42.743 5.65386 42.92 5.87226 42.92Z" fill="url(#paint30_linear_0_1809)"/>
<path d="M22.53 41.7498C22.3079 41.7498 21.9287 42.064 21.7445 42.3077H6.26239V42.7411H21.7174C21.8908 43.0065 22.2971 43.2991 22.53 43.2991C22.8334 43.2991 23.0825 42.9524 23.0825 42.5244C23.0825 42.0965 22.8388 41.7498 22.53 41.7498Z" fill="url(#paint31_linear_0_1809)"/>
<path d="M44.556 41.6144C44.4964 41.5169 44.4314 41.4356 44.3664 41.3706C44.3339 41.3381 44.3014 41.3056 44.2635 41.2731C44.2472 41.2569 44.231 41.2406 44.2093 41.2298C44.193 41.2189 44.1714 41.2027 44.1551 41.1919C44.0847 41.1431 44.0143 41.116 43.9547 41.0889C43.8464 41.0131 43.6947 40.9373 43.5105 40.8885C43.3263 40.8397 43.1042 40.8181 42.8604 40.8452C42.6221 40.8722 42.3566 40.9481 42.1075 41.1214C41.9883 41.2081 41.8691 41.3273 41.7878 41.4735C41.7012 41.6198 41.6578 41.7986 41.6633 41.9719C41.6633 42.0044 41.6633 42.0369 41.6687 42.064V42.1128L41.6849 42.1561C41.6903 42.1886 41.6958 42.2157 41.7066 42.2428C41.7174 42.2699 41.7228 42.297 41.7337 42.3295C41.7499 42.389 41.7716 42.4378 41.7987 42.4865C41.8203 42.5353 41.8529 42.5895 41.8799 42.6382C41.9124 42.687 41.9504 42.7357 41.9937 42.7791C42.037 42.8224 42.0858 42.8657 42.14 42.8983C42.1941 42.9308 42.2591 42.9578 42.3241 42.9741C42.3891 42.9903 42.4542 42.9903 42.5192 42.9849C42.6438 42.9741 42.7521 42.9253 42.8388 42.8657C42.9254 42.8116 42.9959 42.7412 43.0555 42.6707C43.1692 42.5299 43.2451 42.3782 43.2721 42.2157C43.283 42.1344 43.283 42.0532 43.2505 41.9773C43.2234 41.8961 43.1584 41.8419 43.0934 41.8148C43.0284 41.7877 42.9742 41.7823 42.9254 41.7823C42.8767 41.7823 42.8333 41.7877 42.7954 41.7986C42.7196 41.8148 42.6654 41.8365 42.6275 41.8527C42.5896 41.869 42.5733 41.8744 42.5733 41.8744C42.5733 41.8744 42.595 41.8744 42.6329 41.8744C42.6708 41.8744 42.7304 41.869 42.8063 41.8744C42.8442 41.8744 42.8821 41.8798 42.9254 41.8907C42.9634 41.9015 43.0067 41.9178 43.0392 41.9394C43.0717 41.9611 43.088 41.999 43.0934 42.0369C43.0934 42.0748 43.0934 42.1236 43.0717 42.1724C43.0338 42.2753 42.9525 42.3836 42.8496 42.4703C42.7521 42.557 42.6167 42.6274 42.5137 42.622C42.4596 42.622 42.4216 42.6057 42.3783 42.5732C42.335 42.5407 42.2916 42.4866 42.2591 42.4215C42.2429 42.389 42.2212 42.3511 42.2104 42.3132C42.1941 42.2753 42.1779 42.2319 42.167 42.194L42.1508 42.1344L42.14 42.0748V42.0478L42.1345 42.0207C42.1345 41.999 42.1345 41.9828 42.1345 41.9611C42.1345 41.8582 42.1562 41.7607 42.1995 41.674C42.2429 41.5873 42.3079 41.5061 42.3891 41.4356C42.4704 41.3652 42.5625 41.311 42.6546 41.2623C42.7521 41.2189 42.8496 41.181 42.9471 41.1539C43.1421 41.0998 43.3371 41.0835 43.5051 41.0889C43.673 41.0944 43.8193 41.1269 43.933 41.1702C43.9818 41.2081 44.036 41.246 44.0847 41.3002C44.0955 41.311 44.1064 41.3273 44.1226 41.3381C44.1335 41.3544 44.1443 41.3652 44.1551 41.3815C44.1768 41.4085 44.1985 41.4465 44.2256 41.4844C44.3122 41.6252 44.3935 41.804 44.3989 41.9828C44.4043 42.1615 44.3339 42.3403 44.193 42.5136C44.0522 42.687 43.8626 42.8549 43.6513 43.0174C43.6351 43.0283 43.6188 43.0445 43.5972 43.0553C43.5159 43.0878 43.4347 43.1258 43.348 43.1745C43.1909 43.2179 43.0284 43.2612 42.8496 43.3045C42.3621 43.4183 41.777 43.5321 41.1324 43.4725C40.4769 43.4237 39.7618 43.3045 39.0197 43.1149C38.5159 42.9849 38.0392 42.8387 37.5842 42.687C37.1291 42.5353 36.7066 42.3728 36.3111 42.2265C35.5257 41.9286 34.8702 41.6794 34.4151 41.5169C34.2039 41.4085 33.9384 41.2677 33.6242 41.1323C33.31 40.9968 32.9471 40.8506 32.5408 40.7206C31.7337 40.4551 30.7532 40.2222 29.686 40.1247C29.296 40.0922 28.9059 40.0759 28.5376 40.0813C28.1638 40.0868 27.8063 40.1193 27.465 40.1626C27.1237 40.2114 26.8041 40.2818 26.5116 40.363C26.4357 40.3847 26.3653 40.4064 26.2949 40.428C26.2624 40.4389 26.2245 40.4497 26.192 40.4605C26.1595 40.4714 26.1269 40.4876 26.089 40.4985C26.024 40.5256 25.959 40.5472 25.894 40.5743C25.829 40.6014 25.7694 40.6285 25.7098 40.6556C25.3469 40.8181 25.0598 40.9968 24.8485 41.1539C24.8052 41.1702 24.7727 41.1864 24.7347 41.2027C24.7293 41.2027 24.7185 41.2027 24.7131 41.2027C24.6914 41.2027 24.6697 41.2081 24.6481 41.2135C24.6264 41.2189 24.6047 41.2298 24.5831 41.2352C24.5397 41.246 24.491 41.2731 24.4476 41.2948C24.426 41.3056 24.4043 41.3219 24.3772 41.3381C24.3555 41.3544 24.3285 41.3706 24.3122 41.3869C24.2689 41.4248 24.2255 41.4681 24.193 41.5169C24.1551 41.5656 24.1226 41.6198 24.0955 41.6794C24.0847 41.7065 24.0684 41.739 24.0576 41.7661C24.0468 41.7986 24.0359 41.8257 24.0305 41.8582C23.998 41.9828 23.9872 42.1182 23.998 42.2536C24.0305 42.6166 24.2147 42.9145 24.4097 43.1095C24.5072 43.207 24.6156 43.2775 24.7077 43.3316C24.8052 43.3804 24.8918 43.4129 24.9677 43.4291C25.0273 43.4779 25.1031 43.5321 25.206 43.5754C25.2331 43.5862 25.2602 43.5971 25.2873 43.6079C25.3144 43.6187 25.3469 43.6241 25.374 43.635C25.3902 43.635 25.4065 43.6458 25.4227 43.6458C25.439 43.6458 25.4552 43.6512 25.4715 43.6566C25.504 43.6566 25.5365 43.6675 25.5744 43.6729C25.6069 43.6729 25.6394 43.6729 25.6773 43.6783C25.7098 43.6783 25.7478 43.6783 25.7857 43.6783C25.8236 43.6783 25.8615 43.6783 25.8994 43.6783C25.9374 43.6783 25.9807 43.6675 26.0186 43.6621C26.0999 43.6458 26.1811 43.6241 26.2678 43.5916C26.3111 43.5754 26.3545 43.5483 26.3978 43.5266C26.4195 43.5104 26.4411 43.4941 26.4628 43.4833L26.4953 43.4616L26.5224 43.4345C26.5495 43.4075 26.5766 43.3804 26.6037 43.3425L26.6362 43.2937L26.6632 43.2395C26.7012 43.1691 26.7174 43.0878 26.7228 43.012C26.7337 42.8603 26.6957 42.7249 26.6416 42.6111C26.5278 42.389 26.3491 42.2482 26.1703 42.1994C26.0782 42.1724 25.9915 42.1778 25.9211 42.1994C25.9103 42.1994 25.9048 42.1994 25.894 42.2049C25.8886 42.2049 25.8778 42.2103 25.8723 42.2157C25.8561 42.2211 25.8453 42.2319 25.829 42.2374C25.8073 42.259 25.7857 42.2753 25.7694 42.2915C25.7532 42.3078 25.7423 42.324 25.7315 42.3403C25.7207 42.3565 25.7152 42.3674 25.7098 42.3782C25.699 42.3999 25.6936 42.4107 25.6936 42.4107C25.6936 42.4107 25.7044 42.4053 25.7207 42.389C25.7315 42.3836 25.7423 42.3782 25.7532 42.3674C25.7694 42.362 25.7857 42.3565 25.8019 42.3457C25.8182 42.3403 25.8398 42.3349 25.8615 42.3295C25.8723 42.3295 25.8832 42.3295 25.894 42.3295C25.8994 42.3295 25.9048 42.3295 25.9103 42.3295C25.9157 42.3295 25.9211 42.3295 25.9265 42.3295C25.9753 42.3349 26.024 42.3565 26.0674 42.3945C26.1595 42.4649 26.2461 42.5949 26.284 42.7412C26.3003 42.8116 26.3057 42.8874 26.2895 42.9524C26.2732 43.012 26.2461 43.0662 26.1974 43.1149L26.1865 43.1258L26.1703 43.1366C26.1703 43.1366 26.1486 43.1529 26.1432 43.1583C26.1215 43.1691 26.0999 43.1854 26.0728 43.2016C26.024 43.2287 25.9644 43.2504 25.9103 43.272C25.7965 43.31 25.6719 43.3316 25.5581 43.3587C25.3415 43.3966 25.1465 43.3804 25.011 43.3479C24.9569 43.3045 24.8973 43.2449 24.8323 43.1745C24.7727 43.1041 24.7077 43.0174 24.6535 42.9199C24.5451 42.7249 24.4531 42.4811 24.4314 42.2265C24.4206 42.1344 24.426 42.0423 24.4314 41.9611C24.4314 41.9394 24.4314 41.9178 24.4422 41.9015C24.4422 41.8798 24.4531 41.8636 24.4585 41.8419C24.4747 41.804 24.4801 41.7661 24.5018 41.7336C24.5614 41.5927 24.6752 41.4898 24.7889 41.4194C24.8052 41.4085 24.8214 41.4031 24.8377 41.3923C25.0977 41.3002 25.4498 41.2027 25.8886 41.1864C26.1324 41.181 26.4032 41.1973 26.6849 41.2514C26.9666 41.3002 27.27 41.3869 27.5787 41.4898C27.8875 41.5927 28.2125 41.7227 28.5484 41.8582C28.7163 41.9232 28.8897 41.9936 29.063 42.064C29.2364 42.1344 29.4151 42.2103 29.5885 42.2807C29.8323 42.3782 30.0706 42.4757 30.3035 42.5678C30.5365 42.6599 30.7694 42.7466 30.9915 42.8387C31.4357 43.0228 31.8583 43.1908 32.2483 43.3479C32.6383 43.4996 32.9959 43.6404 33.3155 43.765C33.6297 43.8896 33.9059 43.9925 34.1335 44.0738C34.556 44.3013 35.179 44.6209 35.9319 44.9947C36.3166 45.1789 36.7499 45.3576 37.2212 45.4985C37.6979 45.6393 38.2125 45.7368 38.7597 45.7585C39.1605 45.7747 39.556 45.7477 39.9298 45.6718L40.0002 45.661C40.0002 45.661 40.0435 45.6501 40.0706 45.6447C40.114 45.6339 40.1627 45.6231 40.206 45.6068C40.2494 45.596 40.2981 45.5851 40.3415 45.5689C40.3848 45.5581 40.4282 45.5418 40.4715 45.5256C40.5582 45.493 40.6448 45.466 40.7261 45.4335C40.8073 45.3955 40.8886 45.363 40.9699 45.3251L41.0294 45.298L41.089 45.2655C41.127 45.2439 41.1649 45.2222 41.2028 45.2059C41.2786 45.1626 41.3491 45.1301 41.4249 45.0759C41.5712 44.9784 41.6903 44.8701 41.7987 44.7617C41.8799 44.6805 41.9504 44.6046 42.0262 44.5234C42.0533 44.5017 42.075 44.4855 42.1075 44.4692C42.3296 44.3284 42.6058 44.1767 42.9146 44.0033C43.2234 43.83 43.5647 43.635 43.9005 43.375C44.0793 43.2395 44.2418 43.0824 44.3826 42.9091C44.4043 42.8983 44.4206 42.8928 44.4206 42.8928C44.4206 42.8928 44.4097 42.8928 44.3935 42.8983C44.4314 42.8495 44.4747 42.8116 44.5072 42.7628C44.5885 42.6436 44.6535 42.5136 44.6914 42.3728C44.7293 42.2319 44.7348 42.0857 44.7077 41.9557C44.6806 41.8257 44.6318 41.7119 44.5722 41.6144H44.556Z" fill="url(#paint32_linear_0_1809)"/>
<path d="M65.8127 41.7878C65.8019 41.7553 65.7857 41.7282 65.7748 41.7011C65.7423 41.647 65.7152 41.5874 65.6773 41.5386C65.6394 41.4899 65.5961 41.4465 65.5581 41.4086C65.5365 41.3869 65.5148 41.3761 65.4931 41.3598C65.4715 41.3436 65.4498 41.3273 65.4227 41.3165C65.374 41.2894 65.3306 41.2678 65.2873 41.2569C65.2656 41.2515 65.2439 41.2407 65.2223 41.2353C65.2006 41.2298 65.1789 41.2244 65.1573 41.2244C65.1464 41.2244 65.141 41.2244 65.1356 41.2244C65.1031 41.2082 65.0652 41.1919 65.0218 41.1757C64.8106 41.0186 64.5235 40.8398 64.1605 40.6773C64.1009 40.6502 64.0413 40.6231 63.9763 40.596C63.9113 40.5744 63.8463 40.5473 63.7813 40.5202C63.7488 40.5094 63.7163 40.4931 63.6784 40.4823C63.6459 40.4714 63.608 40.4606 63.5755 40.4498C63.5051 40.4281 63.4346 40.4064 63.3588 40.3848C63.0663 40.3035 62.7467 40.2385 62.4054 40.1843C62.0641 40.141 61.7066 40.1085 61.3328 40.1031C60.959 40.0977 60.5744 40.1139 60.1844 40.1464C59.1172 40.2439 58.1421 40.4769 57.3295 40.7423C56.9233 40.8777 56.5603 41.0186 56.2461 41.154C55.9319 41.2894 55.6665 41.4303 55.4552 41.5386C55.0002 41.7011 54.3447 41.9503 53.5592 42.2483C53.1638 42.3945 52.7412 42.557 52.2862 42.7087C51.8312 42.8604 51.3544 43.0121 50.8507 43.1367C50.1139 43.3208 49.3989 43.44 48.738 43.4942C48.0933 43.5538 47.5083 43.4454 47.0208 43.3263C46.8366 43.2829 46.6741 43.2396 46.5224 43.1963C46.4357 43.1475 46.3544 43.1096 46.2732 43.0771C46.2569 43.0662 46.2407 43.05 46.219 43.0392C46.0077 42.8766 45.8127 42.7141 45.6773 42.5354C45.5365 42.362 45.4606 42.1832 45.4715 42.0045C45.4715 41.8257 45.5581 41.6524 45.6448 41.5061C45.6665 41.4682 45.6881 41.4357 45.7152 41.4032C45.7261 41.3869 45.7369 41.3707 45.7477 41.3598C45.7586 41.3436 45.7748 41.3328 45.7856 41.3219C45.8344 41.2678 45.8886 41.2298 45.9373 41.1919C46.0511 41.1486 46.1973 41.1161 46.3653 41.1107C46.5332 41.1052 46.7228 41.1215 46.9232 41.1757C47.0208 41.2028 47.1183 41.2353 47.2158 41.284C47.3133 41.3328 47.4054 41.3869 47.4812 41.4574C47.557 41.5278 47.6275 41.6036 47.6708 41.6957C47.7141 41.7824 47.7358 41.8799 47.7358 41.9828C47.7358 42.0045 47.7358 42.0207 47.7358 42.0424V42.0695L47.7304 42.0966L47.7196 42.1562L47.7033 42.2158C47.6925 42.2537 47.6762 42.297 47.66 42.3349C47.6437 42.3728 47.6275 42.4108 47.6112 42.4433C47.5733 42.5083 47.53 42.5624 47.492 42.595C47.4487 42.6275 47.4054 42.6437 47.3566 42.6437C47.2537 42.6491 47.1183 42.5841 47.0208 42.492C46.9178 42.4054 46.842 42.297 46.7987 42.1941C46.7824 42.1453 46.7716 42.0966 46.777 42.0587C46.777 42.0207 46.7987 41.9882 46.8312 41.9612C46.8637 41.9341 46.9016 41.9178 46.9449 41.9124C46.9828 41.9016 47.0262 41.8961 47.0641 41.8961C47.1345 41.8961 47.1941 41.8961 47.2374 41.8961C47.2754 41.8961 47.297 41.8961 47.297 41.8961C47.297 41.8961 47.2754 41.8907 47.2429 41.8745C47.2049 41.8582 47.1508 41.8366 47.0749 41.8203C47.037 41.8149 46.9937 41.8041 46.9449 41.8041C46.8962 41.8041 46.8366 41.8041 46.777 41.8366C46.712 41.8636 46.6524 41.9232 46.6199 41.9991C46.5874 42.0749 46.5874 42.1616 46.5982 42.2374C46.6253 42.3945 46.7011 42.5516 46.8149 42.6925C46.8745 42.7629 46.9449 42.8279 47.0316 42.8875C47.1183 42.9416 47.2212 42.9904 47.3512 43.0067C47.4162 43.0121 47.4812 43.0067 47.5462 42.9958C47.6112 42.9796 47.6762 42.9525 47.7304 42.92C47.7846 42.8875 47.8387 42.8441 47.8767 42.8008C47.92 42.7575 47.9579 42.7087 47.9904 42.66C48.0229 42.6112 48.05 42.5624 48.0771 42.5083C48.1042 42.4541 48.1204 42.4054 48.1421 42.3512C48.1529 42.3241 48.1583 42.297 48.1692 42.2645C48.1746 42.2374 48.18 42.2049 48.1908 42.1778L48.2017 42.1345V42.0857C48.2071 42.0532 48.2125 42.0207 48.2125 41.9937C48.2125 41.8203 48.1692 41.6415 48.0879 41.4953C48.0067 41.349 47.8875 41.2298 47.7683 41.1432C47.5245 40.9698 47.2591 40.894 47.0153 40.8669C46.7716 40.8398 46.5549 40.8669 46.3653 40.9102C46.1811 40.9536 46.0294 41.0348 45.9211 41.1107C45.8615 41.1323 45.7911 41.1648 45.7206 41.2136C45.7044 41.2244 45.6827 41.2353 45.6665 41.2515C45.6502 41.2623 45.634 41.2786 45.6123 41.2948C45.5744 41.3273 45.5473 41.3598 45.5094 41.3924C45.4444 41.4628 45.3794 41.544 45.3198 41.6361C45.2602 41.7336 45.2114 41.8474 45.1843 41.9774C45.1573 42.1074 45.1627 42.2537 45.2006 42.3945C45.2385 42.5354 45.3035 42.6654 45.3848 42.7846C45.4173 42.8333 45.4606 42.8766 45.4985 42.92C45.4769 42.92 45.4715 42.9146 45.4715 42.9146C45.4715 42.9146 45.4877 42.92 45.5094 42.9308C45.6502 43.1042 45.8127 43.2613 45.9915 43.3967C46.3274 43.6567 46.6741 43.8517 46.9774 44.0251C47.2862 44.1984 47.5625 44.3501 47.7846 44.4909C47.8171 44.5126 47.8387 44.5289 47.8658 44.5451C47.9362 44.621 48.0121 44.7022 48.0933 44.7835C48.2017 44.8918 48.3209 45.0002 48.4671 45.0977C48.543 45.1518 48.6134 45.1843 48.6892 45.2277C48.7271 45.2493 48.7651 45.271 48.803 45.2873L48.8626 45.3198L48.9222 45.3469C49.0034 45.3848 49.0847 45.4173 49.1659 45.4552C49.2472 45.4877 49.3339 45.5148 49.4205 45.5473C49.4639 45.5635 49.5072 45.5798 49.5505 45.5906C49.5939 45.6015 49.6426 45.6123 49.686 45.6285C49.7293 45.6394 49.7781 45.6502 49.8214 45.6665C49.8431 45.6719 49.8647 45.6773 49.8918 45.6827L49.9622 45.6935C50.336 45.7748 50.7315 45.7965 51.1323 45.7802C51.6795 45.7585 52.1995 45.6556 52.6708 45.5202C53.1475 45.3794 53.5755 45.2006 53.9601 45.0164C54.7185 44.6426 55.336 44.323 55.7586 44.0955C55.9861 44.0088 56.2569 43.9059 56.5766 43.7867C56.8907 43.6621 57.2483 43.5213 57.6437 43.3696C58.0338 43.2179 58.4563 43.0446 58.9005 42.8604C59.1226 42.7629 59.3555 42.6816 59.5885 42.5895C59.8214 42.4974 60.0598 42.3999 60.3035 42.3024C60.4823 42.2266 60.6556 42.1562 60.829 42.0857C61.0023 42.0153 61.1757 41.9449 61.3436 41.8799C61.6795 41.7445 62.0045 41.6199 62.3133 41.5115C62.6221 41.4086 62.9254 41.3219 63.2071 41.2732C63.4888 41.219 63.7597 41.2027 64.0034 41.2082C64.4422 41.2244 64.7997 41.3219 65.0543 41.414C65.0706 41.4249 65.0868 41.4303 65.1031 41.4411C65.2169 41.5115 65.3306 41.6145 65.3902 41.7553C65.4065 41.7878 65.4173 41.8257 65.4335 41.8636C65.4335 41.8853 65.4444 41.9016 65.4498 41.9232C65.4552 41.9449 65.4552 41.9666 65.4606 41.9828C65.4715 42.0641 65.4769 42.1562 65.4606 42.2483C65.439 42.5029 65.3469 42.7466 65.2385 42.9416C65.1844 43.0392 65.1193 43.1204 65.0598 43.1963C65.0002 43.2667 64.9352 43.3263 64.881 43.3696C64.7456 43.4021 64.5506 43.4184 64.3339 43.3804C64.2201 43.3588 64.0955 43.3371 63.9818 43.2938C63.9222 43.2721 63.868 43.2504 63.8192 43.2233C63.7922 43.2125 63.7759 43.1963 63.7488 43.18C63.738 43.1746 63.7271 43.1638 63.7217 43.1583L63.7055 43.1475L63.6947 43.1367C63.6459 43.0879 63.6188 43.0392 63.6026 42.9741C63.5863 42.9146 63.5917 42.8387 63.608 42.7629C63.6459 42.6166 63.7326 42.4866 63.8247 42.4162C63.8734 42.3783 63.9222 42.3566 63.9655 42.3512C63.9709 42.3512 63.9763 42.3512 63.9818 42.3512C63.9872 42.3512 63.9926 42.3512 63.998 42.3512C64.0088 42.3512 64.0197 42.3512 64.0305 42.3512C64.0522 42.3566 64.0738 42.362 64.0901 42.3674C64.1063 42.3783 64.1226 42.3837 64.1389 42.3891C64.1497 42.3999 64.1659 42.4054 64.1714 42.4108C64.193 42.4216 64.1984 42.4324 64.1984 42.4324C64.1984 42.4324 64.1984 42.4216 64.1822 42.3999C64.1822 42.3891 64.1714 42.3783 64.1605 42.362C64.1497 42.3458 64.1389 42.3295 64.1226 42.3133C64.1063 42.297 64.0847 42.2808 64.063 42.2591C64.0522 42.2537 64.0359 42.2428 64.0197 42.2374C64.0143 42.2374 64.0034 42.232 63.998 42.2266C63.9872 42.2266 63.9818 42.2212 63.9709 42.2212C63.9005 42.1995 63.8084 42.1941 63.7217 42.2212C63.543 42.2699 63.3588 42.4108 63.2504 42.6329C63.1963 42.7412 63.1584 42.8821 63.1692 43.0337C63.18 43.1096 63.1963 43.1908 63.2342 43.2613L63.2613 43.3154L63.2938 43.3642C63.3155 43.3967 63.3425 43.4292 63.375 43.4563L63.4021 43.4834L63.4346 43.505C63.4346 43.505 63.478 43.5375 63.4996 43.5484C63.543 43.57 63.5863 43.5971 63.6296 43.6134C63.7163 43.6513 63.7976 43.673 63.8788 43.6838C63.9168 43.6838 63.9601 43.6946 63.998 43.7C64.0359 43.7 64.0738 43.7 64.1118 43.7C64.1497 43.7 64.1822 43.7 64.2201 43.7C64.2526 43.7 64.2905 43.7 64.323 43.6946C64.3555 43.6946 64.3935 43.6838 64.426 43.6784C64.4422 43.6784 64.4585 43.673 64.4747 43.6675C64.491 43.6675 64.5072 43.6567 64.5235 43.6567C64.556 43.6459 64.5831 43.6405 64.6101 43.6296C64.6372 43.6188 64.6643 43.608 64.6914 43.5971C64.7943 43.5538 64.8702 43.4996 64.9298 43.4509C65.0056 43.4346 65.0923 43.4021 65.1898 43.3534C65.2873 43.2992 65.3902 43.2288 65.4877 43.1312C65.6827 42.9362 65.8669 42.6383 65.8994 42.2753C65.9157 42.1399 65.8994 42.0045 65.8669 41.8799C65.8561 41.8474 65.8507 41.8149 65.8398 41.7878H65.8127Z" fill="url(#paint33_linear_0_1809)"/>
<path d="M83.971 42.92C84.1894 42.92 84.3665 42.743 84.3665 42.5246C84.3665 42.3062 84.1894 42.1292 83.971 42.1292C83.7526 42.1292 83.5756 42.3062 83.5756 42.5246C83.5756 42.743 83.7526 42.92 83.971 42.92Z" fill="url(#paint34_linear_0_1809)"/>
<path d="M68.0988 42.3077C67.9147 42.064 67.5355 41.7498 67.3134 41.7498C67.01 41.7498 66.7608 42.0965 66.7608 42.5244C66.7608 42.9524 67.0046 43.2991 67.3134 43.2991C67.5517 43.2991 67.958 43.0065 68.1259 42.7411H83.581V42.3077H68.0988Z" fill="url(#paint35_linear_0_1809)"/>
<defs>
<linearGradient id="paint0_linear_0_1809" x1="15.558" y1="4.31201" x2="6.3423" y2="11.5597" gradientUnits="userSpaceOnUse">
<stop stop-color="#DE9F54"/>
<stop offset="0.163765" stop-color="#FCD074" stop-opacity="0.995122"/>
<stop offset="0.253331" stop-color="#FCD97F" stop-opacity="0.993854"/>
<stop offset="0.452321" stop-color="#D59740" stop-opacity="0.985729"/>
<stop offset="1" stop-color="#ECA15C" stop-opacity="0.98"/>
</linearGradient>
<linearGradient id="paint1_linear_0_1809" x1="28.1856" y1="4.323" x2="19.0817" y2="17.4484" gradientUnits="userSpaceOnUse">
<stop stop-color="#DE9F54"/>
<stop offset="0.163765" stop-color="#FCD074" stop-opacity="0.995122"/>
<stop offset="0.253331" stop-color="#FCD97F" stop-opacity="0.993854"/>
<stop offset="0.452321" stop-color="#D59740" stop-opacity="0.985729"/>
<stop offset="1" stop-color="#ECA15C" stop-opacity="0.98"/>
</linearGradient>
<linearGradient id="paint2_linear_0_1809" x1="41.8685" y1="4.63135" x2="29.5944" y2="17.5548" gradientUnits="userSpaceOnUse">
<stop stop-color="#DE9F54"/>
<stop offset="0.163765" stop-color="#FCD074" stop-opacity="0.995122"/>
<stop offset="0.253331" stop-color="#FCD97F" stop-opacity="0.993854"/>
<stop offset="0.452321" stop-color="#D59740" stop-opacity="0.985729"/>
<stop offset="1" stop-color="#ECA15C" stop-opacity="0.98"/>
</linearGradient>
<linearGradient id="paint3_linear_0_1809" x1="54.3458" y1="4.323" x2="44.7587" y2="15.6447" gradientUnits="userSpaceOnUse">
<stop stop-color="#DE9F54"/>
<stop offset="0.163765" stop-color="#FCD074" stop-opacity="0.995122"/>
<stop offset="0.253331" stop-color="#FCD97F" stop-opacity="0.993854"/>
<stop offset="0.452321" stop-color="#D59740" stop-opacity="0.985729"/>
<stop offset="1" stop-color="#ECA15C" stop-opacity="0.98"/>
</linearGradient>
<linearGradient id="paint4_linear_0_1809" x1="62.9408" y1="2.68447e-07" x2="58.6904" y2="0.726194" gradientUnits="userSpaceOnUse">
<stop stop-color="#DE9F54"/>
<stop offset="0.163765" stop-color="#FCD074" stop-opacity="0.995122"/>
<stop offset="0.253331" stop-color="#FCD97F" stop-opacity="0.993854"/>
<stop offset="0.452321" stop-color="#D59740" stop-opacity="0.985729"/>
<stop offset="1" stop-color="#ECA15C" stop-opacity="0.98"/>
</linearGradient>
<linearGradient id="paint5_linear_0_1809" x1="74.7702" y1="4.31738" x2="65.4261" y2="16.7526" gradientUnits="userSpaceOnUse">
<stop stop-color="#DE9F54"/>
<stop offset="0.163765" stop-color="#FCD074" stop-opacity="0.995122"/>
<stop offset="0.253331" stop-color="#FCD97F" stop-opacity="0.993854"/>
<stop offset="0.452321" stop-color="#D59740" stop-opacity="0.985729"/>
<stop offset="1" stop-color="#ECA15C" stop-opacity="0.98"/>
</linearGradient>
<linearGradient id="paint6_linear_0_1809" x1="26.5399" y1="0.0595703" x2="24.9177" y2="2.35896" gradientUnits="userSpaceOnUse">
<stop stop-color="#DE9F54"/>
<stop offset="0.163765" stop-color="#FCD074" stop-opacity="0.995122"/>
<stop offset="0.253331" stop-color="#FCD97F" stop-opacity="0.993854"/>
<stop offset="0.452321" stop-color="#D59740" stop-opacity="0.985729"/>
<stop offset="1" stop-color="#ECA15C" stop-opacity="0.98"/>
</linearGradient>
<linearGradient id="paint7_linear_0_1809" x1="30.0394" y1="0.0595703" x2="28.4173" y2="2.35896" gradientUnits="userSpaceOnUse">
<stop stop-color="#DE9F54"/>
<stop offset="0.163765" stop-color="#FCD074" stop-opacity="0.995122"/>
<stop offset="0.253331" stop-color="#FCD97F" stop-opacity="0.993854"/>
<stop offset="0.452321" stop-color="#D59740" stop-opacity="0.985729"/>
<stop offset="1" stop-color="#ECA15C" stop-opacity="0.98"/>
</linearGradient>
<linearGradient id="paint8_linear_0_1809" x1="23.0459" y1="0.0595703" x2="21.4237" y2="2.35896" gradientUnits="userSpaceOnUse">
<stop stop-color="#DE9F54"/>
<stop offset="0.163765" stop-color="#FCD074" stop-opacity="0.995122"/>
<stop offset="0.253331" stop-color="#FCD97F" stop-opacity="0.993854"/>
<stop offset="0.452321" stop-color="#D59740" stop-opacity="0.985729"/>
<stop offset="1" stop-color="#ECA15C" stop-opacity="0.98"/>
</linearGradient>
<linearGradient id="paint9_linear_0_1809" x1="9.59244" y1="23.7268" x2="6.34457" y2="26.9217" gradientUnits="userSpaceOnUse">
<stop stop-color="#DE9F54"/>
<stop offset="0.163765" stop-color="#FCD074" stop-opacity="0.995122"/>
<stop offset="0.253331" stop-color="#FCD97F" stop-opacity="0.993854"/>
<stop offset="0.452321" stop-color="#D59740" stop-opacity="0.985729"/>
<stop offset="1" stop-color="#ECA15C" stop-opacity="0.98"/>
</linearGradient>
<linearGradient id="paint10_linear_0_1809" x1="14.4071" y1="23.7268" x2="11.2002" y2="27.6306" gradientUnits="userSpaceOnUse">
<stop stop-color="#DE9F54"/>
<stop offset="0.163765" stop-color="#FCD074" stop-opacity="0.995122"/>
<stop offset="0.253331" stop-color="#FCD97F" stop-opacity="0.993854"/>
<stop offset="0.452321" stop-color="#D59740" stop-opacity="0.985729"/>
<stop offset="1" stop-color="#ECA15C" stop-opacity="0.98"/>
</linearGradient>
<linearGradient id="paint11_linear_0_1809" x1="19.7852" y1="23.7268" x2="16.6332" y2="27.76" gradientUnits="userSpaceOnUse">
<stop stop-color="#DE9F54"/>
<stop offset="0.163765" stop-color="#FCD074" stop-opacity="0.995122"/>
<stop offset="0.253331" stop-color="#FCD97F" stop-opacity="0.993854"/>
<stop offset="0.452321" stop-color="#D59740" stop-opacity="0.985729"/>
<stop offset="1" stop-color="#ECA15C" stop-opacity="0.98"/>
</linearGradient>
<linearGradient id="paint12_linear_0_1809" x1="25.0897" y1="23.7268" x2="21.8828" y2="27.6306" gradientUnits="userSpaceOnUse">
<stop stop-color="#DE9F54"/>
<stop offset="0.163765" stop-color="#FCD074" stop-opacity="0.995122"/>
<stop offset="0.253331" stop-color="#FCD97F" stop-opacity="0.993854"/>
<stop offset="0.452321" stop-color="#D59740" stop-opacity="0.985729"/>
<stop offset="1" stop-color="#ECA15C" stop-opacity="0.98"/>
</linearGradient>
<linearGradient id="paint13_linear_0_1809" x1="30.612" y1="23.7268" x2="27.3815" y2="27.3151" gradientUnits="userSpaceOnUse">
<stop stop-color="#DE9F54"/>
<stop offset="0.163765" stop-color="#FCD074" stop-opacity="0.995122"/>
<stop offset="0.253331" stop-color="#FCD97F" stop-opacity="0.993854"/>
<stop offset="0.452321" stop-color="#D59740" stop-opacity="0.985729"/>
<stop offset="1" stop-color="#ECA15C" stop-opacity="0.98"/>
</linearGradient>
<linearGradient id="paint14_linear_0_1809" x1="35.513" y1="23.7268" x2="32.3599" y2="27.7557" gradientUnits="userSpaceOnUse">
<stop stop-color="#DE9F54"/>
<stop offset="0.163765" stop-color="#FCD074" stop-opacity="0.995122"/>
<stop offset="0.253331" stop-color="#FCD97F" stop-opacity="0.993854"/>
<stop offset="0.452321" stop-color="#D59740" stop-opacity="0.985729"/>
<stop offset="1" stop-color="#ECA15C" stop-opacity="0.98"/>
</linearGradient>
<linearGradient id="paint15_linear_0_1809" x1="42.8972" y1="23.7268" x2="39.6501" y2="26.8856" gradientUnits="userSpaceOnUse">
<stop stop-color="#DE9F54"/>
<stop offset="0.163765" stop-color="#FCD074" stop-opacity="0.995122"/>
<stop offset="0.253331" stop-color="#FCD97F" stop-opacity="0.993854"/>
<stop offset="0.452321" stop-color="#D59740" stop-opacity="0.985729"/>
<stop offset="1" stop-color="#ECA15C" stop-opacity="0.98"/>
</linearGradient>
<linearGradient id="paint16_linear_0_1809" x1="48.5639" y1="23.7268" x2="45.5024" y2="28.0608" gradientUnits="userSpaceOnUse">
<stop stop-color="#DE9F54"/>
<stop offset="0.163765" stop-color="#FCD074" stop-opacity="0.995122"/>
<stop offset="0.253331" stop-color="#FCD97F" stop-opacity="0.993854"/>
<stop offset="0.452321" stop-color="#D59740" stop-opacity="0.985729"/>
<stop offset="1" stop-color="#ECA15C" stop-opacity="0.98"/>
</linearGradient>
<linearGradient id="paint17_linear_0_1809" x1="54.483" y1="23.7268" x2="51.276" y2="27.6306" gradientUnits="userSpaceOnUse">
<stop stop-color="#DE9F54"/>
<stop offset="0.163765" stop-color="#FCD074" stop-opacity="0.995122"/>
<stop offset="0.253331" stop-color="#FCD97F" stop-opacity="0.993854"/>
<stop offset="0.452321" stop-color="#D59740" stop-opacity="0.985729"/>
<stop offset="1" stop-color="#ECA15C" stop-opacity="0.98"/>
</linearGradient>
<linearGradient id="paint18_linear_0_1809" x1="59.755" y1="23.7268" x2="56.5071" y2="26.9217" gradientUnits="userSpaceOnUse">
<stop stop-color="#DE9F54"/>
<stop offset="0.163765" stop-color="#FCD074" stop-opacity="0.995122"/>
<stop offset="0.253331" stop-color="#FCD97F" stop-opacity="0.993854"/>
<stop offset="0.452321" stop-color="#D59740" stop-opacity="0.985729"/>
<stop offset="1" stop-color="#ECA15C" stop-opacity="0.98"/>
</linearGradient>
<linearGradient id="paint19_linear_0_1809" x1="64.3391" y1="23.6782" x2="61.0348" y2="27.2572" gradientUnits="userSpaceOnUse">
<stop stop-color="#DE9F54"/>
<stop offset="0.163765" stop-color="#FCD074" stop-opacity="0.995122"/>
<stop offset="0.253331" stop-color="#FCD97F" stop-opacity="0.993854"/>
<stop offset="0.452321" stop-color="#D59740" stop-opacity="0.985729"/>
<stop offset="1" stop-color="#ECA15C" stop-opacity="0.98"/>
</linearGradient>
<linearGradient id="paint20_linear_0_1809" x1="67.7636" y1="23.7268" x2="66.3822" y2="24.0352" gradientUnits="userSpaceOnUse">
<stop stop-color="#DE9F54"/>
<stop offset="0.163765" stop-color="#FCD074" stop-opacity="0.995122"/>
<stop offset="0.253331" stop-color="#FCD97F" stop-opacity="0.993854"/>
<stop offset="0.452321" stop-color="#D59740" stop-opacity="0.985729"/>
<stop offset="1" stop-color="#ECA15C" stop-opacity="0.98"/>
</linearGradient>
<linearGradient id="paint21_linear_0_1809" x1="72.5519" y1="23.6943" x2="69.3905" y2="27.9326" gradientUnits="userSpaceOnUse">
<stop stop-color="#DE9F54"/>
<stop offset="0.163765" stop-color="#FCD074" stop-opacity="0.995122"/>
<stop offset="0.253331" stop-color="#FCD97F" stop-opacity="0.993854"/>
<stop offset="0.452321" stop-color="#D59740" stop-opacity="0.985729"/>
<stop offset="1" stop-color="#ECA15C" stop-opacity="0.98"/>
</linearGradient>
<linearGradient id="paint22_linear_0_1809" x1="78.1958" y1="23.7268" x2="75.0068" y2="27.5931" gradientUnits="userSpaceOnUse">
<stop stop-color="#DE9F54"/>
<stop offset="0.163765" stop-color="#FCD074" stop-opacity="0.995122"/>
<stop offset="0.253331" stop-color="#FCD97F" stop-opacity="0.993854"/>
<stop offset="0.452321" stop-color="#D59740" stop-opacity="0.985729"/>
<stop offset="1" stop-color="#ECA15C" stop-opacity="0.98"/>
</linearGradient>
<linearGradient id="paint23_linear_0_1809" x1="12.0723" y1="55.6067" x2="-2.21183" y2="74.7003" gradientUnits="userSpaceOnUse">
<stop stop-color="#DE9F54"/>
<stop offset="0.163765" stop-color="#FCD074" stop-opacity="0.995122"/>
<stop offset="0.253331" stop-color="#FCD97F" stop-opacity="0.993854"/>
<stop offset="0.452321" stop-color="#D59740" stop-opacity="0.985729"/>
<stop offset="1" stop-color="#ECA15C" stop-opacity="0.98"/>
</linearGradient>
<linearGradient id="paint24_linear_0_1809" x1="33.8078" y1="55.9263" x2="19.4275" y2="70.9682" gradientUnits="userSpaceOnUse">
<stop stop-color="#DE9F54"/>
<stop offset="0.163765" stop-color="#FCD074" stop-opacity="0.995122"/>
<stop offset="0.253331" stop-color="#FCD97F" stop-opacity="0.993854"/>
<stop offset="0.452321" stop-color="#D59740" stop-opacity="0.985729"/>
<stop offset="1" stop-color="#ECA15C" stop-opacity="0.98"/>
</linearGradient>
<linearGradient id="paint25_linear_0_1809" x1="46.5424" y1="55.9263" x2="37.9641" y2="58.7615" gradientUnits="userSpaceOnUse">
<stop stop-color="#DE9F54"/>
<stop offset="0.163765" stop-color="#FCD074" stop-opacity="0.995122"/>
<stop offset="0.253331" stop-color="#FCD97F" stop-opacity="0.993854"/>
<stop offset="0.452321" stop-color="#D59740" stop-opacity="0.985729"/>
<stop offset="1" stop-color="#ECA15C" stop-opacity="0.98"/>
</linearGradient>
<linearGradient id="paint26_linear_0_1809" x1="63.9206" y1="55.9263" x2="49.8617" y2="73.4131" gradientUnits="userSpaceOnUse">
<stop stop-color="#DE9F54"/>
<stop offset="0.163765" stop-color="#FCD074" stop-opacity="0.995122"/>
<stop offset="0.253331" stop-color="#FCD97F" stop-opacity="0.993854"/>
<stop offset="0.452321" stop-color="#D59740" stop-opacity="0.985729"/>
<stop offset="1" stop-color="#ECA15C" stop-opacity="0.98"/>
</linearGradient>
<linearGradient id="paint27_linear_0_1809" x1="84.2326" y1="55.9263" x2="70.1837" y2="73.4582" gradientUnits="userSpaceOnUse">
<stop stop-color="#DE9F54"/>
<stop offset="0.163765" stop-color="#FCD074" stop-opacity="0.995122"/>
<stop offset="0.253331" stop-color="#FCD97F" stop-opacity="0.993854"/>
<stop offset="0.452321" stop-color="#D59740" stop-opacity="0.985729"/>
<stop offset="1" stop-color="#ECA15C" stop-opacity="0.98"/>
</linearGradient>
<linearGradient id="paint28_linear_0_1809" x1="86.1538" y1="41.6819" x2="85.0328" y2="43.6513" gradientUnits="userSpaceOnUse">
<stop stop-color="#DE9F54"/>
<stop offset="0.163765" stop-color="#FCD074" stop-opacity="0.995122"/>
<stop offset="0.253331" stop-color="#FCD97F" stop-opacity="0.993854"/>
<stop offset="0.452321" stop-color="#D59740" stop-opacity="0.985729"/>
<stop offset="1" stop-color="#ECA15C" stop-opacity="0.98"/>
</linearGradient>
<linearGradient id="paint29_linear_0_1809" x1="4.35774" y1="41.6765" x2="3.23795" y2="43.6431" gradientUnits="userSpaceOnUse">
<stop stop-color="#DE9F54"/>
<stop offset="0.163765" stop-color="#FCD074" stop-opacity="0.995122"/>
<stop offset="0.253331" stop-color="#FCD97F" stop-opacity="0.993854"/>
<stop offset="0.452321" stop-color="#D59740" stop-opacity="0.985729"/>
<stop offset="1" stop-color="#ECA15C" stop-opacity="0.98"/>
</linearGradient>
<linearGradient id="paint30_linear_0_1809" x1="5.99889" y1="42.1292" x2="5.42682" y2="42.94" gradientUnits="userSpaceOnUse">
<stop stop-color="#DE9F54"/>
<stop offset="0.163765" stop-color="#FCD074" stop-opacity="0.995122"/>
<stop offset="0.253331" stop-color="#FCD97F" stop-opacity="0.993854"/>
<stop offset="0.452321" stop-color="#D59740" stop-opacity="0.985729"/>
<stop offset="1" stop-color="#ECA15C" stop-opacity="0.98"/>
</linearGradient>
<linearGradient id="paint31_linear_0_1809" x1="17.3656" y1="41.7498" x2="17.2116" y2="44.1188" gradientUnits="userSpaceOnUse">
<stop stop-color="#DE9F54"/>
<stop offset="0.163765" stop-color="#FCD074" stop-opacity="0.995122"/>
<stop offset="0.253331" stop-color="#FCD97F" stop-opacity="0.993854"/>
<stop offset="0.452321" stop-color="#D59740" stop-opacity="0.985729"/>
<stop offset="1" stop-color="#ECA15C" stop-opacity="0.98"/>
</linearGradient>
<linearGradient id="paint32_linear_0_1809" x1="37.6785" y1="40.0803" x2="36.0518" y2="48.4919" gradientUnits="userSpaceOnUse">
<stop stop-color="#DE9F54"/>
<stop offset="0.163765" stop-color="#FCD074" stop-opacity="0.995122"/>
<stop offset="0.253331" stop-color="#FCD97F" stop-opacity="0.993854"/>
<stop offset="0.452321" stop-color="#D59740" stop-opacity="0.985729"/>
<stop offset="1" stop-color="#ECA15C" stop-opacity="0.98"/>
</linearGradient>
<linearGradient id="paint33_linear_0_1809" x1="58.8571" y1="40.1021" x2="57.2307" y2="48.5145" gradientUnits="userSpaceOnUse">
<stop stop-color="#DE9F54"/>
<stop offset="0.163765" stop-color="#FCD074" stop-opacity="0.995122"/>
<stop offset="0.253331" stop-color="#FCD97F" stop-opacity="0.993854"/>
<stop offset="0.452321" stop-color="#D59740" stop-opacity="0.985729"/>
<stop offset="1" stop-color="#ECA15C" stop-opacity="0.98"/>
</linearGradient>
<linearGradient id="paint34_linear_0_1809" x1="84.0976" y1="42.1292" x2="83.5256" y2="42.94" gradientUnits="userSpaceOnUse">
<stop stop-color="#DE9F54"/>
<stop offset="0.163765" stop-color="#FCD074" stop-opacity="0.995122"/>
<stop offset="0.253331" stop-color="#FCD97F" stop-opacity="0.993854"/>
<stop offset="0.452321" stop-color="#D59740" stop-opacity="0.985729"/>
<stop offset="1" stop-color="#ECA15C" stop-opacity="0.98"/>
</linearGradient>
<linearGradient id="paint35_linear_0_1809" x1="77.864" y1="41.7498" x2="77.7101" y2="44.1188" gradientUnits="userSpaceOnUse">
<stop stop-color="#DE9F54"/>
<stop offset="0.163765" stop-color="#FCD074" stop-opacity="0.995122"/>
<stop offset="0.253331" stop-color="#FCD97F" stop-opacity="0.993854"/>
<stop offset="0.452321" stop-color="#D59740" stop-opacity="0.985729"/>
<stop offset="1" stop-color="#ECA15C" stop-opacity="0.98"/>
</linearGradient>
</defs>
</svg>
