<svg width="1920" height="382" viewBox="0 0 1920 382" fill="none" xmlns="http://www.w3.org/2000/svg">
<path d="M977 242L1920 42" stroke="url(#paint0_linear_422_86)" stroke-width="2" stroke-miterlimit="10"/>
<path d="M709 299L955 246" stroke="url(#paint1_linear_422_86)" stroke-width="2" stroke-miterlimit="10"/>
<path d="M456.207 300.088L942.041 214" stroke="url(#paint2_linear_422_86)" stroke-width="2" stroke-miterlimit="10"/>
<path d="M0.0161367 380.923L440.453 302.879" stroke="url(#paint3_linear_422_86)" stroke-width="2" stroke-miterlimit="10"/>
<path d="M1299.21 150.273L1435.64 126.098" stroke="url(#paint4_linear_422_86)" stroke-width="2" stroke-miterlimit="10"/>
<path d="M967.716 181.728L970.181 50.0005H920.529V184.008L967.716 181.728Z" stroke="url(#paint5_linear_422_86)" stroke-width="2" stroke-miterlimit="10"/>
<path d="M970.182 27.3965H903.576L844.75 38.167V56.7343L903.821 50.0008H970.182V27.3965Z" stroke="url(#paint6_linear_422_86)" stroke-width="2" stroke-miterlimit="10"/>
<path d="M920.53 184.008H904.081L844.75 176.689V93.5913H852.239L852.959 55.7942" stroke="url(#paint7_linear_422_86)" stroke-width="2" stroke-miterlimit="10"/>
<path d="M920.53 124.686H904.571H844.75" stroke="url(#paint8_linear_422_86)" stroke-width="2" stroke-miterlimit="10"/>
<path d="M919.273 91.8345H904.325L895.105 92.2352V52.4658" stroke="url(#paint9_linear_422_86)" stroke-width="2" stroke-miterlimit="10"/>
<path d="M873.114 81.2183C876.032 81.2183 878.398 77.4102 878.398 72.7128C878.398 68.0153 876.032 64.2073 873.114 64.2073C870.196 64.2073 867.83 68.0153 867.83 72.7128C867.83 77.4102 870.196 81.2183 873.114 81.2183Z" stroke="url(#paint10_linear_422_86)" stroke-width="2" stroke-miterlimit="10"/>
<path d="M870.77 161.25C873.688 161.25 876.054 157.442 876.054 152.745C876.054 148.047 873.688 144.239 870.77 144.239C867.852 144.239 865.486 148.047 865.486 152.745C865.486 157.442 867.852 161.25 870.77 161.25Z" stroke="url(#paint11_linear_422_86)" stroke-width="2" stroke-miterlimit="10"/>
<path d="M852.238 93.5913L892.334 92.2354" stroke="url(#paint12_linear_422_86)" stroke-width="2" stroke-miterlimit="10"/>
<path d="M904.678 180.619V93.5913" stroke="url(#paint13_linear_422_86)" stroke-width="2" stroke-miterlimit="10"/>
<path d="M919.272 129.801H904.677L876.053 165.595V168.893L904.677 138.646L920.528 137.105" stroke="url(#paint14_linear_422_86)" stroke-width="2" stroke-miterlimit="10"/>
<path d="M844.75 135.58L866.85 165.811V169.925L844.75 145.857" stroke="url(#paint15_linear_422_86)" stroke-width="2" stroke-miterlimit="10"/>
<path d="M882.303 35.4397L863.572 38.1053C860.448 38.5522 858.166 40.8634 858.166 43.5599V46.3489C858.166 48.9837 860.862 51.0331 863.925 50.7249L882.349 48.8605C885.856 48.5061 888.444 45.8866 888.291 42.8666L888.107 39.4459C887.969 36.9035 885.259 35.0236 882.318 35.4397H882.303Z" stroke="url(#paint16_linear_422_86)" stroke-width="2" stroke-miterlimit="10"/>
<path d="M903.805 50.2163V28.8447" stroke="url(#paint17_linear_422_86)" stroke-width="2" stroke-miterlimit="10"/>
<path d="M968.359 146.766L1141.21 141.65" stroke="url(#paint18_linear_422_86)" stroke-width="2" stroke-miterlimit="10"/>
<path d="M844.75 38.1669C844.75 38.1669 845.133 27.458 858.151 23.2206C871.169 18.9833 905.643 11.7259 905.643 11.7259L936.32 9.50708L965.985 10.5086L1201.33 60.9253C1201.33 60.9253 1209.96 61.7265 1210.95 71.8191L972.418 27.3964" stroke="url(#paint19_linear_422_86)" stroke-width="2" stroke-miterlimit="10"/>
<path d="M1210.98 71.8345L1211.73 164.809L1184.18 169.108L1173.57 189.247L1139.17 195.611L1124.11 179.078L970.181 201.605L920.529 205.288L888.29 206.967L834.212 197.922V179.987C834.212 179.987 832.527 177.675 841.671 177.552" stroke="url(#paint20_linear_422_86)" stroke-width="2" stroke-miterlimit="10"/>
<path d="M888.015 206.983V188.03L838.24 180.619" stroke="url(#paint21_linear_422_86)" stroke-width="2" stroke-miterlimit="10"/>
<path d="M967.777 184.008V201.805" stroke="url(#paint22_linear_422_86)" stroke-width="2" stroke-miterlimit="10"/>
<path d="M988.789 125.703H1021.09V91.2954C1021.09 88.83 1019.62 84.0842 1013.46 83.7606L997.703 82.8207C992.832 82.4355 988.804 84.6543 988.804 92.3277V125.703H988.789Z" stroke="url(#paint23_linear_422_86)" stroke-width="2" stroke-miterlimit="10"/>
<path d="M990.26 91.0488L1021.09 93.9919" stroke="url(#paint24_linear_422_86)" stroke-width="2" stroke-miterlimit="10"/>
<path d="M1033.22 126.103H1061V94.0999C1061 91.804 1059.73 87.3972 1054.43 87.089L1040.88 86.2262C1036.68 85.8718 1033.22 87.9211 1033.22 95.0706V126.119V126.103Z" stroke="url(#paint25_linear_422_86)" stroke-width="2" stroke-miterlimit="10"/>
<path d="M1033.22 95.0552L1061.02 96.6114" stroke="url(#paint26_linear_422_86)" stroke-width="2" stroke-miterlimit="10"/>
<path d="M1072.86 125.703H1098.23V96.4727C1098.23 94.3771 1097.07 90.3401 1092.23 90.0628L1079.84 89.2769C1076.01 88.9533 1072.84 90.8332 1072.84 97.351V125.718L1072.86 125.703Z" stroke="url(#paint27_linear_422_86)" stroke-width="2" stroke-miterlimit="10"/>
<path d="M1074 97.5049L1098.23 98.753" stroke="url(#paint28_linear_422_86)" stroke-width="2" stroke-miterlimit="10"/>
<path d="M1108.85 125.703H1132.06V98.9534C1132.06 97.0273 1131.01 93.3447 1126.58 93.0982L1115.25 92.374C1111.74 92.0658 1108.85 93.7915 1108.85 99.7546V125.703Z" stroke="url(#paint29_linear_422_86)" stroke-width="2" stroke-miterlimit="10"/>
<path d="M1180.72 125.703H1199.91V103.607C1199.91 102.02 1199.04 98.9688 1195.38 98.7685L1186.02 98.1676C1183.12 97.921 1180.73 99.3386 1180.73 104.269V125.703H1180.72Z" stroke="url(#paint30_linear_422_86)" stroke-width="2" stroke-miterlimit="10"/>
<path d="M1109.89 99.9087L1132.06 101.049" stroke="url(#paint31_linear_422_86)" stroke-width="2" stroke-miterlimit="10"/>
<path d="M1180.72 104.994L1200.31 106.011" stroke="url(#paint32_linear_422_86)" stroke-width="2" stroke-miterlimit="10"/>
<path d="M1170.86 181.343V83.807L1139.55 80.7715L1141.28 186.982L1170.86 181.343Z" stroke="url(#paint33_linear_422_86)" stroke-width="2" stroke-miterlimit="10"/>
<path d="M1014.66 78.0287L994.609 76.3492C991.408 76.3492 988.805 74.0379 988.805 71.1873V67.9978C988.805 65.1472 991.408 62.8359 994.609 62.8359L1014.66 64.5155C1017.86 64.5155 1020.46 66.8267 1020.46 69.6773V72.8669C1020.46 75.7175 1017.86 78.0287 1014.66 78.0287Z" stroke="url(#paint34_linear_422_86)" stroke-width="2" stroke-miterlimit="10"/>
<path d="M1055.92 82.5587L1038.32 81.1873C1035.5 81.1873 1033.22 79.0455 1033.22 76.3953V73.4214C1033.22 70.7712 1035.5 68.6294 1038.32 68.6294L1055.92 70.124C1058.73 70.124 1061.02 72.2658 1061.02 74.9161V77.7666C1061.02 80.4169 1058.73 82.5587 1055.92 82.5587Z" stroke="url(#paint35_linear_422_86)" stroke-width="2" stroke-miterlimit="10"/>
<path d="M1093.58 86.1797L1077.51 84.9162C1074.94 84.9162 1072.85 82.9439 1072.85 80.5094V77.7821C1072.85 75.3475 1074.94 73.3752 1077.51 73.3752L1093.58 74.8236C1096.15 74.8236 1098.23 76.7959 1098.23 79.2305V81.7883C1098.23 84.2228 1096.15 86.1951 1093.58 86.1951V86.1797Z" stroke="url(#paint36_linear_422_86)" stroke-width="2" stroke-miterlimit="10"/>
<path d="M1127.81 89.3231L1113.1 88.1675C1110.74 88.1675 1108.85 86.3647 1108.85 84.1613V81.6805C1108.85 79.4617 1110.76 77.6743 1113.1 77.6743L1127.81 79.0611C1130.16 79.0611 1132.06 80.8639 1132.06 83.0673V85.3323C1132.06 87.5512 1130.15 89.3386 1127.81 89.3386V89.3231Z" stroke="url(#paint37_linear_422_86)" stroke-width="2" stroke-miterlimit="10"/>
<path d="M1196.2 95.1629L1184.2 94.2229C1182.28 94.2229 1180.72 92.7591 1180.72 90.9409V88.907C1180.72 87.1042 1182.28 85.625 1184.2 85.625L1196.2 86.7498C1198.12 86.7498 1199.68 88.2136 1199.68 90.0318V91.8809C1199.68 93.6836 1198.12 95.1629 1196.2 95.1629Z" stroke="url(#paint38_linear_422_86)" stroke-width="2" stroke-miterlimit="10"/>
<path d="M1237.46 123.468H1254.02V105.641C1254.02 104.362 1253.27 101.897 1250.11 101.727L1242.04 101.249C1239.55 101.049 1237.48 102.189 1237.48 106.18V123.484L1237.46 123.468Z" stroke="url(#paint39_linear_422_86)" stroke-width="2" stroke-miterlimit="10"/>
<path d="M1237.46 106.766L1254.36 107.582" stroke="url(#paint40_linear_422_86)" stroke-width="2" stroke-miterlimit="10"/>
<path d="M1250.82 98.8148L1240.46 98.0598C1238.81 98.0598 1237.46 96.8733 1237.46 95.4095V93.7762C1237.46 92.3124 1238.81 91.126 1240.46 91.126L1250.82 92.0351C1252.47 92.0351 1253.82 93.2215 1253.82 94.6853V96.18C1253.82 97.6438 1252.47 98.8302 1250.82 98.8302V98.8148Z" stroke="url(#paint41_linear_422_86)" stroke-width="2" stroke-miterlimit="10"/>
<path d="M1287.84 124.362L1299.23 124.069L1298.89 110.602L1298.86 109.462C1298.83 108.414 1298.26 106.411 1296.09 106.334L1290.52 106.072C1288.8 105.949 1287.39 106.92 1287.48 110.186L1287.84 124.362Z" stroke="url(#paint42_linear_422_86)" stroke-width="2" stroke-miterlimit="10"/>
<path d="M1287.5 110.679L1299.15 111.064" stroke="url(#paint43_linear_422_86)" stroke-width="2" stroke-miterlimit="10"/>
<path d="M1296.53 103.946L1289.4 103.499C1288.26 103.53 1287.31 102.574 1287.28 101.388L1287.25 100.047C1287.22 98.8456 1288.13 97.8594 1289.26 97.8286L1296.41 98.3987C1297.54 98.3679 1298.49 99.3232 1298.52 100.51L1298.56 101.727C1298.59 102.929 1297.68 103.915 1296.55 103.946H1296.53Z" stroke="url(#paint44_linear_422_86)" stroke-width="2" stroke-miterlimit="10"/>
<path d="M1304.57 124.301L1315.1 124.039L1314.79 111.604L1314.76 110.541C1314.73 109.57 1314.21 107.721 1312.2 107.644L1307.06 107.413C1305.46 107.305 1304.18 108.199 1304.25 111.219L1304.57 124.316V124.301Z" stroke="url(#paint45_linear_422_86)" stroke-width="2" stroke-miterlimit="10"/>
<path d="M1304.27 111.65L1315.03 112.004" stroke="url(#paint46_linear_422_86)" stroke-width="2" stroke-miterlimit="10"/>
<path d="M1312.61 105.425L1306.01 105.009C1304.96 105.04 1304.08 104.161 1304.05 103.052L1304.02 101.804C1303.99 100.695 1304.83 99.7855 1305.88 99.7546L1312.48 100.279C1313.53 100.248 1314.41 101.126 1314.44 102.235L1314.47 103.36C1314.5 104.47 1313.66 105.379 1312.61 105.41V105.425Z" stroke="url(#paint47_linear_422_86)" stroke-width="2" stroke-miterlimit="10"/>
<path d="M1319.28 124.131L1329.03 123.885L1328.74 112.344L1328.71 111.357C1328.7 110.464 1328.21 108.738 1326.34 108.676L1321.56 108.461C1320.09 108.353 1318.88 109.2 1318.96 111.989L1319.26 124.131H1319.28Z" stroke="url(#paint48_linear_422_86)" stroke-width="2" stroke-miterlimit="10"/>
<path d="M1318.99 112.405L1328.97 112.729" stroke="url(#paint49_linear_422_86)" stroke-width="2" stroke-miterlimit="10"/>
<path d="M1326.74 106.627L1320.61 106.242C1319.63 106.272 1318.82 105.456 1318.79 104.423L1318.76 103.268C1318.73 102.235 1319.51 101.388 1320.49 101.373L1326.61 101.85C1327.59 101.819 1328.41 102.636 1328.44 103.668L1328.47 104.716C1328.5 105.749 1327.72 106.596 1326.74 106.611V106.627Z" stroke="url(#paint50_linear_422_86)" stroke-width="2" stroke-miterlimit="10"/>
<path d="M1228.18 163.607L1225.59 73.144L1333.2 90.3862L1334.9 153.268L1293.33 158.214L1286.4 170.541L1265.49 173.792L1255.34 160.572L1228.18 163.607Z" stroke="url(#paint51_linear_422_86)" stroke-width="2" stroke-miterlimit="10"/>
<path d="M1281.51 95.9486L1262.72 93.2983L1265.95 166.52L1284.74 164.362L1281.51 95.9486Z" stroke="url(#paint52_linear_422_86)" stroke-width="2" stroke-miterlimit="10"/>
<path d="M1333.2 90.3863C1333.2 90.3863 1332.74 84.2691 1328.01 82.9286L1218.98 63.3135L1207.31 62.8667" stroke="url(#paint53_linear_422_86)" stroke-width="2" stroke-miterlimit="10"/>
<path d="M1225.59 73.1443C1225.59 73.1443 1226.11 65.3168 1218.96 63.3291" stroke="url(#paint54_linear_422_86)" stroke-width="2" stroke-miterlimit="10"/>
<path d="M1282.55 125.98H1266.95" stroke="url(#paint55_linear_422_86)" stroke-width="2" stroke-miterlimit="10"/>
<path d="M1170.83 125.98H1146.95L1146.18 88.229" stroke="url(#paint56_linear_422_86)" stroke-width="2" stroke-miterlimit="10"/>
<path d="M1078.38 34.6076V21.9572C1078.38 19.6922 1076.85 17.7045 1074.66 17.1498L1013.85 1.57178L980.443 7.85845C980.443 7.85845 976.645 11.3716 977.227 12.9278" stroke="url(#paint57_linear_422_86)" stroke-width="2" stroke-miterlimit="10"/>
<path d="M1007.67 19.7846C1007.67 19.7846 1002.67 7.36538 1013.86 1.57178" stroke="url(#paint58_linear_422_86)" stroke-width="2" stroke-miterlimit="10"/>
<path d="M1228.18 163.607H1213.8" stroke="url(#paint59_linear_422_86)" stroke-width="2" stroke-miterlimit="10"/>
<path d="M1059.09 206.058C1056.07 218.077 1046.59 226.844 1035.36 226.844C1021.7 226.844 1010.63 213.87 1010.63 197.876" stroke="url(#paint60_linear_422_86)" stroke-width="2" stroke-miterlimit="10"/>
<path d="M1119.69 178.954C1120.45 181.62 1120.87 184.471 1120.87 187.444C1120.87 202.19 1110.67 214.163 1098.08 214.163C1090.21 214.163 1083.27 209.494 1079.18 202.391" stroke="url(#paint61_linear_422_86)" stroke-width="2" stroke-miterlimit="10"/>
<path d="M995.666 199.093V223.177L904.678 211.143V206.982" stroke="url(#paint62_linear_422_86)" stroke-width="2" stroke-miterlimit="10"/>
<path d="M1090.59 199.602C1092.69 202.052 1095.57 203.562 1098.77 203.562C1102.83 203.562 1106.4 201.112 1108.46 197.398" stroke="url(#paint63_linear_422_86)" stroke-width="2" stroke-miterlimit="10"/>
<path d="M1028.27 211.451C1030.68 213.469 1033.68 214.533 1036.79 214.163C1039.9 213.793 1042.76 211.959 1044.64 209.294" stroke="url(#paint64_linear_422_86)" stroke-width="2" stroke-miterlimit="10"/>
<path d="M1116.52 180.418V195.164L1022.91 212.915V198.092" stroke="url(#paint65_linear_422_86)" stroke-width="2" stroke-miterlimit="10"/>
<path d="M1214.99 179.216C1213.1 186.751 1207.15 192.267 1200.11 192.267C1191.53 192.267 1184.59 184.132 1184.59 174.085" stroke="url(#paint66_linear_422_86)" stroke-width="2" stroke-miterlimit="10"/>
<path d="M1253.79 167.537C1253.79 176.797 1247.39 184.301 1239.48 184.301C1234.54 184.301 1230.19 181.373 1227.62 176.905" stroke="url(#paint67_linear_422_86)" stroke-width="2" stroke-miterlimit="10"/>
<path d="M1251.06 172.375L1192.3 183.515" stroke="url(#paint68_linear_422_86)" stroke-width="2" stroke-miterlimit="10"/>
<path d="M1296.89 164.378C1295.37 170.403 1290.62 174.794 1285 174.794C1283.32 174.794 1281.71 174.409 1280.25 173.685" stroke="url(#paint69_linear_422_86)" stroke-width="2" stroke-miterlimit="10"/>
<path d="M1319.58 156.658C1319.58 164.054 1314.47 170.048 1308.16 170.048C1304.22 170.048 1300.75 167.706 1298.68 164.147" stroke="url(#paint70_linear_422_86)" stroke-width="2" stroke-miterlimit="10"/>
<path d="M1317.41 160.526L1290.78 164.378" stroke="url(#paint71_linear_422_86)" stroke-width="2" stroke-miterlimit="10"/>
<path d="M964.914 78.0288L945.356 79.77L944.223 176.813" stroke="url(#paint72_linear_422_86)" stroke-width="2" stroke-miterlimit="10"/>
<path d="M970.181 27.3962C970.181 27.3962 971.682 15.7474 966 10.5239" stroke="url(#paint73_linear_422_86)" stroke-width="2" stroke-miterlimit="10"/>
<path d="M903.575 27.3963C903.575 27.3963 903.238 16.6873 905.657 11.7412" stroke="url(#paint74_linear_422_86)" stroke-width="2" stroke-miterlimit="10"/>
<path d="M1170.83 139.539L1210.19 137.952" stroke="url(#paint75_linear_422_86)" stroke-width="2" stroke-miterlimit="10"/>
<path d="M1226.39 137.999L1264.46 136.458" stroke="url(#paint76_linear_422_86)" stroke-width="2" stroke-miterlimit="10"/>
<path d="M1141.21 141.65L1141.28 186.982L1170.86 181.343L1170.83 139.539L1211.5 137.136L1211.73 164.809L1184.18 169.108L1173.57 189.263L1139.17 195.626L1124.12 179.093L967.777 201.805L968.359 146.766L1141.21 141.65Z" fill="url(#paint77_linear_422_86)"/>
<path d="M1264.46 136.458L1266.06 165.888L1284.74 164.363L1284.05 134.362L1334.9 130.88V153.268L1293.33 158.215L1286.18 171.512L1265.49 172.93L1255.34 160.572L1227.89 164.748L1228.18 137.228L1264.46 136.458Z" fill="url(#paint78_linear_422_86)"/>
<defs>
<linearGradient id="paint0_linear_422_86" x1="976.146" y1="142" x2="1920.85" y2="142" gradientUnits="userSpaceOnUse">
<stop stop-color="#DA995A"/>
<stop offset="0.33" stop-color="#FBD57F"/>
<stop offset="1" stop-color="#E39A5D"/>
</linearGradient>
<linearGradient id="paint1_linear_422_86" x1="707.427" y1="272.5" x2="956.573" y2="272.5" gradientUnits="userSpaceOnUse">
<stop stop-color="#DA995A"/>
<stop offset="0.33" stop-color="#FBD57F"/>
<stop offset="1" stop-color="#E39A5D"/>
</linearGradient>
<linearGradient id="paint2_linear_422_86" x1="454.856" y1="261.324" x2="943.391" y2="252.722" gradientUnits="userSpaceOnUse">
<stop stop-color="#DA995A"/>
<stop offset="0.33" stop-color="#FBD57F"/>
<stop offset="1" stop-color="#E39A5D"/>
</linearGradient>
<linearGradient id="paint3_linear_422_86" x1="-1.20852" y1="345.781" x2="441.677" y2="337.983" gradientUnits="userSpaceOnUse">
<stop stop-color="#DA995A"/>
<stop offset="0.33" stop-color="#FBD57F"/>
<stop offset="1" stop-color="#E39A5D"/>
</linearGradient>
<linearGradient id="paint4_linear_422_86" x1="1298.83" y1="139.388" x2="1436.02" y2="136.972" gradientUnits="userSpaceOnUse">
<stop stop-color="#DA995A"/>
<stop offset="0.33" stop-color="#FBD57F"/>
<stop offset="1" stop-color="#E39A5D"/>
</linearGradient>
<linearGradient id="paint5_linear_422_86" x1="945.371" y1="185.626" x2="945.371" y2="48.4596" gradientUnits="userSpaceOnUse">
<stop stop-color="#DA995A"/>
<stop offset="0.33" stop-color="#FBD57F"/>
<stop offset="1" stop-color="#E39A5D"/>
</linearGradient>
<linearGradient id="paint6_linear_422_86" x1="907.466" y1="58.46" x2="907.466" y2="25.8556" gradientUnits="userSpaceOnUse">
<stop stop-color="#DA995A"/>
<stop offset="0.33" stop-color="#FBD57F"/>
<stop offset="1" stop-color="#E39A5D"/>
</linearGradient>
<linearGradient id="paint7_linear_422_86" x1="881.874" y1="185.549" x2="881.874" y2="55.7634" gradientUnits="userSpaceOnUse">
<stop stop-color="#DA995A"/>
<stop offset="0.33" stop-color="#FBD57F"/>
<stop offset="1" stop-color="#E39A5D"/>
</linearGradient>
<linearGradient id="paint8_linear_422_86" x1="nan" y1="nan" x2="nan" y2="nan" gradientUnits="userSpaceOnUse">
<stop stop-color="#DA995A"/>
<stop offset="0.33" stop-color="#FBD57F"/>
<stop offset="1" stop-color="#E39A5D"/>
</linearGradient>
<linearGradient id="paint9_linear_422_86" x1="906.423" y1="93.8377" x2="906.423" y2="52.4658" gradientUnits="userSpaceOnUse">
<stop stop-color="#DA995A"/>
<stop offset="0.33" stop-color="#FBD57F"/>
<stop offset="1" stop-color="#E39A5D"/>
</linearGradient>
<linearGradient id="paint10_linear_422_86" x1="873.114" y1="82.7591" x2="873.114" y2="62.6664" gradientUnits="userSpaceOnUse">
<stop stop-color="#DA995A"/>
<stop offset="0.33" stop-color="#FBD57F"/>
<stop offset="1" stop-color="#E39A5D"/>
</linearGradient>
<linearGradient id="paint11_linear_422_86" x1="870.77" y1="162.791" x2="870.77" y2="142.698" gradientUnits="userSpaceOnUse">
<stop stop-color="#DA995A"/>
<stop offset="0.33" stop-color="#FBD57F"/>
<stop offset="1" stop-color="#E39A5D"/>
</linearGradient>
<linearGradient id="paint12_linear_422_86" x1="872.286" y1="95.1322" x2="872.286" y2="90.6945" gradientUnits="userSpaceOnUse">
<stop stop-color="#DA995A"/>
<stop offset="0.33" stop-color="#FBD57F"/>
<stop offset="1" stop-color="#E39A5D"/>
</linearGradient>
<linearGradient id="paint13_linear_422_86" x1="nan" y1="nan" x2="nan" y2="nan" gradientUnits="userSpaceOnUse">
<stop stop-color="#DA995A"/>
<stop offset="0.33" stop-color="#FBD57F"/>
<stop offset="1" stop-color="#E39A5D"/>
</linearGradient>
<linearGradient id="paint14_linear_422_86" x1="897.586" y1="172.745" x2="897.586" y2="128.26" gradientUnits="userSpaceOnUse">
<stop stop-color="#DA995A"/>
<stop offset="0.33" stop-color="#FBD57F"/>
<stop offset="1" stop-color="#E39A5D"/>
</linearGradient>
<linearGradient id="paint15_linear_422_86" x1="855.945" y1="173.87" x2="855.945" y2="134.67" gradientUnits="userSpaceOnUse">
<stop stop-color="#DA995A"/>
<stop offset="0.33" stop-color="#FBD57F"/>
<stop offset="1" stop-color="#E39A5D"/>
</linearGradient>
<linearGradient id="paint16_linear_422_86" x1="856.634" y1="43.0515" x2="889.823" y2="43.0515" gradientUnits="userSpaceOnUse">
<stop stop-color="#DA995A"/>
<stop offset="0.33" stop-color="#FBD57F"/>
<stop offset="1" stop-color="#E39A5D"/>
</linearGradient>
<linearGradient id="paint17_linear_422_86" x1="nan" y1="nan" x2="nan" y2="nan" gradientUnits="userSpaceOnUse">
<stop stop-color="#DA995A"/>
<stop offset="0.33" stop-color="#FBD57F"/>
<stop offset="1" stop-color="#E39A5D"/>
</linearGradient>
<linearGradient id="paint18_linear_422_86" x1="968.313" y1="144.208" x2="1141.25" y2="144.208" gradientUnits="userSpaceOnUse">
<stop stop-color="#DA995A"/>
<stop offset="0.33" stop-color="#FBD57F"/>
<stop offset="1" stop-color="#E39A5D"/>
</linearGradient>
<linearGradient id="paint19_linear_422_86" x1="843.218" y1="40.848" x2="1212.71" y2="40.848" gradientUnits="userSpaceOnUse">
<stop stop-color="#DA995A"/>
<stop offset="0.33" stop-color="#FBD57F"/>
<stop offset="1" stop-color="#E39A5D"/>
</linearGradient>
<linearGradient id="paint20_linear_422_86" x1="832.558" y1="140.171" x2="1213.28" y2="140.171" gradientUnits="userSpaceOnUse">
<stop stop-color="#DA995A"/>
<stop offset="0.33" stop-color="#FBD57F"/>
<stop offset="1" stop-color="#E39A5D"/>
</linearGradient>
<linearGradient id="paint21_linear_422_86" x1="838.026" y1="193.038" x2="889.546" y2="193.038" gradientUnits="userSpaceOnUse">
<stop stop-color="#DA995A"/>
<stop offset="0.33" stop-color="#FBD57F"/>
<stop offset="1" stop-color="#E39A5D"/>
</linearGradient>
<linearGradient id="paint22_linear_422_86" x1="nan" y1="nan" x2="nan" y2="nan" gradientUnits="userSpaceOnUse">
<stop stop-color="#DA995A"/>
<stop offset="0.33" stop-color="#FBD57F"/>
<stop offset="1" stop-color="#E39A5D"/>
</linearGradient>
<linearGradient id="paint23_linear_422_86" x1="987.258" y1="104.239" x2="1022.62" y2="104.239" gradientUnits="userSpaceOnUse">
<stop stop-color="#DA995A"/>
<stop offset="0.33" stop-color="#FBD57F"/>
<stop offset="1" stop-color="#E39A5D"/>
</linearGradient>
<linearGradient id="paint24_linear_422_86" x1="990.107" y1="92.528" x2="1021.23" y2="92.528" gradientUnits="userSpaceOnUse">
<stop stop-color="#DA995A"/>
<stop offset="0.33" stop-color="#FBD57F"/>
<stop offset="1" stop-color="#E39A5D"/>
</linearGradient>
<linearGradient id="paint25_linear_422_86" x1="1031.69" y1="106.149" x2="1062.55" y2="106.149" gradientUnits="userSpaceOnUse">
<stop stop-color="#DA995A"/>
<stop offset="0.33" stop-color="#FBD57F"/>
<stop offset="1" stop-color="#E39A5D"/>
</linearGradient>
<linearGradient id="paint26_linear_422_86" x1="1033.14" y1="95.841" x2="1061.09" y2="95.841" gradientUnits="userSpaceOnUse">
<stop stop-color="#DA995A"/>
<stop offset="0.33" stop-color="#FBD57F"/>
<stop offset="1" stop-color="#E39A5D"/>
</linearGradient>
<linearGradient id="paint27_linear_422_86" x1="1071.32" y1="107.459" x2="1099.76" y2="107.459" gradientUnits="userSpaceOnUse">
<stop stop-color="#DA995A"/>
<stop offset="0.33" stop-color="#FBD57F"/>
<stop offset="1" stop-color="#E39A5D"/>
</linearGradient>
<linearGradient id="paint28_linear_422_86" x1="1073.93" y1="98.1366" x2="1098.32" y2="98.1366" gradientUnits="userSpaceOnUse">
<stop stop-color="#DA995A"/>
<stop offset="0.33" stop-color="#FBD57F"/>
<stop offset="1" stop-color="#E39A5D"/>
</linearGradient>
<linearGradient id="paint29_linear_422_86" x1="1107.31" y1="109.015" x2="1133.6" y2="109.015" gradientUnits="userSpaceOnUse">
<stop stop-color="#DA995A"/>
<stop offset="0.33" stop-color="#FBD57F"/>
<stop offset="1" stop-color="#E39A5D"/>
</linearGradient>
<linearGradient id="paint30_linear_422_86" x1="1179.19" y1="111.912" x2="1201.42" y2="111.912" gradientUnits="userSpaceOnUse">
<stop stop-color="#DA995A"/>
<stop offset="0.33" stop-color="#FBD57F"/>
<stop offset="1" stop-color="#E39A5D"/>
</linearGradient>
<linearGradient id="paint31_linear_422_86" x1="1109.81" y1="100.479" x2="1132.14" y2="100.479" gradientUnits="userSpaceOnUse">
<stop stop-color="#DA995A"/>
<stop offset="0.33" stop-color="#FBD57F"/>
<stop offset="1" stop-color="#E39A5D"/>
</linearGradient>
<linearGradient id="paint32_linear_422_86" x1="1180.63" y1="105.502" x2="1200.38" y2="105.502" gradientUnits="userSpaceOnUse">
<stop stop-color="#DA995A"/>
<stop offset="0.33" stop-color="#FBD57F"/>
<stop offset="1" stop-color="#E39A5D"/>
</linearGradient>
<linearGradient id="paint33_linear_422_86" x1="1137.99" y1="133.962" x2="1172.39" y2="133.962" gradientUnits="userSpaceOnUse">
<stop stop-color="#DA995A"/>
<stop offset="0.33" stop-color="#FBD57F"/>
<stop offset="1" stop-color="#E39A5D"/>
</linearGradient>
<linearGradient id="paint34_linear_422_86" x1="987.258" y1="70.4323" x2="1021.99" y2="70.4323" gradientUnits="userSpaceOnUse">
<stop stop-color="#DA995A"/>
<stop offset="0.33" stop-color="#FBD57F"/>
<stop offset="1" stop-color="#E39A5D"/>
</linearGradient>
<linearGradient id="paint35_linear_422_86" x1="1031.69" y1="75.594" x2="1062.55" y2="75.594" gradientUnits="userSpaceOnUse">
<stop stop-color="#DA995A"/>
<stop offset="0.33" stop-color="#FBD57F"/>
<stop offset="1" stop-color="#E39A5D"/>
</linearGradient>
<linearGradient id="paint36_linear_422_86" x1="1071.32" y1="79.7698" x2="1099.76" y2="79.7698" gradientUnits="userSpaceOnUse">
<stop stop-color="#DA995A"/>
<stop offset="0.33" stop-color="#FBD57F"/>
<stop offset="1" stop-color="#E39A5D"/>
</linearGradient>
<linearGradient id="paint37_linear_422_86" x1="1107.31" y1="83.4987" x2="1133.6" y2="83.4987" gradientUnits="userSpaceOnUse">
<stop stop-color="#DA995A"/>
<stop offset="0.33" stop-color="#FBD57F"/>
<stop offset="1" stop-color="#E39A5D"/>
</linearGradient>
<linearGradient id="paint38_linear_422_86" x1="1179.19" y1="90.3862" x2="1201.21" y2="90.3862" gradientUnits="userSpaceOnUse">
<stop stop-color="#DA995A"/>
<stop offset="0.33" stop-color="#FBD57F"/>
<stop offset="1" stop-color="#E39A5D"/>
</linearGradient>
<linearGradient id="paint39_linear_422_86" x1="1235.93" y1="112.344" x2="1255.55" y2="112.344" gradientUnits="userSpaceOnUse">
<stop stop-color="#DA995A"/>
<stop offset="0.33" stop-color="#FBD57F"/>
<stop offset="1" stop-color="#E39A5D"/>
</linearGradient>
<linearGradient id="paint40_linear_422_86" x1="1237.39" y1="107.182" x2="1254.43" y2="107.182" gradientUnits="userSpaceOnUse">
<stop stop-color="#DA995A"/>
<stop offset="0.33" stop-color="#FBD57F"/>
<stop offset="1" stop-color="#E39A5D"/>
</linearGradient>
<linearGradient id="paint41_linear_422_86" x1="1235.93" y1="94.9781" x2="1255.35" y2="94.9781" gradientUnits="userSpaceOnUse">
<stop stop-color="#DA995A"/>
<stop offset="0.33" stop-color="#FBD57F"/>
<stop offset="1" stop-color="#E39A5D"/>
</linearGradient>
<linearGradient id="paint42_linear_422_86" x1="1286.08" y1="115.241" x2="1300.53" y2="114.882" gradientUnits="userSpaceOnUse">
<stop stop-color="#DA995A"/>
<stop offset="0.33" stop-color="#FBD57F"/>
<stop offset="1" stop-color="#E39A5D"/>
</linearGradient>
<linearGradient id="paint43_linear_422_86" x1="1287.43" y1="110.972" x2="1299.22" y2="110.68" gradientUnits="userSpaceOnUse">
<stop stop-color="#DA995A"/>
<stop offset="0.33" stop-color="#FBD57F"/>
<stop offset="1" stop-color="#E39A5D"/>
</linearGradient>
<linearGradient id="paint44_linear_422_86" x1="1285.72" y1="101.021" x2="1300.06" y2="100.665" gradientUnits="userSpaceOnUse">
<stop stop-color="#DA995A"/>
<stop offset="0.33" stop-color="#FBD57F"/>
<stop offset="1" stop-color="#E39A5D"/>
</linearGradient>
<linearGradient id="paint45_linear_422_86" x1="1302.84" y1="115.863" x2="1316.42" y2="115.526" gradientUnits="userSpaceOnUse">
<stop stop-color="#DA995A"/>
<stop offset="0.33" stop-color="#FBD57F"/>
<stop offset="1" stop-color="#E39A5D"/>
</linearGradient>
<linearGradient id="paint46_linear_422_86" x1="1304.18" y1="111.906" x2="1315.1" y2="111.635" gradientUnits="userSpaceOnUse">
<stop stop-color="#DA995A"/>
<stop offset="0.33" stop-color="#FBD57F"/>
<stop offset="1" stop-color="#E39A5D"/>
</linearGradient>
<linearGradient id="paint47_linear_422_86" x1="1302.51" y1="102.716" x2="1315.97" y2="102.382" gradientUnits="userSpaceOnUse">
<stop stop-color="#DA995A"/>
<stop offset="0.33" stop-color="#FBD57F"/>
<stop offset="1" stop-color="#E39A5D"/>
</linearGradient>
<linearGradient id="paint48_linear_422_86" x1="1317.56" y1="116.303" x2="1330.37" y2="115.985" gradientUnits="userSpaceOnUse">
<stop stop-color="#DA995A"/>
<stop offset="0.33" stop-color="#FBD57F"/>
<stop offset="1" stop-color="#E39A5D"/>
</linearGradient>
<linearGradient id="paint49_linear_422_86" x1="1318.91" y1="112.641" x2="1329.06" y2="112.389" gradientUnits="userSpaceOnUse">
<stop stop-color="#DA995A"/>
<stop offset="0.33" stop-color="#FBD57F"/>
<stop offset="1" stop-color="#E39A5D"/>
</linearGradient>
<linearGradient id="paint50_linear_422_86" x1="1317.25" y1="104.105" x2="1329.96" y2="103.79" gradientUnits="userSpaceOnUse">
<stop stop-color="#DA995A"/>
<stop offset="0.33" stop-color="#FBD57F"/>
<stop offset="1" stop-color="#E39A5D"/>
</linearGradient>
<linearGradient id="paint51_linear_422_86" x1="1224.02" y1="123.391" x2="1336.46" y2="123.391" gradientUnits="userSpaceOnUse">
<stop stop-color="#DA995A"/>
<stop offset="0.33" stop-color="#FBD57F"/>
<stop offset="1" stop-color="#E39A5D"/>
</linearGradient>
<linearGradient id="paint52_linear_422_86" x1="1261.11" y1="129.878" x2="1286.33" y2="129.878" gradientUnits="userSpaceOnUse">
<stop stop-color="#DA995A"/>
<stop offset="0.33" stop-color="#FBD57F"/>
<stop offset="1" stop-color="#E39A5D"/>
</linearGradient>
<linearGradient id="paint53_linear_422_86" x1="1207.23" y1="75.9177" x2="1334.71" y2="75.9177" gradientUnits="userSpaceOnUse">
<stop stop-color="#DA995A"/>
<stop offset="0.33" stop-color="#FBD57F"/>
<stop offset="1" stop-color="#E39A5D"/>
</linearGradient>
<linearGradient id="paint54_linear_422_86" x1="1218.55" y1="67.5356" x2="1227.14" y2="67.5356" gradientUnits="userSpaceOnUse">
<stop stop-color="#DA995A"/>
<stop offset="0.33" stop-color="#FBD57F"/>
<stop offset="1" stop-color="#E39A5D"/>
</linearGradient>
<linearGradient id="paint55_linear_422_86" x1="nan" y1="nan" x2="nan" y2="nan" gradientUnits="userSpaceOnUse">
<stop stop-color="#DA995A"/>
<stop offset="0.33" stop-color="#FBD57F"/>
<stop offset="1" stop-color="#E39A5D"/>
</linearGradient>
<linearGradient id="paint56_linear_422_86" x1="1144.97" y1="108.214" x2="1170.41" y2="107.574" gradientUnits="userSpaceOnUse">
<stop stop-color="#DA995A"/>
<stop offset="0.33" stop-color="#FBD57F"/>
<stop offset="1" stop-color="#E39A5D"/>
</linearGradient>
<linearGradient id="paint57_linear_422_86" x1="975.802" y1="19.0912" x2="1079.78" y2="16.5034" gradientUnits="userSpaceOnUse">
<stop stop-color="#DA995A"/>
<stop offset="0.33" stop-color="#FBD57F"/>
<stop offset="1" stop-color="#E39A5D"/>
</linearGradient>
<linearGradient id="paint58_linear_422_86" x1="1004.95" y1="10.4009" x2="1014.73" y2="10.1573" gradientUnits="userSpaceOnUse">
<stop stop-color="#DA995A"/>
<stop offset="0.33" stop-color="#FBD57F"/>
<stop offset="1" stop-color="#E39A5D"/>
</linearGradient>
<linearGradient id="paint59_linear_422_86" x1="nan" y1="nan" x2="nan" y2="nan" gradientUnits="userSpaceOnUse">
<stop stop-color="#DA995A"/>
<stop offset="0.33" stop-color="#FBD57F"/>
<stop offset="1" stop-color="#E39A5D"/>
</linearGradient>
<linearGradient id="paint60_linear_422_86" x1="1009.48" y1="213.454" x2="1060.71" y2="212.175" gradientUnits="userSpaceOnUse">
<stop stop-color="#DA995A"/>
<stop offset="0.33" stop-color="#FBD57F"/>
<stop offset="1" stop-color="#E39A5D"/>
</linearGradient>
<linearGradient id="paint61_linear_422_86" x1="1077.71" y1="197.922" x2="1122.64" y2="196.796" gradientUnits="userSpaceOnUse">
<stop stop-color="#DA995A"/>
<stop offset="0.33" stop-color="#FBD57F"/>
<stop offset="1" stop-color="#E39A5D"/>
</linearGradient>
<linearGradient id="paint62_linear_422_86" x1="903.192" y1="214.332" x2="997.519" y2="212.003" gradientUnits="userSpaceOnUse">
<stop stop-color="#DA995A"/>
<stop offset="0.33" stop-color="#FBD57F"/>
<stop offset="1" stop-color="#E39A5D"/>
</linearGradient>
<linearGradient id="paint63_linear_422_86" x1="1089.44" y1="201.22" x2="1109.86" y2="200.717" gradientUnits="userSpaceOnUse">
<stop stop-color="#DA995A"/>
<stop offset="0.33" stop-color="#FBD57F"/>
<stop offset="1" stop-color="#E39A5D"/>
</linearGradient>
<linearGradient id="paint64_linear_422_86" x1="1027.45" y1="213.819" x2="1046.02" y2="211.195" gradientUnits="userSpaceOnUse">
<stop stop-color="#DA995A"/>
<stop offset="0.33" stop-color="#FBD57F"/>
<stop offset="1" stop-color="#E39A5D"/>
</linearGradient>
<linearGradient id="paint65_linear_422_86" x1="1020.98" y1="198.785" x2="1118.45" y2="196.365" gradientUnits="userSpaceOnUse">
<stop stop-color="#DA995A"/>
<stop offset="0.33" stop-color="#FBD57F"/>
<stop offset="1" stop-color="#E39A5D"/>
</linearGradient>
<linearGradient id="paint66_linear_422_86" x1="1183.29" y1="184.147" x2="1216.57" y2="183.325" gradientUnits="userSpaceOnUse">
<stop stop-color="#DA995A"/>
<stop offset="0.33" stop-color="#FBD57F"/>
<stop offset="1" stop-color="#E39A5D"/>
</linearGradient>
<linearGradient id="paint67_linear_422_86" x1="1226.27" y1="177.182" x2="1255.54" y2="176.452" gradientUnits="userSpaceOnUse">
<stop stop-color="#DA995A"/>
<stop offset="0.33" stop-color="#FBD57F"/>
<stop offset="1" stop-color="#E39A5D"/>
</linearGradient>
<linearGradient id="paint68_linear_422_86" x1="1191.93" y1="178.692" x2="1251.42" y2="177.216" gradientUnits="userSpaceOnUse">
<stop stop-color="#DA995A"/>
<stop offset="0.33" stop-color="#FBD57F"/>
<stop offset="1" stop-color="#E39A5D"/>
</linearGradient>
<linearGradient id="paint69_linear_422_86" x1="1279.46" y1="170.433" x2="1298.49" y2="169.962" gradientUnits="userSpaceOnUse">
<stop stop-color="#DA995A"/>
<stop offset="0.33" stop-color="#FBD57F"/>
<stop offset="1" stop-color="#E39A5D"/>
</linearGradient>
<linearGradient id="paint70_linear_422_86" x1="1297.35" y1="164.517" x2="1321.3" y2="163.923" gradientUnits="userSpaceOnUse">
<stop stop-color="#DA995A"/>
<stop offset="0.33" stop-color="#FBD57F"/>
<stop offset="1" stop-color="#E39A5D"/>
</linearGradient>
<linearGradient id="paint71_linear_422_86" x1="1290.56" y1="162.791" x2="1317.62" y2="162.121" gradientUnits="userSpaceOnUse">
<stop stop-color="#DA995A"/>
<stop offset="0.33" stop-color="#FBD57F"/>
<stop offset="1" stop-color="#E39A5D"/>
</linearGradient>
<linearGradient id="paint72_linear_422_86" x1="941.466" y1="127.012" x2="966.216" y2="126.404" gradientUnits="userSpaceOnUse">
<stop stop-color="#DA995A"/>
<stop offset="0.33" stop-color="#FBD57F"/>
<stop offset="1" stop-color="#E39A5D"/>
</linearGradient>
<linearGradient id="paint73_linear_422_86" x1="964.974" y1="18.4901" x2="971.896" y2="18.4901" gradientUnits="userSpaceOnUse">
<stop stop-color="#DA995A"/>
<stop offset="0.33" stop-color="#FBD57F"/>
<stop offset="1" stop-color="#E39A5D"/>
</linearGradient>
<linearGradient id="paint74_linear_422_86" x1="902.028" y1="19.2452" x2="907.036" y2="19.2452" gradientUnits="userSpaceOnUse">
<stop stop-color="#DA995A"/>
<stop offset="0.33" stop-color="#FBD57F"/>
<stop offset="1" stop-color="#E39A5D"/>
</linearGradient>
<linearGradient id="paint75_linear_422_86" x1="1170.76" y1="138.738" x2="1210.25" y2="138.738" gradientUnits="userSpaceOnUse">
<stop stop-color="#DA995A"/>
<stop offset="0.33" stop-color="#FBD57F"/>
<stop offset="1" stop-color="#E39A5D"/>
</linearGradient>
<linearGradient id="paint76_linear_422_86" x1="1226.33" y1="137.228" x2="1264.53" y2="137.228" gradientUnits="userSpaceOnUse">
<stop stop-color="#DA995A"/>
<stop offset="0.33" stop-color="#FBD57F"/>
<stop offset="1" stop-color="#E39A5D"/>
</linearGradient>
<linearGradient id="paint77_linear_422_86" x1="967.777" y1="169.463" x2="1211.73" y2="169.463" gradientUnits="userSpaceOnUse">
<stop stop-color="#D99A59"/>
<stop offset="0.31" stop-color="#FBCC77"/>
<stop offset="0.56" stop-color="#FBD580" stop-opacity="0.99"/>
<stop offset="0.93" stop-color="#D09248" stop-opacity="0.99"/>
<stop offset="1" stop-color="#EC9E62" stop-opacity="0.98"/>
</linearGradient>
<linearGradient id="paint78_linear_422_86" x1="1227.89" y1="151.897" x2="1334.9" y2="151.897" gradientUnits="userSpaceOnUse">
<stop stop-color="#D99A59"/>
<stop offset="0.31" stop-color="#FBCC77"/>
<stop offset="0.56" stop-color="#FBD580" stop-opacity="0.99"/>
<stop offset="0.93" stop-color="#D09248" stop-opacity="0.99"/>
<stop offset="1" stop-color="#EC9E62" stop-opacity="0.98"/>
</linearGradient>
</defs>
</svg>
