<svg width="1920" height="512" viewBox="0 0 1920 512" fill="none" xmlns="http://www.w3.org/2000/svg">
<path fill-rule="evenodd" clip-rule="evenodd" d="M856.695 48.3618L828.895 0.209473L801.094 48.3618H856.695ZM801.098 463.848L828.898 512L856.699 463.848L801.098 463.848ZM621.152 228.303L573 256.104L621.152 283.905V228.303ZM1036.64 283.906L1084.79 256.105L1036.64 228.304L1036.64 283.906ZM951.117 31.2828L952.544 86.8661L903.694 60.3096L951.117 31.2828ZM706.681 480.925L705.255 425.342L754.105 451.898L706.681 480.925ZM604.075 133.884L659.658 132.458L633.101 181.307L604.075 133.884ZM1053.72 378.326L998.133 379.752L1024.69 330.902L1053.72 378.326ZM742.971 64.9361L693.957 38.6837L695.728 94.257L742.971 64.9361ZM914.828 447.277L963.842 473.53L962.07 417.956L914.828 447.277ZM637.725 342.035L611.472 391.049L667.046 389.277L637.725 342.035ZM1020.06 170.175L1046.32 121.161L990.742 122.933L1020.06 170.175ZM832.563 444.129C938.432 444.129 1024.26 358.305 1024.26 252.436C1024.26 146.568 938.432 60.7441 832.563 60.7441C726.695 60.7441 640.871 146.568 640.871 252.436C640.871 358.305 726.695 444.129 832.563 444.129Z" fill="#710810"/>
<path d="M1272.22 472.774C1271.67 405.118 1216.39 350.726 1148.74 351.272C1092.62 351.728 1045.62 389.842 1031.54 441.441C1020.24 430.858 1005.02 424.438 988.325 424.571C967.032 424.74 948.311 435.544 937.159 451.904C914.999 431.069 885.09 418.408 852.271 418.676C828.205 418.875 805.821 425.993 786.989 438.133C778.185 366.205 716.598 310.769 642.4 311.374C621.56 311.544 601.776 316.116 583.943 324.21C572.552 310.636 555.415 302.074 536.323 302.232C528.073 302.297 520.218 303.985 513.058 306.991C509.301 262.47 471.798 227.683 426.379 228.055C400.544 228.274 377.449 239.806 361.779 257.925L361.382 257.889C352.123 255.464 342.814 254.248 332.785 254.334C271.722 254.824 222.627 304.726 223.117 365.789" stroke="url(#paint0_linear_521_56)" stroke-width="2"/>
<path d="M223.442 365.907C212.568 347.081 192.951 333.72 169.65 331.795C151.374 330.285 134.191 336.07 120.952 346.735C109.746 289.083 61.4049 243.508 -0.00938398 238.421" stroke="url(#paint1_linear_521_56)" stroke-width="2"/>
<path d="M1250.46 405.358C1249.97 344.294 1299.07 294.392 1360.13 293.902C1370.16 293.817 1379.47 295.032 1388.73 297.458L1389.13 297.494C1404.8 279.374 1427.89 267.842 1453.73 267.623C1499.15 267.251 1536.65 302.039 1540.41 346.559C1547.57 343.553 1555.42 341.866 1563.67 341.8C1582.76 341.643 1599.9 350.204 1611.29 363.778C1629.12 355.685 1648.91 351.112 1669.75 350.942C1743.95 350.337 1805.53 405.773 1814.34 477.701C1833.17 465.562 1855.55 458.443 1879.62 458.245C1893.56 458.13 1906.98 460.35 1919.5 464.539" stroke="url(#paint2_linear_521_56)" stroke-width="2"/>
<defs>
<linearGradient id="paint0_linear_521_56" x1="930.243" y1="273.296" x2="874.329" y2="537.744" gradientUnits="userSpaceOnUse">
<stop stop-color="#DE9F54"/>
<stop offset="0.163765" stop-color="#FCD074" stop-opacity="0.995122"/>
<stop offset="0.253331" stop-color="#FCD97F" stop-opacity="0.993854"/>
<stop offset="0.452321" stop-color="#D59740" stop-opacity="0.985729"/>
<stop offset="1" stop-color="#ECA15C" stop-opacity="0.98"/>
</linearGradient>
<linearGradient id="paint1_linear_521_56" x1="75.2318" y1="237.226" x2="149.47" y2="407.395" gradientUnits="userSpaceOnUse">
<stop stop-color="#DE9F54"/>
<stop offset="0.163765" stop-color="#FCD074" stop-opacity="0.995122"/>
<stop offset="0.253331" stop-color="#FCD97F" stop-opacity="0.993854"/>
<stop offset="0.452321" stop-color="#D59740" stop-opacity="0.985729"/>
<stop offset="1" stop-color="#ECA15C" stop-opacity="0.98"/>
</linearGradient>
<linearGradient id="paint2_linear_521_56" x1="1705.91" y1="290.053" x2="1633.52" y2="547.43" gradientUnits="userSpaceOnUse">
<stop stop-color="#DE9F54"/>
<stop offset="0.163765" stop-color="#FCD074" stop-opacity="0.995122"/>
<stop offset="0.253331" stop-color="#FCD97F" stop-opacity="0.993854"/>
<stop offset="0.452321" stop-color="#D59740" stop-opacity="0.985729"/>
<stop offset="1" stop-color="#ECA15C" stop-opacity="0.98"/>
</linearGradient>
</defs>
</svg>
