<svg width="459" height="441" viewBox="0 0 459 441" fill="none" xmlns="http://www.w3.org/2000/svg">
<path d="M150.751 351.988C149.88 352.233 149.107 352.24 149.047 352.002L112.622 220.942C112.551 220.708 113.214 220.313 114.089 220.079C114.96 219.834 115.733 219.826 115.793 220.064L152.218 351.125C152.29 351.358 151.626 351.754 150.751 351.988Z" stroke="url(#paint0_linear_230_1997)" stroke-width="2"/>
<path d="M114.547 220.294C80.7765 229.677 45.7871 209.915 36.4037 176.144L26.8583 141.796C17.4748 108.025 37.2374 73.0358 71.0083 63.6523C104.779 54.2689 139.769 74.0314 149.152 107.802L158.697 142.15C168.081 175.921 148.318 210.91 114.547 220.294Z" stroke="url(#paint1_linear_230_1997)" stroke-width="2"/>
<path d="M113.309 100.56C114.415 99.9007 115.517 99.2958 116.622 98.7292C115.523 99.2799 114.41 99.8895 113.309 100.56Z" stroke="url(#paint2_linear_230_1997)" stroke-width="2"/>
<path d="M112.983 100.748C111.871 101.423 110.76 102.164 109.645 102.958" stroke="url(#paint3_linear_230_1997)" stroke-width="2"/>
<path d="M118.601 97.7856C118.057 98.026 117.522 98.2887 116.976 98.5562" stroke="url(#paint4_linear_230_1997)" stroke-width="2"/>
<path d="M120.212 97.0858C119.674 97.3103 119.137 97.5348 118.597 97.7863C119.141 97.546 119.674 97.3103 120.212 97.0858Z" stroke="url(#paint5_linear_230_1997)" stroke-width="2"/>
<path d="M102.205 109.392C101.118 110.504 100.063 111.694 99.0091 112.95C100.058 111.683 101.129 110.499 102.205 109.392Z" stroke="url(#paint6_linear_230_1997)" stroke-width="2"/>
<path d="M102.465 109.127C103.546 108.031 104.639 106.996 105.754 106.044C104.644 107.007 103.558 108.026 102.465 109.127Z" stroke="url(#paint7_linear_230_1997)" stroke-width="2"/>
<path d="M106.024 105.812C107.127 104.865 108.236 103.994 109.358 103.183C108.236 103.994 107.132 104.876 106.024 105.812Z" stroke="url(#paint8_linear_230_1997)" stroke-width="2"/>
<path d="M125.672 95.1728C125.167 95.3179 124.644 95.4835 124.133 95.6445C124.655 95.4789 125.167 95.3179 125.672 95.1728Z" stroke="url(#paint9_linear_230_1997)" stroke-width="2"/>
<path d="M120.592 96.926C121.118 96.7062 121.643 96.5135 122.167 96.3208C121.643 96.5135 121.123 96.7174 120.592 96.926Z" stroke="url(#paint10_linear_230_1997)" stroke-width="2"/>
<path d="M129.85 94.1516C129.85 94.1516 129.85 94.1516 129.845 94.1404C128.488 94.4179 127.105 94.7588 125.674 95.1726C127.105 94.7588 128.493 94.4291 129.85 94.1516Z" stroke="url(#paint11_linear_230_1997)" stroke-width="2"/>
<path d="M122.182 96.3162C122.706 96.1234 123.235 95.9419 123.753 95.765" stroke="url(#paint12_linear_230_1997)" stroke-width="2"/>
<path d="M46.1513 102.702C48.9225 101.308 51.8767 99.9424 54.9784 98.6469C57.997 97.373 61.138 96.1401 64.3994 94.9752C64.713 94.8443 65.0471 94.731 65.3858 94.629C67.6768 93.8168 70.0312 93.0308 72.4267 92.2801C74.4098 91.6754 76.42 91.0726 78.46 90.5099C80.5001 89.9472 82.5271 89.4162 84.541 88.917C86.975 88.3212 89.394 87.7843 91.7823 87.2997C92.1304 87.2201 92.4674 87.1451 92.8089 87.0814C96.2061 86.399 99.5353 85.837 102.771 85.3667C106.095 84.8859 109.328 84.535 112.423 84.2944C114.998 84.1 117.498 83.9765 119.877 83.9428C108.033 74.7265 92.3583 70.6997 76.795 74.1488C59.2661 78.0243 46.0048 90.4802 39.9458 106.043C41.8939 104.914 43.9549 103.803 46.129 102.711L46.1513 102.702Z" stroke="url(#paint13_linear_230_1997)" stroke-width="2"/>
<path d="M124.592 132.985C112.987 136.215 100.955 129.417 97.7373 117.808C97.4967 116.948 97.3373 116.094 97.2003 115.231C97.715 114.542 98.2437 113.888 98.7612 113.238C95.2718 117.509 91.996 122.638 89.1215 128.823C84.3106 125.585 79.6627 123.147 75.189 121.347C75.5211 122.142 75.813 122.967 76.0536 123.826C79.2829 135.431 72.4853 147.462 60.8759 150.68C53.1356 152.835 45.2059 150.505 39.8285 145.281L47.2813 172.099C55.2894 200.908 85.7715 217.845 114.113 208.31C140.034 199.588 154.942 171.9 147.532 145.248L139.822 117.498C137.908 124.754 132.332 130.831 124.587 132.974L124.592 132.985Z" stroke="url(#paint14_linear_230_1997)" stroke-width="2"/>
<path d="M46.0996 117.689C47.2485 117.512 48.4274 117.375 49.6473 117.273C48.4386 117.37 47.2485 117.512 46.0996 117.689Z" stroke="url(#paint15_linear_230_1997)" stroke-width="2"/>
<path d="M53.8224 117.094C52.5333 117.093 51.2788 117.144 50.043 117.239C51.2676 117.149 52.5333 117.093 53.8224 117.094Z" stroke="url(#paint16_linear_230_1997)" stroke-width="2"/>
<path d="M44.0332 118.038C44.5792 117.928 45.1457 117.836 45.7122 117.744C45.1457 117.836 44.5904 117.923 44.0332 118.038Z" stroke="url(#paint17_linear_230_1997)" stroke-width="2"/>
<path d="M42.3906 118.383C42.9319 118.262 43.4732 118.142 44.0239 118.043C43.4779 118.153 42.9319 118.262 42.3906 118.383Z" stroke="url(#paint18_linear_230_1997)" stroke-width="2"/>
<path d="M54.1914 117.098C55.4964 117.105 56.8359 117.164 58.1942 117.267C56.8313 117.153 55.4964 117.105 54.1914 117.098Z" stroke="url(#paint19_linear_230_1997)" stroke-width="2"/>
<path d="M58.5605 117.298C59.9394 117.419 61.3416 117.596 62.7718 117.841" stroke="url(#paint20_linear_230_1997)" stroke-width="2"/>
<path d="M75.1931 121.358C74.3993 121.032 73.6085 120.744 72.8223 120.467C73.6085 120.744 74.3928 121.048 75.1931 121.358Z" stroke="url(#paint21_linear_230_1997)" stroke-width="2"/>
<path d="M40.4434 118.854C40.9529 118.72 41.4783 118.593 42.0038 118.466" stroke="url(#paint22_linear_230_1997)" stroke-width="2"/>
<path d="M36.5867 120.044C37.8176 119.622 39.0914 119.209 40.4381 118.844C39.0867 119.198 37.8194 119.595 36.5932 120.029L36.5867 120.044Z" stroke="url(#paint23_linear_230_1997)" stroke-width="2"/>
<path d="M67.8809 118.928C69.3766 119.329 70.9116 119.793 72.4522 120.333C70.9004 119.797 69.3766 119.329 67.8809 118.928Z" stroke="url(#paint24_linear_230_1997)" stroke-width="2"/>
<path d="M63.1211 117.892C64.5672 118.143 66.0255 118.455 67.5278 118.84C66.0367 118.45 64.5672 118.143 63.1211 117.892Z" stroke="url(#paint25_linear_230_1997)" stroke-width="2"/>
<path d="M97.8892 118.258C101.306 129.588 113.14 136.165 124.595 132.985L124.598 132.931C128.535 131.84 131.91 129.72 134.53 126.955L142.991 157.416C143.716 160.033 142.193 162.747 139.576 163.472C136.959 164.196 134.245 162.673 133.521 160.056L136.7 171.511C137.425 174.128 135.902 176.842 133.285 177.566C130.668 178.291 127.954 176.768 127.23 174.151L129.282 181.553C130.018 184.165 128.484 186.883 125.878 187.603C123.261 188.328 120.548 186.805 119.823 184.188L121.744 191.119C122.469 193.735 120.946 196.449 118.329 197.174C115.717 197.91 112.998 196.376 112.274 193.759L114.092 200.285C114.817 202.902 113.294 205.616 110.677 206.34C108.06 207.065 105.346 205.542 104.622 202.925L102.803 196.399C103.539 199.011 102.005 201.73 99.3882 202.455C96.7761 203.19 94.0575 201.656 93.3328 199.039L91.4115 192.109C92.1362 194.726 90.6132 197.44 87.9965 198.165C85.3909 198.885 82.677 197.362 81.9523 194.745L79.8999 187.343C80.6246 189.96 79.1016 192.674 76.4848 193.399C73.8681 194.123 71.1542 192.601 70.4295 189.984L67.2498 178.529C67.6075 179.826 67.407 181.173 66.7835 182.262C66.1692 183.373 65.1432 184.222 63.8236 184.589C61.2068 185.314 58.4929 183.791 57.7682 181.174L49.307 150.713C52.9865 151.715 56.9678 151.801 60.9042 150.709C72.354 147.518 79.0995 135.772 76.1813 124.313" stroke="url(#paint26_linear_230_1997)" stroke-width="2"/>
<path d="M124.594 132.985C112.989 136.214 100.958 129.416 97.7397 117.807C97.4991 116.947 97.3396 116.093 97.2026 115.23C97.7173 114.542 98.246 113.887 98.7636 113.237C95.2742 117.508 91.9983 122.638 89.1238 128.822C83.4658 125.005 78.0252 122.306 72.8318 120.451C73.618 120.727 74.3977 121.02 75.1914 121.346C75.5234 122.141 75.8154 122.966 76.056 123.825C79.2852 135.43 72.4877 147.462 60.8782 150.68C56.9642 151.762 53.0035 151.693 49.351 150.694L52.7451 162.914C53.4698 165.53 56.1837 167.053 58.8004 166.329C60.12 165.962 61.1461 165.112 61.7603 164.001C62.3839 162.912 62.5844 161.566 62.2267 160.269L65.4064 171.723C66.131 174.34 68.8449 175.863 71.4617 175.138C74.0785 174.414 75.6127 171.695 74.8768 169.083L76.9292 176.484C77.6538 179.101 80.3677 180.624 82.9733 179.904C85.5901 179.179 87.1131 176.466 86.3884 173.849L88.3097 180.779C89.0344 183.396 91.7529 184.93 94.3651 184.194C96.9818 183.469 98.516 180.751 97.7801 178.139L99.5984 184.665C100.323 187.282 103.037 188.805 105.654 188.08C108.271 187.355 109.794 184.641 109.069 182.025L107.251 175.498C107.975 178.115 110.689 179.638 113.306 178.913C115.923 178.189 117.446 175.475 116.721 172.858L114.8 165.928C115.524 168.545 118.238 170.068 120.855 169.343C123.461 168.623 124.995 165.904 124.259 163.292L122.207 155.891C122.931 158.508 125.645 160.031 128.262 159.306C130.879 158.581 132.402 155.867 131.677 153.25L128.497 141.796C129.222 144.413 131.941 145.947 134.553 145.211C137.17 144.486 138.693 141.772 137.968 139.156L134.557 126.864C131.92 129.649 128.542 131.796 124.572 132.902L124.594 132.985Z" stroke="url(#paint27_linear_230_1997)" stroke-width="2"/>
<path d="M124.595 132.985C112.99 136.214 100.959 129.417 97.7411 117.807C97.5005 116.948 97.341 116.094 97.204 115.23C97.7187 114.542 98.2474 113.887 98.765 113.237C95.2756 117.509 91.9997 122.638 89.1252 128.823C84.3143 125.585 79.6665 123.147 75.1928 121.346C75.5248 122.141 75.8167 122.966 76.0574 123.826C79.2866 135.43 72.489 147.462 60.8796 150.68C60.4419 150.797 60.0061 150.887 59.5702 150.977L60.4045 153.982C61.1292 156.599 63.843 158.121 66.4598 157.397C69.0766 156.672 70.5996 153.958 69.8749 151.341L71.9273 158.743C72.652 161.36 75.3658 162.883 77.9714 162.163C80.5882 161.438 82.1112 158.724 81.3865 156.107L83.3078 163.037C84.0325 165.654 86.7464 167.177 89.3632 166.453C91.98 165.728 93.5141 163.009 92.7782 160.397L94.5965 166.923C95.3212 169.54 98.0398 171.074 100.652 170.338C103.269 169.614 104.792 166.9 104.067 164.283L102.249 157.757C102.973 160.374 105.687 161.897 108.304 161.172C110.921 160.447 112.444 157.733 111.719 155.117L109.798 148.186C110.523 150.803 113.236 152.326 115.853 151.601C118.459 150.881 119.993 148.163 119.257 145.551L117.205 138.149C117.929 140.766 120.643 142.289 123.26 141.564C125.877 140.84 127.4 138.126 126.675 135.509L125.841 132.504C125.417 132.655 125.005 132.801 124.572 132.929L124.595 132.985Z" stroke="url(#paint28_linear_230_1997)" stroke-width="2"/>
<path d="M122.552 83.9177C119.394 83.8821 115.997 83.9988 112.443 84.2735C109.348 84.5141 106.115 84.865 102.791 85.3457C99.5506 85.8049 96.2262 86.378 92.829 87.0604C92.4874 87.1242 92.1458 87.188 91.8024 87.2788C89.4141 87.7634 86.995 88.3003 84.5611 88.896C82.5471 89.3952 80.5201 89.9262 78.48 90.4889C76.44 91.0517 74.4298 91.6545 72.4468 92.2592C70.0512 93.0098 67.6968 93.7959 65.4058 94.608C65.0671 94.7101 64.7377 94.8345 64.4195 94.9543C61.1468 96.1238 58.0059 97.3568 54.9984 98.626C51.8967 99.9214 48.9472 101.298 46.1714 102.681C42.984 104.275 40.0161 105.922 37.3301 107.583C25.1072 115.095 18.2904 123.018 20.0253 129.25C20.0253 129.25 27.6849 122.211 40.4526 118.838C51.2988 115.965 65.8315 115.748 82.4648 124.779C82.999 122.846 84.3559 121.372 86.8626 120.667C89.3693 119.962 91.2936 120.539 92.75 121.917C102.347 105.599 114.9 98.2788 125.676 95.1454C138.347 91.4449 148.551 93.5216 148.551 93.5216C146.821 87.3007 136.894 84.0298 122.554 83.8906L122.552 83.9177Z" stroke="url(#paint29_linear_230_1997)" stroke-width="2"/>
<path d="M35.2757 120.515C33.1718 125.049 32.5891 130.33 34.0357 135.525C37.2649 147.13 49.2804 153.921 60.8899 150.703C72.4946 147.473 79.2857 135.458 76.0676 123.848C75.827 122.989 75.5239 122.169 75.203 121.369C61.5962 115.9 49.6867 116.416 40.4522 118.866C38.6184 119.356 36.8938 119.918 35.2804 120.526L35.2757 120.515ZM52.5241 120.597C57.5421 119.198 62.743 122.141 64.1418 127.159C65.5406 132.177 62.5971 137.378 57.5791 138.777C52.5611 140.176 47.3603 137.232 45.9615 132.214C44.5627 127.196 47.5061 121.995 52.5241 120.597Z" stroke="url(#paint30_linear_230_1997)" stroke-width="2"/>
<path d="M130.964 93.912C129.267 94.2261 127.504 94.6337 125.685 95.157C116.512 97.8176 106.038 103.534 97.2069 115.231C97.3392 116.083 97.5033 116.948 97.7439 117.807C100.973 129.412 112.989 136.203 124.598 132.985C136.203 129.756 142.994 117.74 139.776 106.131C138.329 100.936 135.119 96.7135 130.964 93.912ZM127.85 109.442C129.249 114.46 126.305 119.661 121.287 121.059C116.269 122.458 111.068 119.515 109.67 114.497C108.271 109.479 111.214 104.278 116.232 102.879C121.25 101.48 126.451 104.424 127.85 109.442Z" stroke="url(#paint31_linear_230_1997)" stroke-width="2"/>
<path d="M86.8561 120.682C72.3294 124.724 96.1581 154.132 96.1581 154.132C96.1581 154.132 101.394 116.636 86.8561 120.682Z" stroke="url(#paint32_linear_230_1997)" stroke-width="2"/>
<path d="M344.58 168.886L350.905 154.172C325.961 148.922 287.08 157.976 287.08 157.976C287.08 157.976 266.88 123.543 245.898 109.079L239.572 123.794C269.791 137.46 272.742 184.975 216.705 215.165C221.805 229.743 232.778 242.19 248.077 248.763C263.377 255.336 279.968 254.698 294.046 248.378C277.36 186.938 313.86 156.361 344.58 168.886Z" stroke="url(#paint33_linear_230_1997)" stroke-width="2" stroke-miterlimit="10" stroke-linecap="round"/>
<path d="M351.792 112.237C346.501 99.0105 331.494 92.5613 318.262 97.8236C315.538 98.9087 313.109 100.446 311 102.252C310.861 99.4678 310.295 96.6453 309.21 93.9213C303.918 80.6948 288.912 74.2455 275.68 79.5078C262.453 84.799 256.004 99.8058 261.266 113.038C265.821 124.431 277.545 130.756 289.165 128.969C291.278 124.352 296.639 120.464 302.14 122.828C307.642 125.192 308.528 131.751 306.615 136.479C313.295 146.153 325.98 150.293 337.373 145.738C350.599 140.447 357.049 125.44 351.786 112.208L351.792 112.237Z" stroke="url(#paint34_linear_230_1997)" stroke-width="2" stroke-miterlimit="10" stroke-linecap="round"/>
<path d="M287.996 117.92C295.965 116.408 301.199 108.721 299.686 100.753C298.173 92.784 290.487 87.5504 282.518 89.0631C274.55 90.5757 269.316 98.2619 270.829 106.231C272.341 114.199 280.028 119.433 287.996 117.92Z" stroke="url(#paint35_linear_230_1997)" stroke-width="2" stroke-miterlimit="10" stroke-linecap="round"/>
<path d="M288.161 104.764C287.477 106.359 285.615 107.101 284.02 106.417C282.426 105.733 281.684 103.871 282.367 102.276C283.051 100.681 284.913 99.9392 286.508 100.623C288.103 101.307 288.845 103.169 288.161 104.764Z" stroke="url(#paint36_linear_230_1997)" stroke-width="2" stroke-miterlimit="10" stroke-linecap="round"/>
<path d="M330.572 136.208C338.541 134.695 343.775 127.009 342.262 119.04C340.749 111.071 333.063 105.838 325.095 107.35C317.126 108.863 311.892 116.549 313.405 124.518C314.918 132.487 322.604 137.72 330.572 136.208Z" stroke="url(#paint37_linear_230_1997)" stroke-width="2" stroke-miterlimit="10" stroke-linecap="round"/>
<path d="M330.77 123.074C330.062 124.704 328.2 125.446 326.571 124.738C324.942 124.031 324.2 122.169 324.907 120.54C325.614 118.911 327.477 118.169 329.106 118.876C330.735 119.583 331.477 121.445 330.77 123.074Z" stroke="url(#paint38_linear_230_1997)" stroke-width="2" stroke-miterlimit="10" stroke-linecap="round"/>
<path d="M300.128 182.766C300.128 182.766 300.128 182.766 300.104 182.801C283.691 189.414 270.197 197.238 270.197 197.238C270.197 197.238 266.601 182.075 260.098 165.61C260.098 165.61 260.098 165.61 260.092 165.582C256.788 182.353 243.479 200.755 216.677 215.17C221.777 229.749 232.75 242.196 248.049 248.769C263.349 255.342 279.94 254.704 294.018 248.384C286.05 219.013 290.215 196.696 300.128 182.766Z" stroke="url(#paint39_linear_230_1997)" stroke-width="2" stroke-miterlimit="10" stroke-linecap="round"/>
<path d="M302.149 122.858C295.116 119.828 288.312 126.979 288.208 132.889C288.065 141.586 290.189 148.836 290.871 149.125C291.554 149.414 298.253 145.96 304.482 139.875C308.688 135.728 309.211 125.882 302.178 122.852L302.149 122.858Z" stroke="url(#paint40_linear_230_1997)" stroke-width="2" stroke-miterlimit="10" stroke-linecap="round"/>
<path d="M303.889 58.6365C289.002 48.2481 286.713 39.6538 286.713 39.6538C286.713 39.6538 279.445 54.1283 283.35 60.6819C287.521 67.6932 302.33 86.647 309.016 95.0944C309.762 96.0291 311.267 95.295 310.956 94.1283C308.741 85.6096 304.51 68.8333 303.682 62.114C303.565 61.1796 303.663 59.965 303.855 58.6132L303.889 58.6365Z" stroke="url(#paint41_linear_230_1997)" stroke-width="2" stroke-miterlimit="10" stroke-linecap="round"/>
<path d="M373.168 76.7879C373.168 76.7879 365.367 81.0493 347.573 77.4012C346.733 78.4875 345.946 79.3842 345.157 79.9525C339.105 84.4499 321.01 94.4921 314.593 98.0123C314.077 98.2896 314.317 99.0811 314.905 99.0293C323.577 98.2502 351.519 95.6667 360.237 93.7128C367.69 92.0289 373.197 76.7824 373.197 76.7824L373.168 76.7879Z" stroke="url(#paint42_linear_230_1997)" stroke-width="2" stroke-miterlimit="10" stroke-linecap="round"/>
<path d="M358.184 56.7611C358.184 56.7611 346.743 69.7258 328.386 61.8496C310.029 53.9734 311.54 36.735 311.54 36.735C311.54 36.735 302.882 55.5394 303.682 62.1144C304.79 71.2618 312.287 99.2573 312.287 99.2573C312.287 99.2573 337.735 85.4276 345.157 79.9528C350.478 76.0127 358.161 56.7955 358.161 56.7955L358.184 56.7611Z" stroke="url(#paint43_linear_230_1997)" stroke-width="2" stroke-miterlimit="10" stroke-linecap="round"/>
<path d="M291.238 235.488C279.556 238.363 266.924 237.652 255.015 232.558C243.106 227.464 233.916 218.744 227.958 208.305C224.519 210.662 220.764 212.93 216.722 215.102C221.821 229.68 232.742 242.167 248.047 248.769C263.346 255.342 279.927 254.646 294.033 248.321C292.832 243.885 291.901 239.607 291.238 235.488Z" stroke="url(#paint44_linear_230_1997)" stroke-width="2" stroke-miterlimit="10" stroke-linecap="round"/>
<path d="M308.893 253.84C295.936 204.01 318.268 174.866 343.563 173.144L308.893 253.84Z" stroke="url(#paint45_linear_230_1997)" stroke-width="2" stroke-miterlimit="10" stroke-linecap="round"/>
<path d="M202.515 208.141C247.595 183.23 253.365 147.006 237.185 127.445L202.515 208.141Z" stroke="url(#paint46_linear_230_1997)" stroke-width="2" stroke-miterlimit="10" stroke-linecap="round"/>
<path d="M300.102 182.8C310.903 167.566 328.541 162.364 344.578 168.886L346.194 165.112C320.707 161.1 279.338 175.949 279.338 175.949C279.338 175.949 261.627 135.721 241.181 119.99L239.565 123.765C255.36 130.902 263.702 147.286 260.095 165.61C266.599 182.075 270.195 197.237 270.195 197.237C270.195 197.237 283.688 189.414 300.102 182.8Z" stroke="url(#paint47_linear_230_1997)" stroke-width="2" stroke-miterlimit="10" stroke-linecap="round"/>
<path d="M344.582 168.916L354.639 145.511C361.914 128.553 360.344 110.046 352.005 95.0959C337.146 97.1393 312.29 99.2865 312.29 99.2865C312.29 99.2865 296.72 79.7895 287.98 67.6063C271.387 71.8622 256.878 83.4661 249.597 100.395L239.54 123.8C269.759 137.466 272.699 184.923 216.726 215.131C221.825 229.709 232.746 242.196 248.051 248.798C263.35 255.371 279.931 254.675 294.037 248.35C277.391 186.962 313.868 156.419 344.588 168.944L344.582 168.916Z" stroke="url(#paint48_linear_230_1997)" stroke-width="2" stroke-miterlimit="10" stroke-linecap="round"/>
<path d="M239.45 123.162L195.393 224.651C273.594 195.934 273.76 137.906 239.45 123.162Z" stroke="url(#paint49_linear_230_1997)" stroke-width="2" stroke-miterlimit="10" stroke-linecap="round"/>
<path d="M345.26 169.175L301.772 270.35C268.776 193.859 310.916 154.408 345.26 169.175Z" stroke="url(#paint50_linear_230_1997)" stroke-width="2" stroke-miterlimit="10" stroke-linecap="round"/>
<path fill-rule="evenodd" clip-rule="evenodd" d="M243.52 247.644C243.754 247.144 243.538 246.548 243.038 246.314C242.538 246.079 241.943 246.295 241.709 246.795L238.527 253.585L238.526 253.586L232.317 266.876L232.316 266.877L226.03 280.311L226.03 280.312L219.671 293.916L219.671 293.917L213.385 307.352L207.098 320.787L207.098 320.788L200.816 334.248L200.812 334.256L176.078 388.386C175.848 388.889 176.069 389.482 176.572 389.712C177.074 389.941 177.667 389.72 177.897 389.218L202.628 335.094L202.632 335.087L208.91 321.635L208.91 321.634L215.196 308.199L221.483 294.764L221.483 294.764L227.841 281.159L227.842 281.159L234.128 267.724L234.128 267.723L240.338 254.434L240.338 254.433L243.52 247.644ZM247.63 249.085C247.864 248.585 247.649 247.989 247.148 247.755C246.648 247.521 246.053 247.736 245.819 248.236L242.637 255.026L242.637 255.027L236.427 268.317L236.426 268.318L230.14 281.753L230.14 281.753L223.782 295.357L223.781 295.358L217.495 308.793L211.208 322.228L211.208 322.229L204.926 335.689L204.923 335.696L179.092 392.084C178.862 392.586 179.083 393.179 179.585 393.409C180.087 393.639 180.68 393.419 180.911 392.917L206.738 336.535L206.741 336.529L213.02 323.076L213.02 323.075L219.306 309.64L225.593 296.205L225.593 296.205L231.952 282.6L231.952 282.6L238.238 269.165L238.238 269.164L244.448 255.875L244.449 255.874L247.63 249.085Z" fill="url(#paint51_linear_230_1997)"/>
<path fill-rule="evenodd" clip-rule="evenodd" d="M241.347 120.1L237.796 128.219C253.366 147.891 247.294 183.593 202.781 208.254L195.527 224.837C273.727 196.12 273.416 140.866 241.347 120.1ZM346.725 164.902L343.131 173.374C318.103 175.492 296.226 204.505 308.99 253.855L301.913 270.536C268.917 194.045 307.678 161.295 346.725 164.902Z" fill="url(#paint52_linear_230_1997)"/>
<defs>
<linearGradient id="paint0_linear_230_1997" x1="109.203" y1="222.066" x2="73.8223" y2="246.42" gradientUnits="userSpaceOnUse">
<stop stop-color="#DE9F54"/>
<stop offset="0.163765" stop-color="#FCD074" stop-opacity="0.995122"/>
<stop offset="0.253331" stop-color="#FCD97F" stop-opacity="0.993854"/>
<stop offset="0.452321" stop-color="#D59740" stop-opacity="0.985729"/>
<stop offset="1" stop-color="#ECA15C" stop-opacity="0.98"/>
</linearGradient>
<linearGradient id="paint1_linear_230_1997" x1="80.9096" y1="58.9766" x2="21.574" y2="237.253" gradientUnits="userSpaceOnUse">
<stop stop-color="#DE9F54"/>
<stop offset="0.163765" stop-color="#FCD074" stop-opacity="0.995122"/>
<stop offset="0.253331" stop-color="#FCD97F" stop-opacity="0.993854"/>
<stop offset="0.452321" stop-color="#D59740" stop-opacity="0.985729"/>
<stop offset="1" stop-color="#ECA15C" stop-opacity="0.98"/>
</linearGradient>
<linearGradient id="paint2_linear_230_1997" x1="115.442" y1="99.2219" x2="115.64" y2="99.8219" gradientUnits="userSpaceOnUse">
<stop stop-color="#DE9F54"/>
<stop offset="0.163765" stop-color="#FCD074" stop-opacity="0.995122"/>
<stop offset="0.253331" stop-color="#FCD97F" stop-opacity="0.993854"/>
<stop offset="0.452321" stop-color="#D59740" stop-opacity="0.985729"/>
<stop offset="1" stop-color="#ECA15C" stop-opacity="0.98"/>
</linearGradient>
<linearGradient id="paint3_linear_230_1997" x1="111.75" y1="101.263" x2="112.046" y2="102.369" gradientUnits="userSpaceOnUse">
<stop stop-color="#DE9F54"/>
<stop offset="0.163765" stop-color="#FCD074" stop-opacity="0.995122"/>
<stop offset="0.253331" stop-color="#FCD97F" stop-opacity="0.993854"/>
<stop offset="0.452321" stop-color="#D59740" stop-opacity="0.985729"/>
<stop offset="1" stop-color="#ECA15C" stop-opacity="0.98"/>
</linearGradient>
<linearGradient id="paint4_linear_230_1997" x1="118.037" y1="98.0209" x2="118.084" y2="98.1428" gradientUnits="userSpaceOnUse">
<stop stop-color="#DE9F54"/>
<stop offset="0.163765" stop-color="#FCD074" stop-opacity="0.995122"/>
<stop offset="0.253331" stop-color="#FCD97F" stop-opacity="0.993854"/>
<stop offset="0.452321" stop-color="#D59740" stop-opacity="0.985729"/>
<stop offset="1" stop-color="#ECA15C" stop-opacity="0.98"/>
</linearGradient>
<linearGradient id="paint5_linear_230_1997" x1="119.66" y1="97.3163" x2="119.674" y2="97.3508" gradientUnits="userSpaceOnUse">
<stop stop-color="#DE9F54"/>
<stop offset="0.163765" stop-color="#FCD074" stop-opacity="0.995122"/>
<stop offset="0.253331" stop-color="#FCD97F" stop-opacity="0.993854"/>
<stop offset="0.452321" stop-color="#D59740" stop-opacity="0.985729"/>
<stop offset="1" stop-color="#ECA15C" stop-opacity="0.98"/>
</linearGradient>
<linearGradient id="paint6_linear_230_1997" x1="100.85" y1="109.958" x2="101.066" y2="112.936" gradientUnits="userSpaceOnUse">
<stop stop-color="#DE9F54"/>
<stop offset="0.163765" stop-color="#FCD074" stop-opacity="0.995122"/>
<stop offset="0.253331" stop-color="#FCD97F" stop-opacity="0.993854"/>
<stop offset="0.452321" stop-color="#D59740" stop-opacity="0.985729"/>
<stop offset="1" stop-color="#ECA15C" stop-opacity="0.98"/>
</linearGradient>
<linearGradient id="paint7_linear_230_1997" x1="104.43" y1="106.597" x2="104.752" y2="108.917" gradientUnits="userSpaceOnUse">
<stop stop-color="#DE9F54"/>
<stop offset="0.163765" stop-color="#FCD074" stop-opacity="0.995122"/>
<stop offset="0.253331" stop-color="#FCD97F" stop-opacity="0.993854"/>
<stop offset="0.452321" stop-color="#D59740" stop-opacity="0.985729"/>
<stop offset="1" stop-color="#ECA15C" stop-opacity="0.98"/>
</linearGradient>
<linearGradient id="paint8_linear_230_1997" x1="108.075" y1="103.719" x2="108.419" y2="105.403" gradientUnits="userSpaceOnUse">
<stop stop-color="#DE9F54"/>
<stop offset="0.163765" stop-color="#FCD074" stop-opacity="0.995122"/>
<stop offset="0.253331" stop-color="#FCD97F" stop-opacity="0.993854"/>
<stop offset="0.452321" stop-color="#D59740" stop-opacity="0.985729"/>
<stop offset="1" stop-color="#ECA15C" stop-opacity="0.98"/>
</linearGradient>
<linearGradient id="paint9_linear_230_1997" x1="125.109" y1="95.237" x2="125.186" y2="95.4659" gradientUnits="userSpaceOnUse">
<stop stop-color="#DE9F54"/>
<stop offset="0.163765" stop-color="#FCD074" stop-opacity="0.995122"/>
<stop offset="0.253331" stop-color="#FCD97F" stop-opacity="0.993854"/>
<stop offset="0.452321" stop-color="#D59740" stop-opacity="0.985729"/>
<stop offset="1" stop-color="#ECA15C" stop-opacity="0.98"/>
</linearGradient>
<linearGradient id="paint10_linear_230_1997" x1="121.619" y1="96.4969" x2="121.647" y2="96.5662" gradientUnits="userSpaceOnUse">
<stop stop-color="#DE9F54"/>
<stop offset="0.163765" stop-color="#FCD074" stop-opacity="0.995122"/>
<stop offset="0.253331" stop-color="#FCD97F" stop-opacity="0.993854"/>
<stop offset="0.452321" stop-color="#D59740" stop-opacity="0.985729"/>
<stop offset="1" stop-color="#ECA15C" stop-opacity="0.98"/>
</linearGradient>
<linearGradient id="paint11_linear_230_1997" x1="128.261" y1="94.0921" x2="128.547" y2="95.0696" gradientUnits="userSpaceOnUse">
<stop stop-color="#DE9F54"/>
<stop offset="0.163765" stop-color="#FCD074" stop-opacity="0.995122"/>
<stop offset="0.253331" stop-color="#FCD97F" stop-opacity="0.993854"/>
<stop offset="0.452321" stop-color="#D59740" stop-opacity="0.985729"/>
<stop offset="1" stop-color="#ECA15C" stop-opacity="0.98"/>
</linearGradient>
<linearGradient id="paint12_linear_230_1997" x1="123.194" y1="95.8932" x2="123.246" y2="96.0329" gradientUnits="userSpaceOnUse">
<stop stop-color="#DE9F54"/>
<stop offset="0.163765" stop-color="#FCD074" stop-opacity="0.995122"/>
<stop offset="0.253331" stop-color="#FCD97F" stop-opacity="0.993854"/>
<stop offset="0.452321" stop-color="#D59740" stop-opacity="0.985729"/>
<stop offset="1" stop-color="#ECA15C" stop-opacity="0.98"/>
</linearGradient>
<linearGradient id="paint13_linear_230_1997" x1="83.8787" y1="70.3105" x2="90.6814" y2="109.336" gradientUnits="userSpaceOnUse">
<stop stop-color="#DE9F54"/>
<stop offset="0.163765" stop-color="#FCD074" stop-opacity="0.995122"/>
<stop offset="0.253331" stop-color="#FCD97F" stop-opacity="0.993854"/>
<stop offset="0.452321" stop-color="#D59740" stop-opacity="0.985729"/>
<stop offset="1" stop-color="#ECA15C" stop-opacity="0.98"/>
</linearGradient>
<linearGradient id="paint14_linear_230_1997" x1="98.079" y1="111.787" x2="77.5562" y2="234.008" gradientUnits="userSpaceOnUse">
<stop stop-color="#DE9F54"/>
<stop offset="0.163765" stop-color="#FCD074" stop-opacity="0.995122"/>
<stop offset="0.253331" stop-color="#FCD97F" stop-opacity="0.993854"/>
<stop offset="0.452321" stop-color="#D59740" stop-opacity="0.985729"/>
<stop offset="1" stop-color="#ECA15C" stop-opacity="0.98"/>
</linearGradient>
<linearGradient id="paint15_linear_230_1997" x1="48.1914" y1="116.816" x2="48.4801" y2="118.267" gradientUnits="userSpaceOnUse">
<stop stop-color="#DE9F54"/>
<stop offset="0.163765" stop-color="#FCD074" stop-opacity="0.995122"/>
<stop offset="0.253331" stop-color="#FCD97F" stop-opacity="0.993854"/>
<stop offset="0.452321" stop-color="#D59740" stop-opacity="0.985729"/>
<stop offset="1" stop-color="#ECA15C" stop-opacity="0.98"/>
</linearGradient>
<linearGradient id="paint16_linear_230_1997" x1="52.2013" y1="116.338" x2="52.4718" y2="118.283" gradientUnits="userSpaceOnUse">
<stop stop-color="#DE9F54"/>
<stop offset="0.163765" stop-color="#FCD074" stop-opacity="0.995122"/>
<stop offset="0.253331" stop-color="#FCD97F" stop-opacity="0.993854"/>
<stop offset="0.452321" stop-color="#D59740" stop-opacity="0.985729"/>
<stop offset="1" stop-color="#ECA15C" stop-opacity="0.98"/>
</linearGradient>
<linearGradient id="paint17_linear_230_1997" x1="45.0459" y1="117.615" x2="45.18" y2="118.169" gradientUnits="userSpaceOnUse">
<stop stop-color="#DE9F54"/>
<stop offset="0.163765" stop-color="#FCD074" stop-opacity="0.995122"/>
<stop offset="0.253331" stop-color="#FCD97F" stop-opacity="0.993854"/>
<stop offset="0.452321" stop-color="#D59740" stop-opacity="0.985729"/>
<stop offset="1" stop-color="#ECA15C" stop-opacity="0.98"/>
</linearGradient>
<linearGradient id="paint18_linear_230_1997" x1="43.3885" y1="117.967" x2="43.5122" y2="118.43" gradientUnits="userSpaceOnUse">
<stop stop-color="#DE9F54"/>
<stop offset="0.163765" stop-color="#FCD074" stop-opacity="0.995122"/>
<stop offset="0.253331" stop-color="#FCD97F" stop-opacity="0.993854"/>
<stop offset="0.452321" stop-color="#D59740" stop-opacity="0.985729"/>
<stop offset="1" stop-color="#ECA15C" stop-opacity="0.98"/>
</linearGradient>
<linearGradient id="paint19_linear_230_1997" x1="56.4015" y1="116.175" x2="56.591" y2="118.645" gradientUnits="userSpaceOnUse">
<stop stop-color="#DE9F54"/>
<stop offset="0.163765" stop-color="#FCD074" stop-opacity="0.995122"/>
<stop offset="0.253331" stop-color="#FCD97F" stop-opacity="0.993854"/>
<stop offset="0.452321" stop-color="#D59740" stop-opacity="0.985729"/>
<stop offset="1" stop-color="#ECA15C" stop-opacity="0.98"/>
</linearGradient>
<linearGradient id="paint20_linear_230_1997" x1="60.8002" y1="116.363" x2="60.8265" y2="119.382" gradientUnits="userSpaceOnUse">
<stop stop-color="#DE9F54"/>
<stop offset="0.163765" stop-color="#FCD074" stop-opacity="0.995122"/>
<stop offset="0.253331" stop-color="#FCD97F" stop-opacity="0.993854"/>
<stop offset="0.452321" stop-color="#D59740" stop-opacity="0.985729"/>
<stop offset="1" stop-color="#ECA15C" stop-opacity="0.98"/>
</linearGradient>
<linearGradient id="paint21_linear_230_1997" x1="73.9458" y1="119.998" x2="73.5258" y2="122.178" gradientUnits="userSpaceOnUse">
<stop stop-color="#DE9F54"/>
<stop offset="0.163765" stop-color="#FCD074" stop-opacity="0.995122"/>
<stop offset="0.253331" stop-color="#FCD97F" stop-opacity="0.993854"/>
<stop offset="0.452321" stop-color="#D59740" stop-opacity="0.985729"/>
<stop offset="1" stop-color="#ECA15C" stop-opacity="0.98"/>
</linearGradient>
<linearGradient id="paint22_linear_230_1997" x1="41.4117" y1="118.45" x2="41.517" y2="118.805" gradientUnits="userSpaceOnUse">
<stop stop-color="#DE9F54"/>
<stop offset="0.163765" stop-color="#FCD074" stop-opacity="0.995122"/>
<stop offset="0.253331" stop-color="#FCD97F" stop-opacity="0.993854"/>
<stop offset="0.452321" stop-color="#D59740" stop-opacity="0.985729"/>
<stop offset="1" stop-color="#ECA15C" stop-opacity="0.98"/>
</linearGradient>
<linearGradient id="paint23_linear_230_1997" x1="39.0287" y1="119.011" x2="39.22" y2="119.575" gradientUnits="userSpaceOnUse">
<stop stop-color="#DE9F54"/>
<stop offset="0.163765" stop-color="#FCD074" stop-opacity="0.995122"/>
<stop offset="0.253331" stop-color="#FCD97F" stop-opacity="0.993854"/>
<stop offset="0.452321" stop-color="#D59740" stop-opacity="0.985729"/>
<stop offset="1" stop-color="#ECA15C" stop-opacity="0.98"/>
</linearGradient>
<linearGradient id="paint24_linear_230_1997" x1="70.1205" y1="117.993" x2="69.5755" y2="122.006" gradientUnits="userSpaceOnUse">
<stop stop-color="#DE9F54"/>
<stop offset="0.163765" stop-color="#FCD074" stop-opacity="0.995122"/>
<stop offset="0.253331" stop-color="#FCD97F" stop-opacity="0.993854"/>
<stop offset="0.452321" stop-color="#D59740" stop-opacity="0.985729"/>
<stop offset="1" stop-color="#ECA15C" stop-opacity="0.98"/>
</linearGradient>
<linearGradient id="paint25_linear_230_1997" x1="65.3755" y1="116.951" x2="65.1619" y2="120.491" gradientUnits="userSpaceOnUse">
<stop stop-color="#DE9F54"/>
<stop offset="0.163765" stop-color="#FCD074" stop-opacity="0.995122"/>
<stop offset="0.253331" stop-color="#FCD97F" stop-opacity="0.993854"/>
<stop offset="0.452321" stop-color="#D59740" stop-opacity="0.985729"/>
<stop offset="1" stop-color="#ECA15C" stop-opacity="0.98"/>
</linearGradient>
<linearGradient id="paint26_linear_230_1997" x1="96.143" y1="115.976" x2="73.2286" y2="226.436" gradientUnits="userSpaceOnUse">
<stop stop-color="#DE9F54"/>
<stop offset="0.163765" stop-color="#FCD074" stop-opacity="0.995122"/>
<stop offset="0.253331" stop-color="#FCD97F" stop-opacity="0.993854"/>
<stop offset="0.452321" stop-color="#D59740" stop-opacity="0.985729"/>
<stop offset="1" stop-color="#ECA15C" stop-opacity="0.98"/>
</linearGradient>
<linearGradient id="paint27_linear_230_1997" x1="95.0621" y1="111.166" x2="81.2975" y2="209.415" gradientUnits="userSpaceOnUse">
<stop stop-color="#DE9F54"/>
<stop offset="0.163765" stop-color="#FCD074" stop-opacity="0.995122"/>
<stop offset="0.253331" stop-color="#FCD97F" stop-opacity="0.993854"/>
<stop offset="0.452321" stop-color="#D59740" stop-opacity="0.985729"/>
<stop offset="1" stop-color="#ECA15C" stop-opacity="0.98"/>
</linearGradient>
<linearGradient id="paint28_linear_230_1997" x1="92.8044" y1="113.99" x2="84.0696" y2="187.067" gradientUnits="userSpaceOnUse">
<stop stop-color="#DE9F54"/>
<stop offset="0.163765" stop-color="#FCD074" stop-opacity="0.995122"/>
<stop offset="0.253331" stop-color="#FCD97F" stop-opacity="0.993854"/>
<stop offset="0.452321" stop-color="#D59740" stop-opacity="0.985729"/>
<stop offset="1" stop-color="#ECA15C" stop-opacity="0.98"/>
</linearGradient>
<linearGradient id="paint29_linear_230_1997" x1="94.9901" y1="81.9219" x2="106.104" y2="135.125" gradientUnits="userSpaceOnUse">
<stop stop-color="#DE9F54"/>
<stop offset="0.163765" stop-color="#FCD074" stop-opacity="0.995122"/>
<stop offset="0.253331" stop-color="#FCD97F" stop-opacity="0.993854"/>
<stop offset="0.452321" stop-color="#D59740" stop-opacity="0.985729"/>
<stop offset="1" stop-color="#ECA15C" stop-opacity="0.98"/>
</linearGradient>
<linearGradient id="paint30_linear_230_1997" x1="55.2904" y1="112.156" x2="47.6648" y2="161.18" gradientUnits="userSpaceOnUse">
<stop stop-color="#DE9F54"/>
<stop offset="0.163765" stop-color="#FCD074" stop-opacity="0.995122"/>
<stop offset="0.253331" stop-color="#FCD97F" stop-opacity="0.993854"/>
<stop offset="0.452321" stop-color="#D59740" stop-opacity="0.985729"/>
<stop offset="1" stop-color="#ECA15C" stop-opacity="0.98"/>
</linearGradient>
<linearGradient id="paint31_linear_230_1997" x1="120.124" y1="97.1119" x2="114.554" y2="143.549" gradientUnits="userSpaceOnUse">
<stop stop-color="#DE9F54"/>
<stop offset="0.163765" stop-color="#FCD074" stop-opacity="0.995122"/>
<stop offset="0.253331" stop-color="#FCD97F" stop-opacity="0.993854"/>
<stop offset="0.452321" stop-color="#D59740" stop-opacity="0.985729"/>
<stop offset="1" stop-color="#ECA15C" stop-opacity="0.98"/>
</linearGradient>
<linearGradient id="paint32_linear_230_1997" x1="87.7948" y1="120.215" x2="71.8084" y2="140.673" gradientUnits="userSpaceOnUse">
<stop stop-color="#DE9F54"/>
<stop offset="0.163765" stop-color="#FCD074" stop-opacity="0.995122"/>
<stop offset="0.253331" stop-color="#FCD97F" stop-opacity="0.993854"/>
<stop offset="0.452321" stop-color="#D59740" stop-opacity="0.985729"/>
<stop offset="1" stop-color="#ECA15C" stop-opacity="0.98"/>
</linearGradient>
<linearGradient id="paint33_linear_230_1997" x1="291.166" y1="100.486" x2="213.079" y2="266.168" gradientUnits="userSpaceOnUse">
<stop stop-color="#DE9F54"/>
<stop offset="0.163765" stop-color="#FCD074" stop-opacity="0.995122"/>
<stop offset="0.253331" stop-color="#FCD97F" stop-opacity="0.993854"/>
<stop offset="0.452321" stop-color="#D59740" stop-opacity="0.985729"/>
<stop offset="1" stop-color="#ECA15C" stop-opacity="0.98"/>
</linearGradient>
<linearGradient id="paint34_linear_230_1997" x1="313.46" y1="71.854" x2="277.776" y2="167.14" gradientUnits="userSpaceOnUse">
<stop stop-color="#DE9F54"/>
<stop offset="0.163765" stop-color="#FCD074" stop-opacity="0.995122"/>
<stop offset="0.253331" stop-color="#FCD97F" stop-opacity="0.993854"/>
<stop offset="0.452321" stop-color="#D59740" stop-opacity="0.985729"/>
<stop offset="1" stop-color="#ECA15C" stop-opacity="0.98"/>
</linearGradient>
<linearGradient id="paint35_linear_230_1997" x1="287.139" y1="88.186" x2="271.882" y2="121.735" gradientUnits="userSpaceOnUse">
<stop stop-color="#DE9F54"/>
<stop offset="0.163765" stop-color="#FCD074" stop-opacity="0.995122"/>
<stop offset="0.253331" stop-color="#FCD97F" stop-opacity="0.993854"/>
<stop offset="0.452321" stop-color="#D59740" stop-opacity="0.985729"/>
<stop offset="1" stop-color="#ECA15C" stop-opacity="0.98"/>
</linearGradient>
<linearGradient id="paint36_linear_230_1997" x1="285.668" y1="100.237" x2="282.396" y2="107.433" gradientUnits="userSpaceOnUse">
<stop stop-color="#DE9F54"/>
<stop offset="0.163765" stop-color="#FCD074" stop-opacity="0.995122"/>
<stop offset="0.253331" stop-color="#FCD97F" stop-opacity="0.993854"/>
<stop offset="0.452321" stop-color="#D59740" stop-opacity="0.985729"/>
<stop offset="1" stop-color="#ECA15C" stop-opacity="0.98"/>
</linearGradient>
<linearGradient id="paint37_linear_230_1997" x1="329.715" y1="106.473" x2="314.459" y2="140.022" gradientUnits="userSpaceOnUse">
<stop stop-color="#DE9F54"/>
<stop offset="0.163765" stop-color="#FCD074" stop-opacity="0.995122"/>
<stop offset="0.253331" stop-color="#FCD97F" stop-opacity="0.993854"/>
<stop offset="0.452321" stop-color="#D59740" stop-opacity="0.985729"/>
<stop offset="1" stop-color="#ECA15C" stop-opacity="0.98"/>
</linearGradient>
<linearGradient id="paint38_linear_230_1997" x1="328.248" y1="118.472" x2="324.924" y2="125.782" gradientUnits="userSpaceOnUse">
<stop stop-color="#DE9F54"/>
<stop offset="0.163765" stop-color="#FCD074" stop-opacity="0.995122"/>
<stop offset="0.253331" stop-color="#FCD97F" stop-opacity="0.993854"/>
<stop offset="0.452321" stop-color="#D59740" stop-opacity="0.985729"/>
<stop offset="1" stop-color="#ECA15C" stop-opacity="0.98"/>
</linearGradient>
<linearGradient id="paint39_linear_230_1997" x1="266.191" y1="164.424" x2="219.39" y2="265.592" gradientUnits="userSpaceOnUse">
<stop stop-color="#DE9F54"/>
<stop offset="0.163765" stop-color="#FCD074" stop-opacity="0.995122"/>
<stop offset="0.253331" stop-color="#FCD97F" stop-opacity="0.993854"/>
<stop offset="0.452321" stop-color="#D59740" stop-opacity="0.985729"/>
<stop offset="1" stop-color="#ECA15C" stop-opacity="0.98"/>
</linearGradient>
<linearGradient id="paint40_linear_230_1997" x1="298.82" y1="121.973" x2="284.1" y2="147.298" gradientUnits="userSpaceOnUse">
<stop stop-color="#DE9F54"/>
<stop offset="0.163765" stop-color="#FCD074" stop-opacity="0.995122"/>
<stop offset="0.253331" stop-color="#FCD97F" stop-opacity="0.993854"/>
<stop offset="0.452321" stop-color="#D59740" stop-opacity="0.985729"/>
<stop offset="1" stop-color="#ECA15C" stop-opacity="0.98"/>
</linearGradient>
<linearGradient id="paint41_linear_230_1997" x1="293.012" y1="38.4579" x2="260.336" y2="63.7968" gradientUnits="userSpaceOnUse">
<stop stop-color="#DE9F54"/>
<stop offset="0.163765" stop-color="#FCD074" stop-opacity="0.995122"/>
<stop offset="0.253331" stop-color="#FCD97F" stop-opacity="0.993854"/>
<stop offset="0.452321" stop-color="#D59740" stop-opacity="0.985729"/>
<stop offset="1" stop-color="#ECA15C" stop-opacity="0.98"/>
</linearGradient>
<linearGradient id="paint42_linear_230_1997" x1="351.746" y1="76.6091" x2="351.215" y2="104.271" gradientUnits="userSpaceOnUse">
<stop stop-color="#DE9F54"/>
<stop offset="0.163765" stop-color="#FCD074" stop-opacity="0.995122"/>
<stop offset="0.253331" stop-color="#FCD97F" stop-opacity="0.993854"/>
<stop offset="0.452321" stop-color="#D59740" stop-opacity="0.985729"/>
<stop offset="1" stop-color="#ECA15C" stop-opacity="0.98"/>
</linearGradient>
<linearGradient id="paint43_linear_230_1997" x1="334.642" y1="32.3497" x2="300.21" y2="97.8662" gradientUnits="userSpaceOnUse">
<stop stop-color="#DE9F54"/>
<stop offset="0.163765" stop-color="#FCD074" stop-opacity="0.995122"/>
<stop offset="0.253331" stop-color="#FCD97F" stop-opacity="0.993854"/>
<stop offset="0.452321" stop-color="#D59740" stop-opacity="0.985729"/>
<stop offset="1" stop-color="#ECA15C" stop-opacity="0.98"/>
</linearGradient>
<linearGradient id="paint44_linear_230_1997" x1="261.108" y1="202.012" x2="239.419" y2="270.628" gradientUnits="userSpaceOnUse">
<stop stop-color="#DE9F54"/>
<stop offset="0.163765" stop-color="#FCD074" stop-opacity="0.995122"/>
<stop offset="0.253331" stop-color="#FCD97F" stop-opacity="0.993854"/>
<stop offset="0.452321" stop-color="#D59740" stop-opacity="0.985729"/>
<stop offset="1" stop-color="#ECA15C" stop-opacity="0.98"/>
</linearGradient>
<linearGradient id="paint45_linear_230_1997" x1="327.019" y1="176.03" x2="281.974" y2="239.259" gradientUnits="userSpaceOnUse">
<stop stop-color="#DE9F54"/>
<stop offset="0.163765" stop-color="#FCD074" stop-opacity="0.995122"/>
<stop offset="0.253331" stop-color="#FCD97F" stop-opacity="0.993854"/>
<stop offset="0.452321" stop-color="#D59740" stop-opacity="0.985729"/>
<stop offset="1" stop-color="#ECA15C" stop-opacity="0.98"/>
</linearGradient>
<linearGradient id="paint46_linear_230_1997" x1="223.635" y1="130.017" x2="179.606" y2="197.595" gradientUnits="userSpaceOnUse">
<stop stop-color="#DE9F54"/>
<stop offset="0.163765" stop-color="#FCD074" stop-opacity="0.995122"/>
<stop offset="0.253331" stop-color="#FCD97F" stop-opacity="0.993854"/>
<stop offset="0.452321" stop-color="#D59740" stop-opacity="0.985729"/>
<stop offset="1" stop-color="#ECA15C" stop-opacity="0.98"/>
</linearGradient>
<linearGradient id="paint47_linear_230_1997" x1="301.867" y1="108.47" x2="265.397" y2="209.571" gradientUnits="userSpaceOnUse">
<stop stop-color="#DE9F54"/>
<stop offset="0.163765" stop-color="#FCD074" stop-opacity="0.995122"/>
<stop offset="0.253331" stop-color="#FCD97F" stop-opacity="0.993854"/>
<stop offset="0.452321" stop-color="#D59740" stop-opacity="0.985729"/>
<stop offset="1" stop-color="#ECA15C" stop-opacity="0.98"/>
</linearGradient>
<linearGradient id="paint48_linear_230_1997" x1="294.794" y1="66.3128" x2="193.348" y2="256.755" gradientUnits="userSpaceOnUse">
<stop stop-color="#DE9F54"/>
<stop offset="0.163765" stop-color="#FCD074" stop-opacity="0.995122"/>
<stop offset="0.253331" stop-color="#FCD97F" stop-opacity="0.993854"/>
<stop offset="0.452321" stop-color="#D59740" stop-opacity="0.985729"/>
<stop offset="1" stop-color="#ECA15C" stop-opacity="0.98"/>
</linearGradient>
<linearGradient id="paint49_linear_230_1997" x1="228.984" y1="125.149" x2="176.776" y2="220.031" gradientUnits="userSpaceOnUse">
<stop stop-color="#DE9F54"/>
<stop offset="0.163765" stop-color="#FCD074" stop-opacity="0.995122"/>
<stop offset="0.253331" stop-color="#FCD97F" stop-opacity="0.993854"/>
<stop offset="0.452321" stop-color="#D59740" stop-opacity="0.985729"/>
<stop offset="1" stop-color="#ECA15C" stop-opacity="0.98"/>
</linearGradient>
<linearGradient id="paint50_linear_230_1997" x1="322.195" y1="167.098" x2="261.925" y2="251.041" gradientUnits="userSpaceOnUse">
<stop stop-color="#DE9F54"/>
<stop offset="0.163765" stop-color="#FCD074" stop-opacity="0.995122"/>
<stop offset="0.253331" stop-color="#FCD97F" stop-opacity="0.993854"/>
<stop offset="0.452321" stop-color="#D59740" stop-opacity="0.985729"/>
<stop offset="1" stop-color="#ECA15C" stop-opacity="0.98"/>
</linearGradient>
<linearGradient id="paint51_linear_230_1997" x1="219.207" y1="232.62" x2="123.59" y2="408.625" gradientUnits="userSpaceOnUse">
<stop stop-color="#DE9F54"/>
<stop offset="0.163765" stop-color="#FCD074" stop-opacity="0.995122"/>
<stop offset="0.253331" stop-color="#FCD97F" stop-opacity="0.993854"/>
<stop offset="0.452321" stop-color="#D59740" stop-opacity="0.985729"/>
<stop offset="1" stop-color="#ECA15C" stop-opacity="0.98"/>
</linearGradient>
<linearGradient id="paint52_linear_230_1997" x1="314.513" y1="151" x2="160.045" y2="188.067" gradientUnits="userSpaceOnUse">
<stop stop-color="#DE9F54"/>
<stop offset="0.163765" stop-color="#FCD074" stop-opacity="0.995122"/>
<stop offset="0.253331" stop-color="#FCD97F" stop-opacity="0.993854"/>
<stop offset="0.452321" stop-color="#D59740" stop-opacity="0.985729"/>
<stop offset="1" stop-color="#ECA15C" stop-opacity="0.98"/>
</linearGradient>
</defs>
</svg>
